<svg xmlns="http://www.w3.org/2000/svg" width="55.988" height="47.257" viewBox="0 0 55.988 47.257">
  <g id="contratado" transform="translate(0 10.423)">
    <path id="Trazado_4388" data-name="Trazado 4388" d="M0,0H33.926V36.834H0Z" fill="none"/>
    <path id="Trazado_4389" data-name="Trazado 4389" d="M21.759,9.14a5.14,5.14,0,1,1-5.14,5.14,5.155,5.155,0,0,1,5.14-5.14m0,23.129c6.939,0,14.905,3.341,15.419,5.14v2.57H6.34v-2.57c.514-1.8,8.481-5.14,15.419-5.14M21.759,4a10.28,10.28,0,1,0,10.28,10.28A10.148,10.148,0,0,0,21.759,4Zm0,23.129C14.821,27.129,1.2,30.47,1.2,37.409v7.71H42.319v-7.71C42.319,30.47,28.7,27.129,21.759,27.129Z" transform="translate(0.642 -14.423)" fill="#68b744"/>
    <rect id="Rect치ngulo_89" data-name="Rect치ngulo 89" width="20.045" height="5.14" transform="translate(38.18 8.729) rotate(-45)" fill="#68b744"/>
    <rect id="Rect치ngulo_90" data-name="Rect치ngulo 90" width="11.308" height="5.14" transform="translate(41.381 12.002) rotate(-135)" fill="#68b744"/>
  </g>
</svg>
