<svg xmlns="http://www.w3.org/2000/svg" width="13.663" height="15.182" viewBox="0 0 13.663 15.182">
  <g id="Grupo_563" data-name="Grupo 563" transform="translate(33.302 -8.061)">
    <rect id="Rect치ngulo_245" data-name="Rect치ngulo 245" width="1.518" height="5.826" transform="translate(-19.687 19.489) rotate(90)" fill="#b2b3b5"/>
    <rect id="Rect치ngulo_246" data-name="Rect치ngulo 246" width="1.518" height="5.826" transform="translate(-23.359 17.335)" fill="#b2b3b5"/>
    <g id="Grupo_562" data-name="Grupo 562">
      <path id="Trazado_4573" data-name="Trazado 4573" d="M-26.47,11.1a.759.759,0,0,0,.759-.759.759.759,0,0,0-.759-.759.761.761,0,0,0-.759.759A.759.759,0,0,0-26.47,11.1Z" fill="#b2b3b5"/>
      <path id="Trazado_4574" data-name="Trazado 4574" d="M-31.784,21.725V11.1h1.518v2.277h7.591V11.1h1.518v6.237h1.518V11.1A1.524,1.524,0,0,0-21.157,9.58H-24.33a2.267,2.267,0,0,0-2.89-1.39,2.267,2.267,0,0,0-1.391,1.39h-3.173A1.524,1.524,0,0,0-33.3,11.1V21.725a1.522,1.522,0,0,0,1.518,1.518h6.073V21.725ZM-26.47,9.58a.759.759,0,0,1,.759.759.759.759,0,0,1-.759.759.759.759,0,0,1-.759-.759A.761.761,0,0,1-26.47,9.58Z" fill="#b2b3b5"/>
    </g>
  </g>
</svg>
