<svg xmlns="http://www.w3.org/2000/svg" width="22.927" height="27.449" viewBox="0 0 22.927 27.449">
  <path id="Trazado_4518" data-name="Trazado 4518" d="M14.464,11.415A5.095,5.095,0,1,0,9.369,6.32,5.094,5.094,0,0,0,14.464,11.415Zm0-7.642A2.547,2.547,0,1,1,11.916,6.32,2.555,2.555,0,0,1,14.464,3.772Zm0,10.89A16.754,16.754,0,0,0,3,10.141V24.152a16.754,16.754,0,0,1,11.464,4.522,16.813,16.813,0,0,1,11.464-4.522V10.141A16.754,16.754,0,0,0,14.464,14.663ZM23.38,21.77a19.4,19.4,0,0,0-8.916,3.592,19.36,19.36,0,0,0-8.916-3.6V12.905a14.239,14.239,0,0,1,7.184,3.6l1.732,1.63L16.2,16.523a14.239,14.239,0,0,1,7.184-3.6Z" transform="translate(-3 -1.225)" fill="#1c4a83"/>
</svg>
