<svg xmlns="http://www.w3.org/2000/svg" width="13.776" height="15.306" viewBox="0 0 13.776 15.306">
  <path id="Trazado_4557" data-name="Trazado 4557" d="M15.245,2.531h-3.2a2.287,2.287,0,0,0-4.316,0h-3.2A1.535,1.535,0,0,0,3,4.061V14.776a1.535,1.535,0,0,0,1.531,1.531H15.245a1.535,1.535,0,0,0,.367-.049h.009v0a1.528,1.528,0,0,0,1.154-1.479V4.061A1.535,1.535,0,0,0,15.245,2.531Zm-5.357,0a.765.765,0,1,1-.765.765A.768.768,0,0,1,9.888,2.531ZM4.531,4.061H6.061v2.3h7.653v-2.3h1.531V14.776H4.531Z" transform="translate(-3 -1)" fill="#fff"/>
</svg>
