<svg xmlns="http://www.w3.org/2000/svg" width="23.742" height="17.267" viewBox="0 0 23.742 17.267">
  <path id="Trazado_4419" data-name="Trazado 4419" d="M20.425,14.792V6.158A2.165,2.165,0,0,0,18.267,4H3.158A2.165,2.165,0,0,0,1,6.158v8.634A2.165,2.165,0,0,0,3.158,16.95H18.267A2.165,2.165,0,0,0,20.425,14.792Zm-2.158,0H3.158V6.158H18.267ZM10.713,7.238a3.238,3.238,0,1,0,3.238,3.238A3.233,3.233,0,0,0,10.713,7.238Zm14.029,0V19.109a2.165,2.165,0,0,1-2.158,2.158H4.238V19.109H22.584V7.238Z" transform="translate(-1 -4)" fill="#707070"/>
</svg>
