<?xml version="1.0" encoding="utf-8"?>
<!-- Generator: Adobe Illustrator 24.1.3, SVG Export Plug-In . SVG Version: 6.00 Build 0)  -->
<svg version="1.1" id="Layer_1" xmlns="http://www.w3.org/2000/svg" xmlns:xlink="http://www.w3.org/1999/xlink" x="0px" y="0px"
	 viewBox="0 0 110 60" style="enable-background:new 0 0 110 60;" xml:space="preserve">
<style type="text/css">
	.st0{fill:#FFFFFF;}
	.st1{fill:url(#SVGID_1_);}
	.st2{fill:#68B744;}
</style>
<g>
	<g>
		<path class="st0" d="M48,50.8c0,0.1-2.3,1.6-5,2.7c-3.4,1.5-8.6,2.8-12.6,2.8C15.8,56.4,3.9,44.4,4,29.7
			C4.1,15.4,15.8,3.7,30.1,3.5C37,3.4,42.6,5.6,47.4,9.6c-2.7,2.5-4.8,6-6.1,9.8c-2.9-3-7-4.9-11.5-4.8c-8.1,0.2-14.7,6.8-14.9,14.9
			c-0.2,8.6,6.7,15.7,15.3,15.7c2.4,0,6.1-1.1,8.2-2c1.2-0.5,2.4-1.1,3.5-1.6C43,44.4,45.1,48.2,48,50.8z"/>
		<linearGradient id="SVGID_1_" gradientUnits="userSpaceOnUse" x1="60.4118" y1="46.129" x2="83.7654" y2="21.9105">
			<stop  offset="0.296" style="stop-color:#1C4A83"/>
			<stop  offset="0.9043" style="stop-color:#68B744"/>
		</linearGradient>
		<path class="st1" d="M63.1,30.4c1.2,6.3,6.2,9.5,6.2,9.5l19.2-10c0-4.1-1.6-7.8-4.2-10.6L63.1,30.4z"/>
	</g>
	<path class="st2" d="M106,47.4l-0.5-14.8l-14.8,0.5l3.8,3.5c-2.3,1.9-5.3,4-9.5,6c-2,0.9-7.2,2.7-12.2,2.6c-3.2,0-6.1-1-8.5-2.6
		l0,0c-3.2-2.2-5.3-5.6-6.1-9.5l0,0c0,0,0,0,0-0.1c0-0.2-0.1-0.4-0.1-0.6c0-0.1,0-0.1,0-0.2c0-0.2-0.1-0.4-0.1-0.6
		c0-0.1,0-0.1,0-0.2c0-0.2,0-0.4,0-0.6c0-0.1,0-0.1,0-0.2c0-0.2,0-0.4,0-0.6c0-0.1,0-0.1,0-0.2c0,0,0,0,0,0c0-0.3,0-0.6,0-0.8
		c0,0,0,0,0-0.1c0-0.1,0-0.2,0-0.3c0-0.2,0-0.4,0.1-0.6c0,0,0-0.1,0-0.1c0-0.1,0-0.2,0-0.3c0-0.1,0-0.2,0-0.3c0-0.2,0.1-0.3,0.1-0.5
		c0-0.1,0-0.2,0.1-0.3c0-0.2,0.1-0.3,0.1-0.5c0-0.1,0-0.1,0.1-0.2c0.1-0.2,0.1-0.4,0.2-0.6c0,0,0-0.1,0-0.1c0.1-0.2,0.2-0.5,0.2-0.7
		c0,0,0-0.1,0-0.1c0.1-0.2,0.2-0.4,0.2-0.6c0-0.1,0.1-0.2,0.1-0.3c0.1-0.1,0.1-0.3,0.2-0.4c0-0.1,0.1-0.2,0.1-0.3
		c0.1-0.1,0.1-0.2,0.2-0.3c0.1-0.1,0.1-0.2,0.2-0.3c0.1-0.1,0.1-0.2,0.2-0.3c0.1-0.1,0.1-0.2,0.2-0.3c0.1-0.1,0.1-0.2,0.2-0.3
		c0.1-0.1,0.1-0.2,0.2-0.3c0.1-0.1,0.1-0.2,0.2-0.3c0.1-0.1,0.1-0.2,0.2-0.3c0.1-0.1,0.2-0.2,0.2-0.3c0.1-0.1,0.1-0.2,0.2-0.3
		c0.1-0.1,0.2-0.2,0.3-0.3c0.1-0.1,0.1-0.2,0.2-0.2c0.1-0.1,0.2-0.2,0.3-0.3c0.1-0.1,0.1-0.1,0.2-0.2c0.1-0.1,0.2-0.2,0.4-0.3
		c0,0,0.1-0.1,0.1-0.1c0.4-0.3,0.7-0.6,1.1-0.9c0,0,0.1-0.1,0.1-0.1c0.2-0.1,0.3-0.2,0.5-0.3c0.1,0,0.1-0.1,0.2-0.1
		c0.1-0.1,0.3-0.2,0.4-0.3c0.1,0,0.1-0.1,0.2-0.1c0.1-0.1,0.3-0.2,0.4-0.2c0.1,0,0.2-0.1,0.2-0.1c0.1-0.1,0.3-0.1,0.4-0.2
		c0.1,0,0.2-0.1,0.3-0.1c0.1-0.1,0.2-0.1,0.4-0.2c0.1,0,0.2-0.1,0.3-0.1c0.1,0,0.2-0.1,0.4-0.1c0.1,0,0.2-0.1,0.3-0.1
		c0.1,0,0.2-0.1,0.3-0.1c0.1,0,0.2-0.1,0.4-0.1c0.1,0,0.2-0.1,0.3-0.1c0.1,0,0.3-0.1,0.4-0.1c0.1,0,0.2,0,0.3-0.1
		c0.1,0,0.3-0.1,0.4-0.1c0.1,0,0.1,0,0.2,0c0.2,0,0.3-0.1,0.5-0.1c0,0,0,0,0.1,0c0.6-0.1,1.2-0.1,1.8-0.1c0.1,0,0.2,0,0.3,0
		c0,0,0,0,0,0c0.2,0,0.3,0,0.5,0c0.1,0,0.2,0,0.4,0c0,0,0,0,0,0c0,0,0.1,0,0.1,0c1.8,0.1,3.5,0.5,5,1.2c0,0,0,0,0,0
		c0.2,0.1,0.4,0.2,0.6,0.3c0,0,0,0,0.1,0c0.2,0.1,0.4,0.2,0.6,0.3c0,0,0,0,0.1,0c0.2,0.1,0.4,0.2,0.6,0.3c0,0,0,0,0.1,0
		c0.2,0.1,0.4,0.2,0.6,0.4c0,0,0,0,0,0c0.2,0.1,0.4,0.3,0.6,0.4c0,0,0,0,0,0c0.7,0.5,1.3,1.1,1.9,1.7l0,0c2.6,2.8,4.2,6.5,4.2,10.6
		l0,0l10.5-5.5c-0.8-3.8-2.4-7.3-4.6-10.3C89.4,7.7,81.7,3.5,73,3.5c-8.4,0-15.9,3.9-20.7,10c-3.6,4.5-5.7,10.2-5.7,16.4
		c0,3,0.5,5.8,1.4,8.5c1,2.9,2.5,5.6,4.3,7.9c0.5,0.6,1,1.2,1.5,1.8l0.1,0c5.6,6,14.7,9.3,23.3,8.2c5.5-0.4,11.1-2.5,17-6
		c3.8-2.2,6.3-4.3,8.3-6.2L106,47.4z"/>
</g>
</svg>
