<svg width="149" height="119" xmlns="http://www.w3.org/2000/svg" xmlns:xlink="http://www.w3.org/1999/xlink" overflow="hidden"><defs><clipPath id="clip0"><rect x="270" y="274" width="149" height="119"/></clipPath><clipPath id="clip1"><rect x="271" y="275" width="147" height="117"/></clipPath><clipPath id="clip2"><rect x="271" y="275" width="147" height="117"/></clipPath><clipPath id="clip3"><rect x="271" y="275" width="147" height="147"/></clipPath><linearGradient x1="55.0417" y1="22.3282" x2="7.66909" y2="22.3282" gradientUnits="userSpaceOnUse" spreadMethod="pad" id="fill4"><stop offset="0" stop-color="#5DB64B"/><stop offset="0.23" stop-color="#4DA667"/><stop offset="0.72" stop-color="#247EAD"/><stop offset="1" stop-color="#0C66D8"/></linearGradient><linearGradient x1="74.0776" y1="30.256" x2="1.23824" y2="30.256" gradientUnits="userSpaceOnUse" spreadMethod="pad" id="fill5"><stop offset="0" stop-color="#5DB64B"/><stop offset="0.23" stop-color="#4DA667"/><stop offset="0.72" stop-color="#247EAD"/><stop offset="1" stop-color="#0C66D8"/></linearGradient><linearGradient x1="88.6109" y1="37.7808" x2="0" y2="37.7808" gradientUnits="userSpaceOnUse" spreadMethod="pad" id="fill6"><stop offset="0" stop-color="#5DB64B"/><stop offset="0.23" stop-color="#4DA667"/><stop offset="0.72" stop-color="#247EAD"/><stop offset="1" stop-color="#0C66D8"/></linearGradient><linearGradient x1="100.747" y1="45.5722" x2="0.389446" y2="45.5722" gradientUnits="userSpaceOnUse" spreadMethod="pad" id="fill7"><stop offset="0" stop-color="#5DB64B"/><stop offset="0.23" stop-color="#4DA667"/><stop offset="0.72" stop-color="#247EAD"/><stop offset="1" stop-color="#0C66D8"/></linearGradient><linearGradient x1="111.263" y1="53.6207" x2="2.75608" y2="53.6207" gradientUnits="userSpaceOnUse" spreadMethod="pad" id="fill8"><stop offset="0" stop-color="#5DB64B"/><stop offset="0.23" stop-color="#4DA667"/><stop offset="0.72" stop-color="#247EAD"/><stop offset="1" stop-color="#0C66D8"/></linearGradient><linearGradient x1="120.482" y1="61.8046" x2="6.78035" y2="61.8046" gradientUnits="userSpaceOnUse" spreadMethod="pad" id="fill9"><stop offset="0" stop-color="#5DB64B"/><stop offset="0.23" stop-color="#4DA667"/><stop offset="0.72" stop-color="#247EAD"/><stop offset="1" stop-color="#0C66D8"/></linearGradient><linearGradient x1="128.567" y1="70.1827" x2="12.2925" y2="70.1827" gradientUnits="userSpaceOnUse" spreadMethod="pad" id="fill10"><stop offset="0" stop-color="#5DB64B"/><stop offset="0.23" stop-color="#4DA667"/><stop offset="0.72" stop-color="#247EAD"/><stop offset="1" stop-color="#0C66D8"/></linearGradient><linearGradient x1="135.57" y1="78.5987" x2="19.0629" y2="78.5987" gradientUnits="userSpaceOnUse" spreadMethod="pad" id="fill11"><stop offset="0" stop-color="#5DB64B"/><stop offset="0.23" stop-color="#4DA667"/><stop offset="0.72" stop-color="#247EAD"/><stop offset="1" stop-color="#0C66D8"/></linearGradient><linearGradient x1="141.451" y1="87.0926" x2="27.0915" y2="87.0926" gradientUnits="userSpaceOnUse" spreadMethod="pad" id="fill12"><stop offset="0" stop-color="#5DB64B"/><stop offset="0.23" stop-color="#4DA667"/><stop offset="0.72" stop-color="#247EAD"/><stop offset="1" stop-color="#0C66D8"/></linearGradient><linearGradient x1="146.152" y1="95.6429" x2="36.4282" y2="95.6429" gradientUnits="userSpaceOnUse" spreadMethod="pad" id="fill13"><stop offset="0" stop-color="#5DB64B"/><stop offset="0.23" stop-color="#4DA667"/><stop offset="0.72" stop-color="#247EAD"/><stop offset="1" stop-color="#0C66D8"/></linearGradient><linearGradient x1="149.443" y1="104.191" x2="47.2228" y2="104.191" gradientUnits="userSpaceOnUse" spreadMethod="pad" id="fill14"><stop offset="0" stop-color="#5DB64B"/><stop offset="0.23" stop-color="#4DA667"/><stop offset="0.72" stop-color="#247EAD"/><stop offset="1" stop-color="#0C66D8"/></linearGradient><linearGradient x1="150.979" y1="112.719" x2="59.775" y2="112.719" gradientUnits="userSpaceOnUse" spreadMethod="pad" id="fill15"><stop offset="0" stop-color="#5DB64B"/><stop offset="0.23" stop-color="#4DA667"/><stop offset="0.72" stop-color="#247EAD"/><stop offset="1" stop-color="#0C66D8"/></linearGradient><linearGradient x1="151.36" y1="121.215" x2="74.8935" y2="121.215" gradientUnits="userSpaceOnUse" spreadMethod="pad" id="fill16"><stop offset="0" stop-color="#5DB64B"/><stop offset="0.23" stop-color="#4DA667"/><stop offset="0.72" stop-color="#247EAD"/><stop offset="1" stop-color="#0C66D8"/></linearGradient><linearGradient x1="148.064" y1="130.628" x2="94.3408" y2="130.628" gradientUnits="userSpaceOnUse" spreadMethod="pad" id="fill17"><stop offset="0" stop-color="#5DB64B"/><stop offset="0.23" stop-color="#4DA667"/><stop offset="0.72" stop-color="#247EAD"/><stop offset="1" stop-color="#0C66D8"/></linearGradient></defs><g clip-path="url(#clip0)" transform="translate(-270 -274)"><g clip-path="url(#clip1)"><g clip-path="url(#clip2)"><g clip-path="url(#clip3)"><path d="M7.66909 2.65622C28.452 8.21545 45.7613 22.5912 55.0417 42.0003Z" fill="url(#fill4)" transform="matrix(1.00117 0 0 1 355.75 274.815)"/><path d="M1.23824 0 1.82341 0C5.0651 0.00787654 8.30279 0.22837 11.5156 0.660061L71.5812 50.5501C72.6441 53.8086 73.4783 57.1373 74.0776 60.5119Z" fill="url(#fill5)" transform="matrix(1.00117 0 0 1 342.679 275)"/><path d="M0 1.62469C2.64267 1.06677 5.31339 0.651098 8.00062 0.37946L88.3323 67.0985C88.5091 69.1896 88.6109 71.2986 88.6109 73.4355 88.6109 74.0207 88.6109 74.6069 88.564 75.1821Z" fill="url(#fill6)" transform="matrix(1.00117 0 0 1 329.284 274.974)"/><path d="M0.389446 5.49219C2.57334 4.61843 4.80317 3.82855 7.07993 3.16949L100.747 80.9588C100.523 83.3147 100.172 85.6567 99.6962 87.9749Z" fill="url(#fill7)" transform="matrix(1.00117 0 0 1 316.772 274.78)"/><path d="M2.75608 10.9514C4.61444 9.83701 6.5377 8.7875 8.5079 7.83885L111.263 93.1675C110.687 95.2858 110.021 97.3642 109.266 99.4026Z" fill="url(#fill8)" transform="matrix(1.00117 0 0 1 304.04 274.456)"/><path d="M6.78035 17.6968C8.38807 16.3867 10.0517 15.1235 11.7613 13.9801L120.482 104.246C119.633 106.154 118.703 108.012 117.694 109.821Z" fill="url(#fill9)" transform="matrix(1.00117 0 0 1 291.061 274.029)"/><path d="M12.2925 25.5097C13.6552 24.0045 15.0832 22.5612 16.5764 21.1799L128.567 114.187C127.48 115.906 126.309 117.569 125.082 119.185Z" fill="url(#fill10)" transform="matrix(1.00117 0 0 1 277.829 273.529)"/><path d="M131.413 127.699 19.0629 34.3861C20.1946 32.7071 21.3996 31.0778 22.6777 29.498L135.57 123.258C134.251 124.8 132.865 126.281 131.413 127.699Z" fill="url(#fill11)" transform="matrix(1.00117 0 0 1 264.512 272.952)"/><path d="M27.0915 44.3479C28.0211 42.4896 28.9498 40.6312 30.0093 38.8747L141.451 131.436C139.899 132.793 138.282 134.084 136.619 135.311Z" fill="url(#fill12)" transform="matrix(1.00117 0 0 1 251.143 272.3)"/><path d="M36.4282 55.4651C37.048 53.396 37.7666 51.3656 38.5841 49.3738L146.152 138.669C144.337 139.833 142.478 140.914 140.577 141.912Z" fill="url(#fill13)" transform="matrix(1.00117 0 0 1 237.738 271.572)"/><path d="M47.2228 67.8715C47.539 65.5547 47.9604 63.272 48.487 61.0232L149.443 144.868C147.324 145.798 145.15 146.624 142.939 147.358Z" fill="url(#fill14)" transform="matrix(1.00117 0 0 1 224.392 270.762)"/><path d="M59.8678 82.0263C59.8149 80.8849 59.775 79.7216 59.775 78.5602 59.775 77.0923 59.775 75.6234 59.9148 74.1745L150.979 149.777C148.437 150.412 145.862 150.908 143.266 151.264Z" fill="url(#fill15)" transform="matrix(1.00117 0 0 1 211.155 269.849)"/><path d="M141.705 152.776 76.8167 98.8803C75.9699 95.763 75.3275 92.5938 74.8935 89.3928L151.36 152.924C150.123 152.989 148.878 153.036 147.643 153.036 145.636 153.026 143.666 152.933 141.705 152.776Z" fill="url(#fill16)" transform="matrix(1.00117 0 0 1 196.689 268.792)"/><path d="M148.064 152.929C123.786 148.061 103.592 131.295 94.3408 108.326Z" fill="url(#fill17)" transform="matrix(1.00117 0 0 1 181.875 267.478)"/></g></g></g></g></svg>