<svg width="203" height="298" xmlns="http://www.w3.org/2000/svg" xmlns:xlink="http://www.w3.org/1999/xlink" overflow="hidden"><defs><clipPath id="clip0"><rect x="586" y="211" width="203" height="298"/></clipPath><clipPath id="clip1"><rect x="587" y="212" width="201" height="296"/></clipPath><clipPath id="clip2"><rect x="587" y="212" width="201" height="296"/></clipPath><clipPath id="clip3"><rect x="492" y="212" width="296" height="296"/></clipPath><linearGradient x1="103.143" y1="42.3015" x2="7.68472" y2="42.3015" gradientUnits="userSpaceOnUse" spreadMethod="pad" id="fill4"><stop offset="0" stop-color="#5DB64B"/><stop offset="0.23" stop-color="#4DA667"/><stop offset="0.72" stop-color="#247EAD"/><stop offset="1" stop-color="#0C66D8"/></linearGradient><linearGradient x1="148.025" y1="60.9674" x2="1.24076" y2="60.9674" gradientUnits="userSpaceOnUse" spreadMethod="pad" id="fill5"><stop offset="0" stop-color="#5DB64B"/><stop offset="0.23" stop-color="#4DA667"/><stop offset="0.72" stop-color="#247EAD"/><stop offset="1" stop-color="#0C66D8"/></linearGradient><linearGradient x1="178.557" y1="75.7465" x2="0" y2="75.7465" gradientUnits="userSpaceOnUse" spreadMethod="pad" id="fill6"><stop offset="0" stop-color="#5DB64B"/><stop offset="0.23" stop-color="#4DA667"/><stop offset="0.72" stop-color="#247EAD"/><stop offset="1" stop-color="#0C66D8"/></linearGradient><linearGradient x1="202.615" y1="88.6214" x2="0.39024" y2="88.6214" gradientUnits="userSpaceOnUse" spreadMethod="pad" id="fill7"><stop offset="0" stop-color="#5DB64B"/><stop offset="0.23" stop-color="#4DA667"/><stop offset="0.72" stop-color="#247EAD"/><stop offset="1" stop-color="#0C66D8"/></linearGradient><linearGradient x1="221.408" y1="100.11" x2="2.7617" y2="100.11" gradientUnits="userSpaceOnUse" spreadMethod="pad" id="fill8"><stop offset="0" stop-color="#5DB64B"/><stop offset="0.23" stop-color="#4DA667"/><stop offset="0.72" stop-color="#247EAD"/><stop offset="1" stop-color="#0C66D8"/></linearGradient><linearGradient x1="235.908" y1="110.378" x2="6.79417" y2="110.378" gradientUnits="userSpaceOnUse" spreadMethod="pad" id="fill9"><stop offset="0" stop-color="#5DB64B"/><stop offset="0.23" stop-color="#4DA667"/><stop offset="0.72" stop-color="#247EAD"/><stop offset="1" stop-color="#0C66D8"/></linearGradient><linearGradient x1="246.617" y1="119.968" x2="12.3176" y2="119.968" gradientUnits="userSpaceOnUse" spreadMethod="pad" id="fill10"><stop offset="0" stop-color="#5DB64B"/><stop offset="0.23" stop-color="#4DA667"/><stop offset="0.72" stop-color="#247EAD"/><stop offset="1" stop-color="#0C66D8"/></linearGradient><linearGradient x1="253.87" y1="128.499" x2="19.1017" y2="128.499" gradientUnits="userSpaceOnUse" spreadMethod="pad" id="fill11"><stop offset="0" stop-color="#5DB64B"/><stop offset="0.23" stop-color="#4DA667"/><stop offset="0.72" stop-color="#247EAD"/><stop offset="1" stop-color="#0C66D8"/></linearGradient><linearGradient x1="257.589" y1="136.114" x2="27.1467" y2="136.114" gradientUnits="userSpaceOnUse" spreadMethod="pad" id="fill12"><stop offset="0" stop-color="#5DB64B"/><stop offset="0.23" stop-color="#4DA667"/><stop offset="0.72" stop-color="#247EAD"/><stop offset="1" stop-color="#0C66D8"/></linearGradient><linearGradient x1="257.601" y1="142.709" x2="36.5024" y2="142.709" gradientUnits="userSpaceOnUse" spreadMethod="pad" id="fill13"><stop offset="0" stop-color="#5DB64B"/><stop offset="0.23" stop-color="#4DA667"/><stop offset="0.72" stop-color="#247EAD"/><stop offset="1" stop-color="#0C66D8"/></linearGradient><linearGradient x1="253.291" y1="148.13" x2="47.3191" y2="148.13" gradientUnits="userSpaceOnUse" spreadMethod="pad" id="fill14"><stop offset="0" stop-color="#5DB64B"/><stop offset="0.23" stop-color="#4DA667"/><stop offset="0.72" stop-color="#247EAD"/><stop offset="1" stop-color="#0C66D8"/></linearGradient><linearGradient x1="243.678" y1="151.995" x2="59.8968" y2="151.995" gradientUnits="userSpaceOnUse" spreadMethod="pad" id="fill15"><stop offset="0" stop-color="#5DB64B"/><stop offset="0.23" stop-color="#4DA667"/><stop offset="0.72" stop-color="#247EAD"/><stop offset="1" stop-color="#0C66D8"/></linearGradient><linearGradient x1="229.131" y1="153.697" x2="75.0461" y2="153.697" gradientUnits="userSpaceOnUse" spreadMethod="pad" id="fill16"><stop offset="0" stop-color="#5DB64B"/><stop offset="0.23" stop-color="#4DA667"/><stop offset="0.72" stop-color="#247EAD"/><stop offset="1" stop-color="#0C66D8"/></linearGradient><linearGradient x1="202.794" y1="153.484" x2="94.5281" y2="153.484" gradientUnits="userSpaceOnUse" spreadMethod="pad" id="fill17"><stop offset="0" stop-color="#5DB64B"/><stop offset="0.23" stop-color="#4DA667"/><stop offset="0.72" stop-color="#247EAD"/><stop offset="1" stop-color="#0C66D8"/></linearGradient></defs><g clip-path="url(#clip0)" transform="translate(-586 -211)"><g clip-path="url(#clip1)"><g clip-path="url(#clip2)"><g clip-path="url(#clip3)"><path d="M7.68472 2.66163C49.5635 13.8635 84.4427 42.8312 103.143 81.9413Z" fill="url(#fill4)" transform="matrix(1 0 0 1.00045 670.477 214.32)"/><path d="M1.24076 0 2.42049 0C8.95256 0.0158023 15.4766 0.460028 21.9505 1.32982L142.988 101.863C145.132 108.428 146.815 115.135 148.025 121.935Z" fill="url(#fill5)" transform="matrix(1 0 0 1.00045 637.656 212)"/><path d="M0 2.88977C5.3252 1.76542 10.7069 0.927704 16.1219 0.380234L177.995 134.823C178.352 139.035 178.557 143.286 178.557 147.593 178.557 148.772 178.557 149.952 178.463 151.113Z" fill="url(#fill6)" transform="matrix(1 0 0 1.00045 609.442 212.331)"/><path d="M0.39024 7.85282C4.79094 6.09274 9.2847 4.50277 13.8715 3.17195L202.615 159.915C202.165 164.668 201.459 169.394 200.499 174.071Z" fill="url(#fill7)" transform="matrix(1 0 0 1.00045 584.654 214.765)"/><path d="M2.7617 14.1277C6.50399 11.8803 10.3824 9.765 14.3518 7.85482L221.408 179.802C220.247 184.072 218.905 188.26 217.382 192.366Z" fill="url(#fill8)" transform="matrix(1 0 0 1.00045 561.424 218.847)"/><path d="M6.79417 21.4982C10.0332 18.8586 13.3852 16.31 16.8303 14.0086L235.908 195.899C234.197 199.744 232.325 203.489 230.29 207.134Z" fill="url(#fill9)" transform="matrix(1 0 0 1.00045 539.378 224.211)"/><path d="M12.3176 29.9484C15.0639 26.9152 17.9414 24.0067 20.9499 21.223L246.617 208.638C244.427 212.102 242.068 215.454 239.596 218.712Z" fill="url(#fill10)" transform="matrix(1 0 0 1.00045 518.332 230.5)"/><path d="M245.5 227.44 19.1017 39.4072C21.3858 36.0245 23.8136 32.7414 26.3852 29.5582L253.87 218.489C251.211 221.597 248.421 224.581 245.5 227.44Z" fill="url(#fill11)" transform="matrix(1 0 0 1.00045 498.384 237.765)"/><path d="M27.1467 49.9827C29.0178 46.2374 30.892 42.4931 33.0263 38.9539L257.589 225.468C254.462 228.202 251.204 230.805 247.852 233.273Z" fill="url(#fill12)" transform="matrix(1 0 0 1.00045 479.611 245.956)"/><path d="M36.5024 61.7539C37.7505 57.5847 39.1984 53.4902 40.8461 49.4704L257.601 229.413C253.944 231.76 250.199 233.938 246.366 235.948Z" fill="url(#fill13)" transform="matrix(1 0 0 1.00045 462.091 255.123)"/><path d="M47.3191 74.946C47.9555 70.2765 48.8043 65.6763 49.8656 61.1456L253.291 230.097C249.021 231.969 244.64 233.636 240.183 235.115Z" fill="url(#fill14)" transform="matrix(1 0 0 1.00045 446.162 265.302)"/><path d="M60.0839 90.1484C59.9718 87.8469 59.8968 85.5045 59.8968 83.1641 59.8968 80.2053 59.8968 77.2474 60.178 74.3256L243.678 226.668C238.556 227.947 233.37 228.947 228.14 229.664Z" fill="url(#fill15)" transform="matrix(1 0 0 1.00045 432.237 276.79)"/><path d="M209.676 217.295 78.9225 108.693C77.2158 102.411 75.921 96.0251 75.0461 89.575L229.131 217.595C226.64 217.726 224.128 217.82 221.641 217.82 217.596 217.801 213.631 217.614 209.676 217.295Z" fill="url(#fill16)" transform="matrix(1 0 0 1.00045 418.435 290.082)"/><path d="M202.794 198.422C153.868 188.616 113.171 154.832 94.5281 108.547Z" fill="url(#fill17)" transform="matrix(1 0 0 1.00045 408.316 306.62)"/></g></g></g></g></svg>