<svg width="148" height="120" xmlns="http://www.w3.org/2000/svg" xmlns:xlink="http://www.w3.org/1999/xlink" overflow="hidden"><defs><clipPath id="clip0"><rect x="566" y="286" width="148" height="120"/></clipPath><clipPath id="clip1"><rect x="566" y="287" width="147" height="118"/></clipPath><clipPath id="clip2"><rect x="566" y="287" width="147" height="118"/></clipPath><clipPath id="clip3"><rect x="566" y="287" width="147" height="147"/></clipPath><linearGradient x1="7.63641" y1="22.2331" x2="54.8072" y2="22.2331" gradientUnits="userSpaceOnUse" spreadMethod="pad" id="fill4"><stop offset="0" stop-color="#5DB64B"/><stop offset="0.23" stop-color="#4DA667"/><stop offset="0.72" stop-color="#247EAD"/><stop offset="1" stop-color="#0C66D8"/></linearGradient><linearGradient x1="1.23296" y1="30.128" x2="73.7649" y2="30.128" gradientUnits="userSpaceOnUse" spreadMethod="pad" id="fill5"><stop offset="0" stop-color="#5DB64B"/><stop offset="0.23" stop-color="#4DA667"/><stop offset="0.72" stop-color="#247EAD"/><stop offset="1" stop-color="#0C66D8"/></linearGradient><linearGradient x1="0" y1="37.6198" x2="88.2343" y2="37.6198" gradientUnits="userSpaceOnUse" spreadMethod="pad" id="fill6"><stop offset="0" stop-color="#5DB64B"/><stop offset="0.23" stop-color="#4DA667"/><stop offset="0.72" stop-color="#247EAD"/><stop offset="1" stop-color="#0C66D8"/></linearGradient><linearGradient x1="0.387786" y1="45.378" x2="100.317" y2="45.378" gradientUnits="userSpaceOnUse" spreadMethod="pad" id="fill7"><stop offset="0" stop-color="#5DB64B"/><stop offset="0.23" stop-color="#4DA667"/><stop offset="0.72" stop-color="#247EAD"/><stop offset="1" stop-color="#0C66D8"/></linearGradient><linearGradient x1="2.74433" y1="53.3922" x2="110.789" y2="53.3922" gradientUnits="userSpaceOnUse" spreadMethod="pad" id="fill8"><stop offset="0" stop-color="#5DB64B"/><stop offset="0.23" stop-color="#4DA667"/><stop offset="0.72" stop-color="#247EAD"/><stop offset="1" stop-color="#0C66D8"/></linearGradient><linearGradient x1="6.75146" y1="61.5412" x2="119.968" y2="61.5412" gradientUnits="userSpaceOnUse" spreadMethod="pad" id="fill9"><stop offset="0" stop-color="#5DB64B"/><stop offset="0.23" stop-color="#4DA667"/><stop offset="0.72" stop-color="#247EAD"/><stop offset="1" stop-color="#0C66D8"/></linearGradient><linearGradient x1="12.2401" y1="69.8836" x2="128.019" y2="69.8836" gradientUnits="userSpaceOnUse" spreadMethod="pad" id="fill10"><stop offset="0" stop-color="#5DB64B"/><stop offset="0.23" stop-color="#4DA667"/><stop offset="0.72" stop-color="#247EAD"/><stop offset="1" stop-color="#0C66D8"/></linearGradient><linearGradient x1="18.9817" y1="78.2638" x2="134.992" y2="78.2638" gradientUnits="userSpaceOnUse" spreadMethod="pad" id="fill11"><stop offset="0" stop-color="#5DB64B"/><stop offset="0.23" stop-color="#4DA667"/><stop offset="0.72" stop-color="#247EAD"/><stop offset="1" stop-color="#0C66D8"/></linearGradient><linearGradient x1="26.976" y1="86.7215" x2="140.849" y2="86.7215" gradientUnits="userSpaceOnUse" spreadMethod="pad" id="fill12"><stop offset="0" stop-color="#5DB64B"/><stop offset="0.23" stop-color="#4DA667"/><stop offset="0.72" stop-color="#247EAD"/><stop offset="1" stop-color="#0C66D8"/></linearGradient><linearGradient x1="36.2729" y1="95.2354" x2="145.529" y2="95.2354" gradientUnits="userSpaceOnUse" spreadMethod="pad" id="fill13"><stop offset="0" stop-color="#5DB64B"/><stop offset="0.23" stop-color="#4DA667"/><stop offset="0.72" stop-color="#247EAD"/><stop offset="1" stop-color="#0C66D8"/></linearGradient><linearGradient x1="47.0216" y1="103.747" x2="148.802" y2="103.747" gradientUnits="userSpaceOnUse" spreadMethod="pad" id="fill14"><stop offset="0" stop-color="#5DB64B"/><stop offset="0.23" stop-color="#4DA667"/><stop offset="0.72" stop-color="#247EAD"/><stop offset="1" stop-color="#0C66D8"/></linearGradient><linearGradient x1="59.5203" y1="112.239" x2="150.335" y2="112.239" gradientUnits="userSpaceOnUse" spreadMethod="pad" id="fill15"><stop offset="0" stop-color="#5DB64B"/><stop offset="0.23" stop-color="#4DA667"/><stop offset="0.72" stop-color="#247EAD"/><stop offset="1" stop-color="#0C66D8"/></linearGradient><linearGradient x1="74.5743" y1="120.699" x2="150.715" y2="120.699" gradientUnits="userSpaceOnUse" spreadMethod="pad" id="fill16"><stop offset="0" stop-color="#5DB64B"/><stop offset="0.23" stop-color="#4DA667"/><stop offset="0.72" stop-color="#247EAD"/><stop offset="1" stop-color="#0C66D8"/></linearGradient><linearGradient x1="93.9338" y1="130.071" x2="147.428" y2="130.071" gradientUnits="userSpaceOnUse" spreadMethod="pad" id="fill17"><stop offset="0" stop-color="#5DB64B"/><stop offset="0.23" stop-color="#4DA667"/><stop offset="0.72" stop-color="#247EAD"/><stop offset="1" stop-color="#0C66D8"/></linearGradient></defs><g clip-path="url(#clip0)" transform="translate(-566 -286)"><g clip-path="url(#clip1)"><g clip-path="url(#clip2)"><g clip-path="url(#clip3)"><path d="M54.8072 2.6449C34.1128 8.18044 16.8772 22.4949 7.63641 41.8213Z" fill="url(#fill4)" transform="matrix(1.00546 0 0 1 565.467 286.816)"/><path d="M73.7649 0 73.1823 0C69.9544 0.00784298 66.7305 0.227397 63.5314 0.657248L3.72176 50.3347C2.66228 53.5799 1.83066 56.895 1.23296 60.2561Z" fill="url(#fill5)" transform="matrix(1.00546 0 0 1 565.914 287)"/><path d="M88.2343 1.61777C85.6029 1.06223 82.9436 0.648325 80.2678 0.377843L0.277416 66.8126C0.0994324 68.8947 0 70.9948 0 73.1226 0 73.7053 0 74.2889 0.0467332 74.8617Z" fill="url(#fill6)" transform="matrix(1.00546 0 0 1 566 286.974)"/><path d="M100.317 5.46878C98.1428 4.59875 95.9225 3.81224 93.6554 3.15599L0.387786 80.6069C0.610498 82.955 0.959682 85.2894 1.43382 87.6Z" fill="url(#fill7)" transform="matrix(1.00546 0 0 1 565.973 286.781)"/><path d="M110.789 10.9048C108.938 9.79409 107.023 8.74906 105.061 7.80545L2.74433 92.7705C3.31773 94.8797 3.98061 96.9493 4.73298 98.979Z" fill="url(#fill8)" transform="matrix(1.00546 0 0 1 565.808 286.458)"/><path d="M119.968 17.6214C118.367 16.3169 116.711 15.058 115.009 13.9205L6.75146 103.801C7.59664 105.701 8.52202 107.552 9.52761 109.353Z" fill="url(#fill9)" transform="matrix(1.00546 0 0 1 565.528 286.034)"/><path d="M128.019 25.401C126.662 23.9022 125.24 22.4651 123.754 21.0896L12.2401 113.7C13.323 115.412 14.4883 117.068 15.7103 118.678Z" fill="url(#fill10)" transform="matrix(1.00546 0 0 1 565.145 285.535)"/><path d="M23.118 127.155 134.992 34.2396C133.866 32.5678 132.666 30.9454 131.393 29.3723L18.9817 122.732C20.2955 124.268 21.6743 125.743 23.118 127.155Z" fill="url(#fill11)" transform="matrix(1.00546 0 0 1 564.674 284.961)"/><path d="M140.849 44.1589C139.923 42.3085 138.999 40.4581 137.944 38.709L26.976 130.876C28.5212 132.227 30.131 133.513 31.7876 134.734Z" fill="url(#fill12)" transform="matrix(1.00546 0 0 1 564.116 284.311)"/><path d="M145.529 55.2287C144.912 53.1685 144.197 51.1467 143.383 49.1634L36.2729 138.078C38.0806 139.237 39.9311 140.314 41.8243 141.307Z" fill="url(#fill13)" transform="matrix(1.00546 0 0 1 563.468 283.586)"/><path d="M148.802 67.5822C148.487 65.2754 148.067 63.0024 147.543 60.7632L47.0216 144.251C49.1315 145.176 51.2972 146 53.4986 146.73Z" fill="url(#fill14)" transform="matrix(1.00546 0 0 1 562.717 282.78)"/><path d="M150.242 81.6768C150.298 80.5383 150.335 79.3819 150.335 78.2255 150.335 76.7638 150.335 75.3012 150.196 73.8584L59.5203 149.139C62.0517 149.771 64.6155 150.265 67.2004 150.619Z" fill="url(#fill15)" transform="matrix(1.00546 0 0 1 561.844 281.871)"/><path d="M84.1874 152.125 148.8 98.459C149.643 95.3553 150.282 92.1999 150.715 89.0129L74.5743 152.273C75.8053 152.337 77.0452 152.384 78.2752 152.384 80.2738 152.374 82.2306 152.282 84.1874 152.125Z" fill="url(#fill16)" transform="matrix(1.00546 0 0 1 560.793 280.818)"/><path d="M93.9338 152.278C118.109 147.43 138.217 130.735 147.428 107.864Z" fill="url(#fill17)" transform="matrix(1.00546 0 0 1 559.441 279.51)"/></g></g></g></g></svg>