<svg width="150" height="150" xmlns="http://www.w3.org/2000/svg" xmlns:xlink="http://www.w3.org/1999/xlink" overflow="hidden"><defs><clipPath id="clip0"><rect x="491" y="359" width="150" height="150"/></clipPath><clipPath id="clip1"><rect x="492" y="360" width="148" height="148"/></clipPath><clipPath id="clip2"><rect x="492" y="360" width="148" height="148"/></clipPath><clipPath id="clip3"><rect x="492" y="212" width="296" height="296"/></clipPath><linearGradient x1="506.387" y1="256.641" x2="601.888" y2="256.641" gradientUnits="userSpaceOnUse" spreadMethod="pad" id="fill4"><stop offset="0" stop-color="#5DB64B"/><stop offset="0.23" stop-color="#4DA667"/><stop offset="0.72" stop-color="#247EAD"/><stop offset="1" stop-color="#0C66D8"/></linearGradient><linearGradient x1="494.322" y1="272.995" x2="641.17" y2="272.995" gradientUnits="userSpaceOnUse" spreadMethod="pad" id="fill5"><stop offset="0" stop-color="#5DB64B"/><stop offset="0.23" stop-color="#4DA667"/><stop offset="0.72" stop-color="#247EAD"/><stop offset="1" stop-color="#0C66D8"/></linearGradient><linearGradient x1="492" y1="288.111" x2="670.637" y2="288.111" gradientUnits="userSpaceOnUse" spreadMethod="pad" id="fill6"><stop offset="0" stop-color="#5DB64B"/><stop offset="0.23" stop-color="#4DA667"/><stop offset="0.72" stop-color="#247EAD"/><stop offset="1" stop-color="#0C66D8"/></linearGradient><linearGradient x1="492.731" y1="303.426" x2="695.047" y2="303.426" gradientUnits="userSpaceOnUse" spreadMethod="pad" id="fill7"><stop offset="0" stop-color="#5DB64B"/><stop offset="0.23" stop-color="#4DA667"/><stop offset="0.72" stop-color="#247EAD"/><stop offset="1" stop-color="#0C66D8"/></linearGradient><linearGradient x1="497.171" y1="319.003" x2="715.915" y2="319.003" gradientUnits="userSpaceOnUse" spreadMethod="pad" id="fill8"><stop offset="0" stop-color="#5DB64B"/><stop offset="0.23" stop-color="#4DA667"/><stop offset="0.72" stop-color="#247EAD"/><stop offset="1" stop-color="#0C66D8"/></linearGradient><linearGradient x1="504.72" y1="334.639" x2="733.936" y2="334.639" gradientUnits="userSpaceOnUse" spreadMethod="pad" id="fill9"><stop offset="0" stop-color="#5DB64B"/><stop offset="0.23" stop-color="#4DA667"/><stop offset="0.72" stop-color="#247EAD"/><stop offset="1" stop-color="#0C66D8"/></linearGradient><linearGradient x1="515.061" y1="350.521" x2="749.466" y2="350.521" gradientUnits="userSpaceOnUse" spreadMethod="pad" id="fill10"><stop offset="0" stop-color="#5DB64B"/><stop offset="0.23" stop-color="#4DA667"/><stop offset="0.72" stop-color="#247EAD"/><stop offset="1" stop-color="#0C66D8"/></linearGradient><linearGradient x1="527.761" y1="366.322" x2="762.635" y2="366.322" gradientUnits="userSpaceOnUse" spreadMethod="pad" id="fill11"><stop offset="0" stop-color="#5DB64B"/><stop offset="0.23" stop-color="#4DA667"/><stop offset="0.72" stop-color="#247EAD"/><stop offset="1" stop-color="#0C66D8"/></linearGradient><linearGradient x1="542.822" y1="382.132" x2="773.368" y2="382.132" gradientUnits="userSpaceOnUse" spreadMethod="pad" id="fill12"><stop offset="0" stop-color="#5DB64B"/><stop offset="0.23" stop-color="#4DA667"/><stop offset="0.72" stop-color="#247EAD"/><stop offset="1" stop-color="#0C66D8"/></linearGradient><linearGradient x1="560.338" y1="397.896" x2="781.536" y2="397.896" gradientUnits="userSpaceOnUse" spreadMethod="pad" id="fill13"><stop offset="0" stop-color="#5DB64B"/><stop offset="0.23" stop-color="#4DA667"/><stop offset="0.72" stop-color="#247EAD"/><stop offset="1" stop-color="#0C66D8"/></linearGradient><linearGradient x1="580.588" y1="413.5" x2="786.651" y2="413.5" gradientUnits="userSpaceOnUse" spreadMethod="pad" id="fill14"><stop offset="0" stop-color="#5DB64B"/><stop offset="0.23" stop-color="#4DA667"/><stop offset="0.72" stop-color="#247EAD"/><stop offset="1" stop-color="#0C66D8"/></linearGradient><linearGradient x1="604.135" y1="428.853" x2="787.999" y2="428.853" gradientUnits="userSpaceOnUse" spreadMethod="pad" id="fill15"><stop offset="0" stop-color="#5DB64B"/><stop offset="0.23" stop-color="#4DA667"/><stop offset="0.72" stop-color="#247EAD"/><stop offset="1" stop-color="#0C66D8"/></linearGradient><linearGradient x1="632.497" y1="443.849" x2="786.652" y2="443.849" gradientUnits="userSpaceOnUse" spreadMethod="pad" id="fill16"><stop offset="0" stop-color="#5DB64B"/><stop offset="0.23" stop-color="#4DA667"/><stop offset="0.72" stop-color="#247EAD"/><stop offset="1" stop-color="#0C66D8"/></linearGradient><linearGradient x1="668.97" y1="460.172" x2="777.286" y2="460.172" gradientUnits="userSpaceOnUse" spreadMethod="pad" id="fill17"><stop offset="0" stop-color="#5DB64B"/><stop offset="0.23" stop-color="#4DA667"/><stop offset="0.72" stop-color="#247EAD"/><stop offset="1" stop-color="#0C66D8"/></linearGradient></defs><g clip-path="url(#clip0)" transform="translate(-491 -359)"><g clip-path="url(#clip1)"><g clip-path="url(#clip2)"><g clip-path="url(#clip3)"><path d="M601.888 216.983C559.991 228.19 525.096 257.171 506.387 296.299Z" fill="url(#fill4)"/><path d="M641.17 212 639.99 212C633.454 212.016 626.928 212.46 620.451 213.33L499.362 313.908C497.217 320.477 495.533 327.187 494.322 333.99Z" fill="url(#fill5)"/><path d="M670.637 215.222C665.31 214.098 659.926 213.26 654.509 212.712L492.562 347.215C492.206 351.429 492 355.684 492 359.988 492 361.169 492 362.349 492.094 363.51Z" fill="url(#fill6)"/><path d="M695.047 222.621C690.642 220.86 686.149 219.268 681.56 217.938L492.731 374.752C493.18 379.507 493.885 384.235 494.843 388.914Z" fill="url(#fill7)"/><path d="M715.915 232.981C712.168 230.733 708.291 228.617 704.32 226.706L497.171 398.731C498.332 403.002 499.674 407.192 501.198 411.3Z" fill="url(#fill8)"/><path d="M733.936 245.719C730.696 243.077 727.342 240.529 723.896 238.226L504.72 420.199C506.431 424.045 508.304 427.792 510.34 431.439Z" fill="url(#fill9)"/><path d="M749.466 260.462C746.718 257.427 743.84 254.517 740.83 251.732L515.061 439.231C517.252 442.697 519.612 446.05 522.085 449.31Z" fill="url(#fill10)"/><path d="M536.135 465.308 762.635 277.19C760.35 273.806 757.921 270.522 755.348 267.337L527.761 456.353C530.421 459.462 533.213 462.447 536.135 465.308Z" fill="url(#fill11)"/><path d="M773.368 295.961C771.495 292.214 769.621 288.468 767.486 284.928L542.822 471.527C545.95 474.262 549.21 476.866 552.563 479.336Z" fill="url(#fill12)"/><path d="M781.536 316.905C780.287 312.734 778.839 308.637 777.19 304.616L560.338 484.639C563.997 486.987 567.744 489.166 571.578 491.177Z" fill="url(#fill13)"/><path d="M786.651 340.282C786.014 335.61 785.165 331.008 784.103 326.475L580.588 495.505C584.86 497.378 589.242 499.045 593.702 500.525Z" fill="url(#fill14)"/><path d="M787.812 366.979C787.924 364.676 787.999 362.333 787.999 359.991 787.999 357.031 787.999 354.072 787.718 351.149L604.135 503.56C609.26 504.84 614.451 505.84 619.684 506.557Z" fill="url(#fill15)"/><path d="M651.961 507.475 782.773 398.824C784.481 392.54 785.776 386.15 786.652 379.697L632.497 507.775C634.989 507.906 637.503 508 639.99 508 644.037 507.981 648.008 507.794 651.961 507.475Z" fill="url(#fill16)"/><path d="M668.97 505.131C717.919 495.321 758.635 461.519 777.286 415.212Z" fill="url(#fill17)"/></g></g></g></g></svg>