<svg width="107" height="212" xmlns="http://www.w3.org/2000/svg" xmlns:xlink="http://www.w3.org/1999/xlink" overflow="hidden"><defs><clipPath id="clip0"><rect x="639" y="254" width="107" height="212"/></clipPath><clipPath id="clip1"><rect x="640" y="254" width="105" height="211"/></clipPath><clipPath id="clip2"><rect x="640" y="254" width="105" height="211"/></clipPath><clipPath id="clip3"><rect x="535" y="254" width="210" height="211"/></clipPath><linearGradient x1="0.0398563" y1="103.269" x2="206.499" y2="103.269" gradientUnits="userSpaceOnUse" spreadMethod="pad" id="fill4"><stop offset="0" stop-color="#5DB64B"/><stop offset="0.23" stop-color="#4DA667"/><stop offset="0.72" stop-color="#247EAD"/><stop offset="1" stop-color="#0C66D8"/></linearGradient></defs><g clip-path="url(#clip0)" transform="translate(-639 -254)"><g clip-path="url(#clip1)"><g clip-path="url(#clip2)"><g clip-path="url(#clip3)"><path d="M103.213 206.499C46.2005 206.468 0.00850546 160.225 0.0398722 103.213 0.071239 46.2005 46.3141 0.00852066 103.326 0.0398874 160.301 0.0712334 206.477 46.2552 206.499 103.23 206.521 160.242 160.321 206.477 103.309 206.499 103.277 206.499 103.245 206.499 103.213 206.499ZM103.213 17.8072C56.0472 17.8402 17.8389 56.102 17.8719 103.267 17.905 150.433 56.1668 188.641 103.332 188.608 150.466 188.575 188.662 150.362 188.673 103.228 188.683 56.0622 150.456 17.8191 103.29 17.8091 103.264 17.8091 103.238 17.8091 103.213 17.8092Z" fill="url(#fill4)" transform="matrix(-0.0169975 -1.00462 0.999854 -0.0170785 538.564 465.041)"/></g></g></g></g></svg>