<svg xmlns="http://www.w3.org/2000/svg" width="24.432" height="21.267" viewBox="0 0 24.432 21.267">
  <path id="Trazado_4585" data-name="Trazado 4585" d="M13.216,6.392A10.85,10.85,0,0,1,23.011,12.5a10.713,10.713,0,0,1-2.676,3.465L21.9,17.531A13.106,13.106,0,0,0,25.432,12.5,13.142,13.142,0,0,0,9.174,4.8l1.832,1.832A11.225,11.225,0,0,1,13.216,6.392ZM12.028,7.658l2.3,2.3a2.775,2.775,0,0,1,1.421,1.421l2.3,2.3a5.2,5.2,0,0,0,.155-1.188A4.979,4.979,0,0,0,13.216,7.5,4.713,4.713,0,0,0,12.028,7.658ZM2.122,4.027,5.1,7A13.035,13.035,0,0,0,1,12.5a13.134,13.134,0,0,0,12.216,8.329,13.026,13.026,0,0,0,4.8-.911l3.8,3.8,1.566-1.566L3.687,2.45Zm8.329,8.329,2.9,2.9a.557.557,0,0,1-.133.022A2.777,2.777,0,0,1,10.44,12.5C10.44,12.445,10.451,12.411,10.451,12.356ZM6.675,8.58l1.943,1.943a5.109,5.109,0,0,0-.4,1.977,5,5,0,0,0,6.963,4.6l1.088,1.088a11.586,11.586,0,0,1-3.054.422A10.85,10.85,0,0,1,3.421,12.5,11,11,0,0,1,6.675,8.58Z" transform="translate(-1 -2.45)" fill="#fff"/>
</svg>
