<svg xmlns="http://www.w3.org/2000/svg" width="28.128" height="30.314" viewBox="0 0 28.128 30.314">
  <g id="contratado" transform="translate(0)">
    <path id="Trazado_4388" data-name="Trazado 4388" d="M0,0H27.921V30.314H0Z" transform="translate(0 0)" fill="none"/>
    <path id="Trazado_4389" data-name="Trazado 4389" d="M11.3,6.526A2.526,2.526,0,1,1,8.778,9.052,2.534,2.534,0,0,1,11.3,6.526m0,11.368c3.41,0,7.326,1.642,7.578,2.526v1.263H3.726V20.42c.253-.884,4.168-2.526,7.578-2.526M11.3,4a5.052,5.052,0,1,0,5.052,5.052A4.987,4.987,0,0,0,11.3,4Zm0,11.368c-3.41,0-10.1,1.642-10.1,5.052v3.789H21.409V20.42C21.409,17.01,14.715,15.368,11.3,15.368Z" transform="translate(0.315 1.052)" fill="#6b89ae"/>
    <rect id="Rect치ngulo_89" data-name="Rect치ngulo 89" width="9.852" height="2.526" transform="translate(19.375 14.466) rotate(-45)" fill="#6b89ae"/>
    <rect id="Rect치ngulo_90" data-name="Rect치ngulo 90" width="5.558" height="2.526" transform="translate(20.948 16.074) rotate(-135)" fill="#6b89ae"/>
  </g>
</svg>
