<svg xmlns="http://www.w3.org/2000/svg" width="19.072" height="18.936" viewBox="0 0 19.072 18.936">
  <g id="Grupo_552" data-name="Grupo 552" transform="translate(0 0)">
    <g id="Grupo_551" data-name="Grupo 551">
      <g id="assignment_ind_black_24dp" data-name="assignment ind black 24dp">
        <rect id="Rect치ngulo_239" data-name="Rect치ngulo 239" width="5.054" height="1.395" transform="translate(2.887 11.37)" fill="#1c4a83"/>
        <path id="Trazado_4560" data-name="Trazado 4560" d="M12.465,17.19H5.676V4.667h9.977v6.8a3.67,3.67,0,0,1,1.426-.172V4.667a1.429,1.429,0,0,0-1.426-1.426H5.667A1.429,1.429,0,0,0,4.25,4.667V17.19a1.429,1.429,0,0,0,1.426,1.426h7.283A3.306,3.306,0,0,1,12.465,17.19Z" transform="translate(-4.25 -3.241)" fill="#1c4a83"/>
        <path id="Trazado_4561" data-name="Trazado 4561" d="M13,10.386c0-1.2-1.9-1.718-2.878-1.718s-2.88.514-2.88,1.718v.734H13Z" transform="translate(-4.165 -3.086)" fill="#1c4a83"/>
        <path id="Trazado_4562" data-name="Trazado 4562" d="M11.518,6.894a1.439,1.439,0,1,0-1.439,1.439A1.443,1.443,0,0,0,11.518,6.894Z" transform="translate(-4.125 -3.178)" fill="#1c4a83"/>
        <rect id="Rect치ngulo_240" data-name="Rect치ngulo 240" width="6.134" height="1.357" transform="translate(2.887 9.147)" fill="#1c4a83"/>
      </g>
      <path id="Trazado_4563" data-name="Trazado 4563" d="M20.435,17.844a3.974,3.974,0,0,0,.586-2.078,4.114,4.114,0,1,0-4.114,4.114,4.072,4.072,0,0,0,2.078-.586l2.643,2.643,1.45-1.45C21.535,18.944,22.266,19.664,20.435,17.844Zm-3.528.532a2.609,2.609,0,1,1,2.609-2.609A2.617,2.617,0,0,1,16.907,18.375Z" transform="translate(-4.006 -3.001)" fill="#1c4a83"/>
    </g>
  </g>
</svg>
