<svg xmlns="http://www.w3.org/2000/svg" width="12.434" height="13.228" viewBox="0 0 12.434 13.228">
  <g id="Grupo_334" data-name="Grupo 334" transform="translate(-32.898 -19.955)">
    <g id="Solid" transform="translate(2 -11)">
      <path id="Trazado_38" data-name="Trazado 38" d="M144.272,34.293a.684.684,0,0,0,.968,0l2.581-2.581a.684.684,0,1,0-.968-.968l-1.413,1.413V24.684a.684.684,0,1,0-1.369,0v7.472l-1.413-1.413a.684.684,0,1,0-.968.968Z" transform="translate(-107.592 6.955)" fill="#fff"/>
      <path id="Trazado_39" data-name="Trazado 39" d="M35.791,232a.643.643,0,0,0-.643.643v4.931H25.286v-4.931a.643.643,0,1,0-1.286,0v5.145a1.072,1.072,0,0,0,1.072,1.072h10.29a1.072,1.072,0,0,0,1.072-1.072v-5.145A.643.643,0,0,0,35.791,232Z" transform="translate(6.898 -194.677)" fill="#fff"/>
    </g>
  </g>
</svg>
