<svg xmlns="http://www.w3.org/2000/svg" width="21.706" height="27.901" viewBox="0 0 21.706 27.901">
  <g id="delete" transform="translate(0)">
    <path id="Trazado_35" data-name="Trazado 35" d="M127.149,1.684h4.663v.785H133.5V1.574A1.575,1.575,0,0,0,131.923,0h-4.884a1.576,1.576,0,0,0-1.574,1.574v.894h1.684Zm0,0" transform="translate(-118.627 0)" fill="#fff"/>
    <path id="Trazado_36" data-name="Trazado 36" d="M57.041,167.75H41.232a.742.742,0,0,0-.739.8l1.322,16.343a1.755,1.755,0,0,0,1.749,1.615H54.71a1.755,1.755,0,0,0,1.749-1.615l1.322-16.343a.741.741,0,0,0-.739-.8ZM45.06,184.766l-.053,0a.842.842,0,0,1-.84-.79l-.828-13.417a.842.842,0,0,1,1.681-.1l.828,13.417a.842.842,0,0,1-.788.892Zm4.928-.84a.842.842,0,0,1-1.684,0V170.509a.842.842,0,1,1,1.684,0Zm4.946-13.367-.791,13.417a.842.842,0,0,1-.84.792h-.05a.842.842,0,0,1-.791-.89l.791-13.417a.842.842,0,0,1,1.681.1Zm0,0" transform="translate(-38.284 -158.609)" fill="#fff"/>
    <path id="Trazado_37" data-name="Trazado 37" d="M21.67,78.6l-.553-1.658a1.071,1.071,0,0,0-1.016-.732H1.605a1.071,1.071,0,0,0-1.016.732L.037,78.6a.7.7,0,0,0,.659.914H21.011a.686.686,0,0,0,.368-.106.694.694,0,0,0,.291-.808Zm0,0" transform="translate(0 -72.058)" fill="#fff"/>
  </g>
</svg>
