<svg xmlns="http://www.w3.org/2000/svg" width="21.587" height="23.985" viewBox="0 0 21.587 23.985">
  <path id="Trazado_4556" data-name="Trazado 4556" d="M22.188,3.4H17.175a3.584,3.584,0,0,0-6.764,0H5.4A2.406,2.406,0,0,0,3,5.8v16.79a2.406,2.406,0,0,0,2.4,2.4h16.79a2.4,2.4,0,0,0,.576-.077h.014v0a2.4,2.4,0,0,0,1.808-2.317V5.8A2.406,2.406,0,0,0,22.188,3.4Zm-8.395,0a1.2,1.2,0,1,1-1.2,1.2A1.2,1.2,0,0,1,13.793,3.4ZM5.4,5.8H7.8v3.6H19.79V5.8h2.4v16.79H5.4Z" transform="translate(-3 -1)" fill="#b2b3b5"/>
</svg>
