<svg xmlns="http://www.w3.org/2000/svg" width="28.159" height="28.159" viewBox="0 0 28.159 28.159">
  <g id="descartado" transform="translate(0 0)">
    <path id="Trazado_4390" data-name="Trazado 4390" d="M0,0H28.159V28.159H0Z" transform="translate(0 0)" fill="none"/>
    <path id="Trazado_4391" data-name="Trazado 4391" d="M10.586,6.347A2.347,2.347,0,1,1,8.24,8.693a2.353,2.353,0,0,1,2.347-2.347m0,10.56c3.168,0,6.805,1.525,7.04,2.347v1.173H3.547V19.253c.235-.821,3.872-2.347,7.04-2.347M10.586,4A4.693,4.693,0,1,0,15.28,8.693,4.633,4.633,0,0,0,10.586,4Zm0,10.56c-3.168,0-9.386,1.525-9.386,4.693v3.52H19.973v-3.52C19.973,16.085,13.754,14.56,10.586,14.56Z" transform="translate(0.208 0.693)" fill="#6b89ae"/>
    <rect id="Rect치ngulo_91" data-name="Rect치ngulo 91" width="9.152" height="2.347" transform="translate(20.327 6.932) rotate(45)" fill="#6b89ae"/>
    <rect id="Rect치ngulo_92" data-name="Rect치ngulo 92" width="9.152" height="2.347" transform="translate(18.739 13.437) rotate(-45)" fill="#6b89ae"/>
  </g>
</svg>
