<svg xmlns="http://www.w3.org/2000/svg" width="25.818" height="25.634" viewBox="0 0 25.818 25.634">
  <g id="Grupo_553" data-name="Grupo 553" transform="translate(-4.25 -3.241)">
    <g id="Grupo_552" data-name="Grupo 552" transform="translate(4.25 3.241)">
      <g id="Grupo_551" data-name="Grupo 551">
        <g id="assignment_ind_black_24dp" data-name="assignment ind black 24dp">
          <rect id="Rectángulo_239" data-name="Rectángulo 239" width="6.841" height="1.889" transform="translate(3.908 15.392)" fill="#b2b3b5"/>
          <path id="Trazado_4560" data-name="Trazado 4560" d="M15.37,22.124H6.18V5.171H19.685v9.2a4.968,4.968,0,0,1,1.93-.233V5.171a1.934,1.934,0,0,0-1.93-1.93H6.169A1.935,1.935,0,0,0,4.25,5.171V22.124a1.934,1.934,0,0,0,1.93,1.93h9.859A4.476,4.476,0,0,1,15.37,22.124Z" transform="translate(-4.25 -3.241)" fill="#b2b3b5"/>
          <path id="Trazado_4561" data-name="Trazado 4561" d="M15.034,10.993c0-1.623-2.579-2.325-3.9-2.325s-3.9.7-3.9,2.325v.994h7.794Z" transform="translate(-3.077 -1.112)" fill="#b2b3b5"/>
          <path id="Trazado_4562" data-name="Trazado 4562" d="M12.536,7.4a1.949,1.949,0,1,0-1.948,1.948A1.954,1.954,0,0,0,12.536,7.4Z" transform="translate(-2.528 -2.373)" fill="#b2b3b5"/>
          <rect id="Rectángulo_240" data-name="Rectángulo 240" width="8.304" height="1.837" transform="translate(3.908 12.382)" fill="#b2b3b5"/>
        </g>
        <path id="Trazado_4563" data-name="Trazado 4563" d="M23.138,20.034a5.38,5.38,0,0,0,.794-2.812,5.569,5.569,0,1,0-5.569,5.569A5.512,5.512,0,0,0,21.175,22l3.578,3.578,1.963-1.963C24.628,21.524,25.616,22.5,23.138,20.034Zm-4.776.72a3.532,3.532,0,1,1,3.532-3.532A3.542,3.542,0,0,1,18.362,20.754Z" transform="translate(-0.898 0.059)" fill="#b2b3b5"/>
      </g>
    </g>
    <rect id="Rectángulo_241" data-name="Rectángulo 241" width="3.145" height="7.758" rx="1.129" transform="translate(20.142 5.41)" fill="#b2b3b5"/>
  </g>
</svg>
