<svg id="descartado" xmlns="http://www.w3.org/2000/svg" width="37.346" height="37.346" viewBox="0 0 37.346 37.346">
  <path id="Trazado_4390" data-name="Trazado 4390" d="M0,0H37.346V37.346H0Z" fill="none"/>
  <path id="Trazado_4391" data-name="Trazado 4391" d="M13.649,7.112a3.112,3.112,0,1,1-3.112,3.112,3.121,3.121,0,0,1,3.112-3.112m0,14c4.2,0,9.025,2.023,9.337,3.112v1.556H4.312V24.229c.311-1.089,5.135-3.112,9.337-3.112M13.649,4a6.224,6.224,0,1,0,6.224,6.224A6.144,6.144,0,0,0,13.649,4Zm0,14C9.447,18,1.2,20.028,1.2,24.229V28.9H26.1V24.229C26.1,20.028,17.85,18,13.649,18Z" transform="translate(0.667 2.224)" fill="#b2b3b5"/>
  <rect id="Rect치ngulo_91" data-name="Rect치ngulo 91" width="12.137" height="3.112" transform="translate(26.959 9.193) rotate(45)" fill="#b2b3b5"/>
  <rect id="Rect치ngulo_92" data-name="Rect치ngulo 92" width="12.137" height="3.112" transform="translate(24.853 17.821) rotate(-45)" fill="#b2b3b5"/>
</svg>
