<svg xmlns="http://www.w3.org/2000/svg" width="22" height="22" viewBox="0 0 22 22">
  <g id="Solid" transform="translate(-24 -24)">
    <path id="Trazado_38" data-name="Trazado 38" d="M146.115,41.115a1.138,1.138,0,0,0,1.609,0l4.291-4.291a1.138,1.138,0,0,0-1.609-1.609l-2.349,2.349V25.138a1.138,1.138,0,1,0-2.276,0V37.563l-2.349-2.349a1.138,1.138,0,1,0-1.609,1.609Z" transform="translate(-111.92 0)" fill="#fff"/>
    <path id="Trazado_39" data-name="Trazado 39" d="M44.862,232a1.138,1.138,0,0,0-1.138,1.138v8.724H26.276v-8.724a1.138,1.138,0,0,0-2.276,0v9.1a1.9,1.9,0,0,0,1.9,1.9H44.1a1.9,1.9,0,0,0,1.9-1.9v-9.1A1.138,1.138,0,0,0,44.862,232Z" transform="translate(0 -198.138)" fill="#fff"/>
  </g>
</svg>
