<svg xmlns="http://www.w3.org/2000/svg" width="17.763" height="19.737" viewBox="0 0 17.763 19.737">
  <g id="Grupo_565" data-name="Grupo 565" transform="translate(33.302 -8.061)">
    <rect id="Rect치ngulo_247" data-name="Rect치ngulo 247" width="1.974" height="7.575" transform="translate(-15.602 22.919) rotate(90)" fill="#b2b3b5"/>
    <rect id="Rect치ngulo_248" data-name="Rect치ngulo 248" width="1.974" height="7.575" transform="translate(-20.376 20.118)" fill="#b2b3b5"/>
    <g id="Grupo_564" data-name="Grupo 564" transform="translate(-33.302 8.061)">
      <path id="Trazado_4576" data-name="Trazado 4576" d="M-31.328,25.825V12.009h1.974v2.96h9.869v-2.96h1.974v8.109h1.974V12.009a1.981,1.981,0,0,0-1.974-1.974h-4.125a2.947,2.947,0,0,0-3.757-1.807A2.947,2.947,0,0,0-27.2,10.036h-4.125A1.981,1.981,0,0,0-33.3,12.009V25.825A1.979,1.979,0,0,0-31.328,27.8h7.9V25.825Zm6.909-15.789a.987.987,0,0,1,.987.987.987.987,0,0,1-.987.987.987.987,0,0,1-.987-.987A.99.99,0,0,1-24.42,10.036Z" transform="translate(33.302 -8.061)" fill="#b2b3b5"/>
    </g>
  </g>
</svg>
