<svg id="new_releases_black_24dp" xmlns="http://www.w3.org/2000/svg" width="24.874" height="24.874" viewBox="0 0 24.874 24.874">
  <path id="Trazado_4384" data-name="Trazado 4384" d="M0,0H24.874V24.874H0Z" fill="none"/>
  <path id="Trazado_4385" data-name="Trazado 4385" d="M23.472,12.128,20.98,9.314l.347-3.725-3.687-.83L15.709,1.54,12.236,3.018,8.763,1.54,6.832,4.759l-3.687.82L3.492,9.3,1,12.128l2.492,2.814-.347,3.735,3.687.83,1.931,3.219,3.473-1.488,3.473,1.478L17.639,19.5l3.687-.83-.347-3.725Zm-4.607,2.136.266,2.824-2.8.628-1.461,2.44-2.635-1.124L9.6,20.156,8.14,17.716l-2.8-.628.266-2.834-1.89-2.126,1.89-2.146L5.341,7.168l2.8-.617L9.6,4.111l2.635,1.114L14.871,4.1l1.461,2.44,2.8.628-.266,2.824,1.89,2.136Zm-7.651.9h2.043V17.19H11.215Zm0-8.1h2.043v6.074H11.215Z" transform="translate(0.201 0.309)" fill="#b2b3b5"/>
</svg>
