<svg xmlns="http://www.w3.org/2000/svg" width="30.551" height="21.048" viewBox="0 0 30.551 21.048">
  <path id="Trazado_319" data-name="Trazado 319" d="M16.276,6.806a13.556,13.556,0,0,1,12.248,7.718,13.578,13.578,0,0,1-24.5,0A13.556,13.556,0,0,1,16.276,6.806m0-2.806A16.428,16.428,0,0,0,1,14.524a16.348,16.348,0,0,0,30.551,0A16.428,16.428,0,0,0,16.276,4Zm0,7.016A3.508,3.508,0,1,1,12.8,14.524a3.491,3.491,0,0,1,3.472-3.508m0-2.806a6.315,6.315,0,1,0,6.249,6.314A6.292,6.292,0,0,0,16.276,8.21Z" transform="translate(-1 -4)" fill="#b2b3b5"/>
</svg>
