<svg xmlns="http://www.w3.org/2000/svg" width="20.978" height="20.978" viewBox="0 0 20.978 20.978">
  <g id="Grupo_579" data-name="Grupo 579" transform="translate(-132.677 -67.614)">
    <path id="Trazado_4569" data-name="Trazado 4569" d="M10.8,1.975H8.765a1.457,1.457,0,0,0-2.751,0H3.975A.978.978,0,0,0,3,2.951V9.779a.978.978,0,0,0,.975.975H10.8a.978.978,0,0,0,.234-.031h.006v0a.974.974,0,0,0,.735-.942V2.951A.978.978,0,0,0,10.8,1.975Zm-3.414,0a.488.488,0,1,1-.488.488A.489.489,0,0,1,7.389,1.975Zm-3.414.975h.975V4.414H9.828V2.951H10.8V9.779H3.975Z" transform="translate(135.833 71.828)" fill="#1c4a83"/>
    <g id="Grupo_557" data-name="Grupo 557" transform="translate(132.677 67.614)">
      <path id="Trazado_4572" data-name="Trazado 4572" d="M-36.48-.08l-2.089-2.7-3.159,1.295-.454-3.384-3.384-.454,1.3-3.159-2.7-2.089,2.7-2.088-1.295-3.159,3.383-.456.456-3.383,3.158,1.295,2.089-2.7,2.088,2.7,3.159-1.295.456,3.384,3.383.454-1.295,3.159,2.7,2.088-2.7,2.089,1.295,3.159-3.383.454-.456,3.384-3.159-1.295Zm-1.728-4.043,1.728,2.232,1.728-2.232,2.612,1.07.376-2.8,2.8-.377-1.071-2.612,2.233-1.728L-30.035-12.3l1.071-2.611-2.8-.377-.376-2.8-2.612,1.071-1.728-2.233-1.728,2.233-2.612-1.071-.376,2.8-2.8.376,1.071,2.612-2.233,1.728,2.233,1.728L-44-6.229l2.8.377.377,2.8Z" transform="translate(46.969 21.058)" fill="#1c4a83"/>
    </g>
  </g>
</svg>
