<svg id="Grupo_577" data-name="Grupo 577" xmlns="http://www.w3.org/2000/svg" width="25.999" height="25.999" viewBox="0 0 25.999 25.999">
  <path id="Trazado_4569" data-name="Trazado 4569" d="M12.671,2.209H10.145a1.806,1.806,0,0,0-3.409,0H4.209A1.212,1.212,0,0,0,3,3.418V11.88a1.212,1.212,0,0,0,1.209,1.209h8.462a1.212,1.212,0,0,0,.29-.039h.007v0a1.207,1.207,0,0,0,.911-1.168V3.418A1.212,1.212,0,0,0,12.671,2.209Zm-4.231,0a.6.6,0,1,1-.6.6A.606.606,0,0,1,8.44,2.209ZM4.209,3.418H5.418V5.231h6.044V3.418h1.209V11.88H4.209Z" transform="translate(4.629 5.463)" fill="#fff"/>
  <g id="Grupo_557" data-name="Grupo 557">
    <path id="Trazado_4572" data-name="Trazado 4572" d="M-33.969,4.941-36.559,1.6l-3.915,1.6-.563-4.194-4.194-.563,1.606-3.915-3.345-2.589,3.345-2.588-1.6-3.915,4.192-.565.565-4.192,3.913,1.6,2.589-3.345,2.588,3.345,3.915-1.6.565,4.194,4.192.563-1.6,3.915,3.345,2.588-3.345,2.589,1.6,3.915L-26.9-.991-27.467,3.2l-3.915-1.6ZM-36.111-.069-33.969,2.7l2.141-2.766,3.238,1.326.466-3.468,3.47-.467-1.327-3.238,2.768-2.141L-25.982-10.2l1.327-3.236-3.47-.467-.466-3.47-3.238,1.327-2.141-2.768-2.141,2.768-3.238-1.327-.466,3.47-3.47.466,1.327,3.238-2.768,2.141,2.768,2.141-1.328,3.238,3.47.467.467,3.468Z" transform="translate(46.969 21.058)" fill="#fff"/>
  </g>
</svg>
