<svg xmlns="http://www.w3.org/2000/svg" width="15.055" height="19.545" viewBox="0 0 15.055 19.545">
  <g id="document" transform="translate(0.375 0.391)">
    <path id="Trazado_43" data-name="Trazado 43" d="M70.4,0h-7.38A2.02,2.02,0,0,0,61,2.017V16.762a2.02,2.02,0,0,0,2.017,2.017h10.27A2.02,2.02,0,0,0,75.3,16.762L75.25,4.656Z" transform="translate(-61)" fill="none" stroke="#707070" stroke-width="0.75"/>
    <path id="Trazado_44" data-name="Trazado 44" d="M325,10.211a.184.184,0,0,0,.183.183h4.133c-.1-.186-4.153-4.088-4.317-4.173Z" transform="translate(-315.317 -5.993)" fill="none" stroke="#707070" stroke-width="0.75"/>
    <path id="Trazado_304" data-name="Trazado 304" d="M2.533,8.392h9.747" fill="none" stroke="#707070" stroke-width="1"/>
    <path id="Trazado_305" data-name="Trazado 305" d="M2.533,8.392h9.747" transform="translate(0 3)" fill="none" stroke="#707070" stroke-width="1"/>
    <path id="Trazado_306" data-name="Trazado 306" d="M2.533,8.392H8.16" transform="translate(0 6)" fill="none" stroke="#707070" stroke-width="1"/>
  </g>
</svg>
