<svg xmlns="http://www.w3.org/2000/svg" width="18.247" height="18.249" viewBox="0 0 18.247 18.249">
  <g id="follow_1_" data-name="follow (1)" transform="translate(0.375 0.375)">
    <path id="Trazado_46" data-name="Trazado 46" d="M14.752,0H2.787A2.889,2.889,0,0,0,.021,2.992v7.555a2.889,2.889,0,0,0,2.766,2.992H6.379l1.934,3.684a.516.516,0,0,0,.913,0l1.934-3.684h3.592a2.889,2.889,0,0,0,2.766-2.992V2.992A2.889,2.889,0,0,0,14.752,0ZM8.21,9.7H3.2a.929.929,0,0,1-.928-.928A3.331,3.331,0,0,1,4.319,5.7a1.962,1.962,0,1,1,2.776,0A3.331,3.331,0,0,1,9.139,8.771.929.929,0,0,1,8.21,9.7Z" transform="translate(-0.021 0)" fill="none" stroke="#707070" stroke-width="0.75"/>
    <path id="Trazado_301" data-name="Trazado 301" d="M11.261,3.781h4.177" transform="translate(-1)" fill="none" stroke="#707070" stroke-linecap="round" stroke-width="1"/>
    <path id="Trazado_302" data-name="Trazado 302" d="M11.261,3.781h4.177" transform="translate(-1 2)" fill="none" stroke="#707070" stroke-linecap="round" stroke-width="1"/>
    <path id="Trazado_303" data-name="Trazado 303" d="M11.261,3.781h4.177" transform="translate(-1 4)" fill="none" stroke="#707070" stroke-linecap="round" stroke-width="1"/>
  </g>
</svg>
