<svg id="setting-lines" xmlns="http://www.w3.org/2000/svg" width="18.064" height="17.708" viewBox="0 0 18.064 17.708">
  <path id="Trazado_48" data-name="Trazado 48" d="M3.86,53.65H.531a.531.531,0,0,1,0-1.063H3.86a.531.531,0,0,1,0,1.063Z" transform="translate(0 -50.684)" fill="#707070"/>
  <path id="Trazado_49" data-name="Trazado 49" d="M86.57,9.37A2.434,2.434,0,1,1,89,6.937,2.436,2.436,0,0,1,86.57,9.37Zm0-3.8a1.371,1.371,0,1,0,1.371,1.371A1.373,1.373,0,0,0,86.57,5.566Z" transform="translate(-80.807 -4.503)" fill="#707070"/>
  <path id="Trazado_50" data-name="Trazado 50" d="M238.86,53.65h-9.237a.537.537,0,1,1,0-1.063h9.237a.537.537,0,1,1,0,1.063Z" transform="translate(-221.414 -50.684)" fill="#707070"/>
  <path id="Trazado_51" data-name="Trazado 51" d="M266.863,171.641a2.434,2.434,0,1,1,2.434-2.434A2.436,2.436,0,0,1,266.863,171.641Zm0-3.8a1.371,1.371,0,1,0,1.371,1.371A1.372,1.372,0,0,0,266.863,167.837Z" transform="translate(-253.966 -160.353)" fill="#707070"/>
  <path id="Trazado_52" data-name="Trazado 52" d="M10.447,215.913H.612a.537.537,0,1,1,0-1.063h9.835a.537.537,0,1,1,0,1.063Z" transform="translate(0 -206.527)" fill="#707070"/>
  <path id="Trazado_53" data-name="Trazado 53" d="M363.853,215.913h-2.735a.531.531,0,1,1,0-1.063h2.735a.531.531,0,1,1,0,1.063Z" transform="translate(-346.32 -206.527)" fill="#707070"/>
  <path id="Trazado_54" data-name="Trazado 54" d="M71.547,333.9a2.434,2.434,0,1,1,2.434-2.434A2.436,2.436,0,0,1,71.547,333.9Zm0-3.8a1.371,1.371,0,1,0,1.371,1.371A1.372,1.372,0,0,0,71.547,330.1Z" transform="translate(-66.378 -316.196)" fill="#707070"/>
  <path id="Trazado_55" data-name="Trazado 55" d="M224.466,378.177h-9.872a.537.537,0,1,1,0-1.063h9.872a.537.537,0,1,1,0,1.063Z" transform="translate(-207.016 -362.371)" fill="#707070"/>
  <path id="Trazado_56" data-name="Trazado 56" d="M3.266,378.176H.531a.531.531,0,0,1,0-1.063H3.266a.531.531,0,0,1,0,1.063Z" transform="translate(0 -362.37)" fill="#707070"/>
</svg>
