<svg xmlns="http://www.w3.org/2000/svg" width="22.885" height="23" viewBox="0 0 22.885 23">
  <g id="Grupo_399" data-name="Grupo 399" transform="translate(0 0)">
    <g id="Grupo_398" data-name="Grupo 398">
      <path id="Trazado_4513" data-name="Trazado 4513" d="M21.6,5.346A11.288,11.288,0,0,0,13.538,2,11.4,11.4,0,0,0,3.66,19.089L2.05,25l6.037-1.587A11.4,11.4,0,0,0,13.538,24.8h0A11.4,11.4,0,0,0,21.6,5.346ZM13.538,22.872h0a9.5,9.5,0,0,1-4.83-1.322l-.345-.207-3.588.943.954-3.5-.23-.356A9.477,9.477,0,0,1,13.527,3.92a9.476,9.476,0,0,1,.012,18.952Zm5.2-7.084c-.287-.138-1.69-.828-1.943-.931s-.448-.138-.644.138-.736.931-.9,1.115-.333.218-.621.069a7.663,7.663,0,0,1-2.288-1.414,8.7,8.7,0,0,1-1.587-1.978c-.161-.287-.023-.437.126-.586.126-.126.287-.333.425-.494a1.993,1.993,0,0,0,.287-.471.528.528,0,0,0-.023-.494C11.5,10.6,10.928,9.2,10.7,8.624c-.23-.552-.471-.483-.644-.494H9.5a1.033,1.033,0,0,0-.759.356,3.244,3.244,0,0,0-.989,2.38A5.54,5.54,0,0,0,8.915,13.81a12.624,12.624,0,0,0,4.864,4.3,13.919,13.919,0,0,0,1.621.6,3.94,3.94,0,0,0,1.794.115,2.9,2.9,0,0,0,1.92-1.357,2.247,2.247,0,0,0,.161-1.357C19.2,15.984,19.024,15.926,18.736,15.788Z" transform="translate(-2.05 -2)" fill="#fff"/>
    </g>
  </g>
</svg>
