<svg xmlns="http://www.w3.org/2000/svg" width="28.654" height="28.654" viewBox="0 0 28.654 28.654">
  <g id="Group_213" data-name="Group 213" transform="translate(1.25 1.25)">
    <path id="Path_283" data-name="Path 283" d="M222.133,317.652V305.181a6.861,6.861,0,0,1,6.841-6.841h12.471a6.861,6.861,0,0,1,6.842,6.841v12.472a6.862,6.862,0,0,1-6.842,6.841H228.974a6.861,6.861,0,0,1-6.841-6.842Z" transform="translate(-222.133 -298.34)" fill="none" stroke="#fff" stroke-miterlimit="10" stroke-width="2.5"/>
    <path id="Path_284" data-name="Path 284" d="M240.3,315.626l.58-3.78h-3.627v-2.453a1.89,1.89,0,0,1,2.131-2.042h1.649v-3.218a20.056,20.056,0,0,0-2.927-.256c-2.987,0-4.94,1.811-4.94,5.088v2.881h-3.32v3.78h3.32v8.868h4.087v-8.868Z" transform="translate(-222.133 -298.34)" fill="#fff"/>
  </g>
</svg>
