<svg id="facebook_1_" data-name="facebook (1)" xmlns="http://www.w3.org/2000/svg" width="29.685" height="29.685" viewBox="0 0 29.685 29.685">
  <g id="Grupo_40" data-name="Grupo 40">
    <path id="Trazado_23" data-name="Trazado 23" d="M25.975,0H3.711A3.714,3.714,0,0,0,0,3.711V25.975a3.714,3.714,0,0,0,3.711,3.711H14.843v-10.2H11.132V14.843h3.711V11.132a5.566,5.566,0,0,1,5.566-5.566h3.711V10.2H22.264c-1.024,0-1.855-.1-1.855.928v3.711h4.638l-1.855,4.638H20.409v10.2h5.566a3.714,3.714,0,0,0,3.711-3.711V3.711A3.714,3.714,0,0,0,25.975,0Z" fill="#1c4a83"/>
  </g>
</svg>
