<?xml version="1.0" encoding="utf-8"?>
<!-- Generator: Adobe Illustrator 24.1.3, SVG Export Plug-In . SVG Version: 6.00 Build 0)  -->
<svg version="1.1" id="Layer_1" xmlns="http://www.w3.org/2000/svg" xmlns:xlink="http://www.w3.org/1999/xlink" x="0px" y="0px"
	 viewBox="0 0 39 39" style="enable-background:new 0 0 39 39;" xml:space="preserve">
<style type="text/css">
	.st0{fill:#1C4A83;}
	.st1{fill:none;stroke:#707070;}
	.st2{fill:#FFFFFF;stroke:#707070;}
</style>
<g id="Grupo_55" transform="translate(-1557 -218)">
	<g id="Rectángulo_20" transform="translate(1557 218)">
		<path class="st0" d="M11,0h17c6.1,0,11,4.9,11,11v17c0,6.1-4.9,11-11,11H11C4.9,39,0,34.1,0,28V11C0,4.9,4.9,0,11,0z"/>
		<path class="st1" d="M11,0.5h17c5.8,0,10.5,4.7,10.5,10.5v17c0,5.8-4.7,10.5-10.5,10.5H11C5.2,38.5,0.5,33.8,0.5,28V11
			C0.5,5.2,5.2,0.5,11,0.5z"/>
	</g>
	<g id="heart_relleno" transform="translate(1564.63 229.022)">
		<g id="Grupo_54" transform="translate(0 0)">
			<path id="Trazado_27" class="st2" d="M11.3,20.5C4.7,14.7,0,11.6,0,6.7C0,3,2.6,0,6.2,0c2.4,0.1,4.5,1.5,5.5,3.7
				c1-2.2,3.1-3.6,5.5-3.7c3.6,0,6.2,3,6.2,6.7c0,4.9-4.7,7.9-11.3,13.7C11.9,20.7,11.5,20.7,11.3,20.5z"/>
		</g>
	</g>
</g>
</svg>
