<svg id="Componente_72_1" data-name="Componente 72 – 1" xmlns="http://www.w3.org/2000/svg" xmlns:xlink="http://www.w3.org/1999/xlink" width="191" height="228" viewBox="0 0 191 228">
  <defs>
    <clipPath id="clip-path">
      <rect id="Rectángulo_193" data-name="Rectángulo 193" width="191" height="228" transform="translate(-10325 13609)" fill="none"/>
    </clipPath>
    <linearGradient id="linear-gradient" x1="1" y1="0.5" x2="0" y2="0.5" gradientUnits="objectBoundingBox">
      <stop offset="0" stop-color="#5db64b"/>
      <stop offset="0.23" stop-color="#4da667"/>
      <stop offset="0.72" stop-color="#247ead"/>
      <stop offset="1" stop-color="#0c66d8"/>
    </linearGradient>
    <linearGradient id="linear-gradient-4" x1="1" y1="0.5" y2="0.5" xlink:href="#linear-gradient"/>
    <linearGradient id="linear-gradient-6" x1="1" y1="0.499" y2="0.499" xlink:href="#linear-gradient"/>
    <linearGradient id="linear-gradient-10" x1="1" y1="0.5" y2="0.5" xlink:href="#linear-gradient"/>
    <linearGradient id="linear-gradient-12" x1="1" y1="0.5" y2="0.5" xlink:href="#linear-gradient"/>
    <linearGradient id="linear-gradient-13" x1="1" y1="0.5" y2="0.5" xlink:href="#linear-gradient"/>
  </defs>
  <g id="Enmascarar_grupo_8" data-name="Enmascarar grupo 8" transform="translate(10325 -13609)" clip-path="url(#clip-path)">
    <g id="Layer_2" data-name="Layer 2" transform="translate(-10430.033 13609)">
      <g id="Layer_1" data-name="Layer 1">
        <path id="Trazado_2" data-name="Trazado 2" d="M7.68,2.66a148.189,148.189,0,0,1,95.4,79.231Z" transform="translate(178.234 2.318)" fill="url(#linear-gradient)"/>
        <path id="Trazado_3" data-name="Trazado 3" d="M1.24,0H2.419A149.292,149.292,0,0,1,21.937,1.329L142.9,101.8a148.334,148.334,0,0,1,5.034,20.06Z" transform="translate(145.433)" fill="url(#linear-gradient)"/>
        <path id="Trazado_4" data-name="Trazado 4" d="M0,2.888A152.009,152.009,0,0,1,16.112.38L177.886,134.74c.356,4.21.561,8.458.561,12.762,0,1.179,0,2.358-.094,3.518Z" transform="translate(117.237 0.331)" fill="url(#linear-gradient)"/>
        <path id="Trazado_5" data-name="Trazado 5" d="M.39,7.848C4.788,6.089,9.279,4.5,13.863,3.17L202.491,159.817a132.679,132.679,0,0,1-2.115,14.147Z" transform="translate(92.464 2.762)" fill="url(#linear-gradient-4)"/>
        <path id="Trazado_6" data-name="Trazado 6" d="M2.76,14.119C6.5,11.873,10.376,9.759,14.343,7.85L221.272,179.692q-1.74,6.4-4.023,12.556Z" transform="translate(69.248 6.84)" fill="url(#linear-gradient)"/>
        <path id="Trazado_7" data-name="Trazado 7" d="M6.79,21.485C10.027,18.847,13.377,16.3,16.82,14L235.763,195.779q-2.564,5.764-5.614,11.228Z" transform="translate(47.216 12.198)" fill="url(#linear-gradient-6)"/>
        <path id="Trazado_8" data-name="Trazado 8" d="M12.31,29.93q4.117-4.547,8.627-8.72l225.529,187.3c-2.189,3.462-4.547,6.812-7.017,10.068Z" transform="translate(26.183 18.48)" fill="url(#linear-gradient)"/>
        <path id="Trazado_9" data-name="Trazado 9" d="M245.349,227.3,19.09,39.383q3.424-5.071,7.279-9.843L253.714,218.355Q249.728,223.014,245.349,227.3Z" transform="translate(6.247 25.738)" fill="url(#linear-gradient)"/>
        <path id="Trazado_10" data-name="Trazado 10" d="M27.13,49.952C29,46.209,30.873,42.467,33.006,38.93l224.425,186.4c-3.125,2.732-6.381,5.333-9.731,7.8Z" transform="translate(-12.515 33.92)" fill="url(#linear-gradient)"/>
        <path id="Trazado_11" data-name="Trazado 11" d="M36.48,61.716q1.871-6.25,4.341-12.276L257.443,229.272q-5.483,3.518-11.228,6.531Z" transform="translate(-30.024 43.077)" fill="url(#linear-gradient-10)"/>
        <path id="Trazado_12" data-name="Trazado 12" d="M47.29,74.9q.954-7,2.545-13.792l203.3,168.848c-4.267,1.871-8.645,3.537-13.1,5.015Z" transform="translate(-45.943 53.245)" fill="url(#linear-gradient-4)"/>
        <path id="Trazado_13" data-name="Trazado 13" d="M60.047,90.093c-.112-2.3-.187-4.641-.187-6.98,0-2.957,0-5.913.281-8.833L243.528,226.529A145.946,145.946,0,0,1,228,229.523Z" transform="translate(-59.86 64.721)" fill="url(#linear-gradient-12)"/>
        <path id="Trazado_14" data-name="Trazado 14" d="M209.547,217.162,78.874,108.626A149.521,149.521,0,0,1,75,89.52L228.99,217.461c-2.489.131-5,.225-7.485.225C217.462,217.667,213.5,217.48,209.547,217.162Z" transform="translate(-73.653 77.999)" fill="url(#linear-gradient-13)"/>
        <path id="Trazado_15" data-name="Trazado 15" d="M202.669,198.3A148,148,0,0,1,94.47,108.48Z" transform="translate(-83.766 94.519)" fill="url(#linear-gradient-10)"/>
      </g>
    </g>
  </g>
</svg>
