<svg id="Componente_73_1" data-name="Componente 73 – 1" xmlns="http://www.w3.org/2000/svg" width="204" height="204" viewBox="0 0 204 204">
  <g id="Grupo_57" data-name="Grupo 57" transform="translate(-262 -218)">
    <g id="Grupo_41" data-name="Grupo 41" transform="translate(122 41)">
      <rect id="Rectángulo_16" data-name="Rectángulo 16" width="204" height="204" rx="15" transform="translate(140 177)" fill="#fff"/>
    </g>
  </g>
  <g id="Grupo_70" data-name="Grupo 70" transform="translate(-223.889 -333)">
    <rect id="Rectángulo_25" data-name="Rectángulo 25" width="34" height="34" rx="8" transform="translate(371.889 488)" fill="#1c4a83"/>
    <g id="edit" transform="translate(378.243 494.243)">
      <path id="Trazado_32" data-name="Trazado 32" d="M156.367,44.39l12.062-12.062,3.89,3.89L160.257,48.28Zm0,0" transform="translate(-154.399 -29.68)" fill="#fff"/>
      <path id="Trazado_33" data-name="Trazado 33" d="M132.543,201.518l4.3-1.191-3.108-3.108Zm0,0" transform="translate(-132.543 -180.949)" fill="#fff"/>
      <path id="Trazado_34" data-name="Trazado 34" d="M320.324.872a2.068,2.068,0,0,0-2.921,0l-.876.876,3.89,3.89.876-.876a2.067,2.067,0,0,0,0-2.921Zm0,0" transform="translate(-301.328 -0.269)" fill="#fff"/>
    </g>
  </g>
  <text id="Agrega_el_logotipo_de_tu_empresa" data-name="Agrega el logotipo
de tu empresa" transform="translate(98 98)" fill="#707070" font-size="14" font-family="SegoeUI, Segoe UI"><tspan x="-57.911" y="0">Agrega el logotipo</tspan><tspan x="-44.382" y="19">de tu empresa</tspan></text>
</svg>
