<svg id="hablar" xmlns="http://www.w3.org/2000/svg" width="25.783" height="20.524" viewBox="0 0 25.783 20.524">
  <path id="Trazado_138" data-name="Trazado 138" d="M25.279,7.362a.5.5,0,0,0-.5.5V9.66a1.87,1.87,0,0,1-1.868,1.868h-2.87a.5.5,0,0,0-.356.147l-3.48,3.48V12.031a.5.5,0,0,0-.5-.5H8.488A1.87,1.87,0,0,1,6.62,9.66V2.042A1.87,1.87,0,0,1,8.488.175h14.42a1.87,1.87,0,0,1,1.868,1.868V7.857a.5.5,0,0,0,1.007,0V2.042A2.878,2.878,0,0,0,22.908-.832H8.488A2.878,2.878,0,0,0,5.613,2.042V8.512H1.948A1.95,1.95,0,0,0,0,10.46V15.1a1.95,1.95,0,0,0,1.948,1.948h1.54l2.5,2.5a.5.5,0,0,0,.86-.356v-2.14h3.888A1.95,1.95,0,0,0,12.68,15.1V12.535h2.514v3.836a.5.5,0,0,0,.86.356l4.192-4.192h2.662A2.878,2.878,0,0,0,25.783,9.66V7.865a.5.5,0,0,0-.5-.5ZM11.673,15.1a.942.942,0,0,1-.941.941H6.34a.5.5,0,0,0-.5.5v1.428L4.053,16.189a.5.5,0,0,0-.356-.148H1.948a.942.942,0,0,1-.941-.941V10.46a.942.942,0,0,1,.941-.941H5.613V9.66a2.878,2.878,0,0,0,2.875,2.875h3.185Zm0,0" transform="translate(0 0.832)" fill="#707070"/>
  <path id="Trazado_139" data-name="Trazado 139" d="M63.439,16.211H53.62a.5.5,0,0,0,0,1.007h9.82a.5.5,0,0,0,0-1.007Zm0,0" transform="translate(-42.832 -12.911)" fill="#707070"/>
  <path id="Trazado_140" data-name="Trazado 140" d="M63.943,30.759a.5.5,0,0,0-.5-.5H53.62a.5.5,0,0,0,0,1.007h9.82A.5.5,0,0,0,63.943,30.759Zm0,0" transform="translate(-42.832 -24.236)" fill="#707070"/>
  <path id="Trazado_141" data-name="Trazado 141" d="M53.62,44.3a.5.5,0,0,0,0,1.007h5.665a.5.5,0,1,0,0-1.007Zm0,0" transform="translate(-42.832 -35.561)" fill="#707070"/>
</svg>
