<svg xmlns="http://www.w3.org/2000/svg" width="11.238" height="14.142" viewBox="0 0 11.238 14.142">
  <g id="Grupo_721" data-name="Grupo 721" transform="translate(0)">
    <g id="Grupo_565" data-name="Grupo 565">
      <rect id="Rect치ngulo_247" data-name="Rect치ngulo 247" width="1.414" height="4.792" transform="translate(11.198 10.646) rotate(90)" fill="#b2b3b5"/>
      <rect id="Rect치ngulo_248" data-name="Rect치ngulo 248" width="1.249" height="5.427" transform="translate(8.178 8.639)" fill="#b2b3b5"/>
      <g id="Grupo_564" data-name="Grupo 564">
        <path id="Trazado_4576" data-name="Trazado 4576" d="M-32.053,20.79v-9.9H-30.8v2.121h6.244V10.89h1.249V16.7h1.249V10.89a1.344,1.344,0,0,0-1.249-1.414h-2.61A1.818,1.818,0,0,0-28.3,8.181a2,2,0,0,0-1.144,1.295h-2.61A1.344,1.344,0,0,0-33.3,10.89v9.9A1.343,1.343,0,0,0-32.053,22.2h5V20.79Zm4.371-11.314a.67.67,0,0,1,.624.707.67.67,0,0,1-.624.707.67.67,0,0,1-.624-.707A.671.671,0,0,1-27.683,9.476Z" transform="translate(33.302 -8.061)" fill="#b2b3b5"/>
      </g>
    </g>
  </g>
</svg>
