<svg id="visibility_black_24dp" xmlns="http://www.w3.org/2000/svg" width="35.65" height="35.65" viewBox="0 0 35.65 35.65">
  <path id="Trazado_318" data-name="Trazado 318" d="M0,0H35.65V35.65H0Z" fill="none"/>
  <path id="Trazado_319" data-name="Trazado 319" d="M17.37,7.007A14.527,14.527,0,0,1,30.5,15.278a14.551,14.551,0,0,1-26.252,0A14.527,14.527,0,0,1,17.37,7.007M17.37,4A17.606,17.606,0,0,0,1,15.278a17.52,17.52,0,0,0,32.74,0A17.606,17.606,0,0,0,17.37,4Zm0,7.519a3.76,3.76,0,1,1-3.721,3.759,3.741,3.741,0,0,1,3.721-3.759m0-3.007a6.767,6.767,0,1,0,6.7,6.767A6.742,6.742,0,0,0,17.37,8.511Z" transform="translate(0.455 1.82)" fill="#6b89ae"/>
</svg>
