<svg id="Grupo_556" data-name="Grupo 556" xmlns="http://www.w3.org/2000/svg" width="59.538" height="51.825" viewBox="0 0 59.538 51.825">
  <path id="Trazado_4568" data-name="Trazado 4568" d="M30.769,12.057A26.441,26.441,0,0,1,54.638,26.942a26.107,26.107,0,0,1-6.522,8.444L51.932,39.2a31.939,31.939,0,0,0,8.606-12.259A32.025,32.025,0,0,0,20.918,8.187l4.465,4.465A27.355,27.355,0,0,1,30.769,12.057Zm-2.9,3.085,5.6,5.6a6.761,6.761,0,0,1,3.464,3.464l5.6,5.6a12.664,12.664,0,0,0,.379-2.9A12.133,12.133,0,0,0,30.769,14.764,11.485,11.485,0,0,0,27.873,15.142ZM3.733,6.293l7.253,7.253A31.765,31.765,0,0,0,1,26.942a32.007,32.007,0,0,0,29.769,20.3A31.744,31.744,0,0,0,42.46,45.02l9.255,9.255,3.816-3.816L7.549,2.45Zm20.3,20.3,7.063,7.063a1.358,1.358,0,0,1-.325.054A6.768,6.768,0,0,1,24,26.942C24,26.806,24.03,26.725,24.03,26.59Zm-9.2-9.2,4.736,4.736a12.45,12.45,0,0,0-.974,4.817,12.193,12.193,0,0,0,16.968,11.2L38.211,40.8a28.233,28.233,0,0,1-7.442,1.028A26.441,26.441,0,0,1,6.9,26.942,26.8,26.8,0,0,1,14.829,17.389Z" transform="translate(-1 -2.45)" fill="#1c4a83"/>
</svg>
