<svg xmlns="http://www.w3.org/2000/svg" width="11.021" height="13.868" viewBox="0 0 11.021 13.868">
  <path id="Trazado_4557" data-name="Trazado 4557" d="M12.8,2.387H10.237A1.875,1.875,0,0,0,8.51,1,1.875,1.875,0,0,0,6.784,2.387H4.225A1.317,1.317,0,0,0,3,3.774v9.708a1.317,1.317,0,0,0,1.225,1.387H12.8a1.093,1.093,0,0,0,.294-.044H13.1v0a1.363,1.363,0,0,0,.923-1.34V3.774A1.317,1.317,0,0,0,12.8,2.387Zm-4.286,0a.659.659,0,0,1,.612.693.659.659,0,0,1-.612.693A.659.659,0,0,1,7.9,3.08.659.659,0,0,1,8.51,2.387ZM4.225,3.774H5.449v2.08h6.123V3.774H12.8v9.708H4.225Z" transform="translate(-3 -1)" fill="#68b744"/>
</svg>
