<svg id="visibility_black_24dp" xmlns="http://www.w3.org/2000/svg" width="17.63" height="17.63" viewBox="0 0 17.63 17.63">
  <path id="Trazado_318" data-name="Trazado 318" d="M0,0H17.63V17.63H0Z" fill="none"/>
  <path id="Trazado_319" data-name="Trazado 319" d="M9.081,5.469a7.177,7.177,0,0,1,6.479,4.04,7.215,7.215,0,0,1-12.958,0,7.177,7.177,0,0,1,6.479-4.04M9.081,4A8.688,8.688,0,0,0,1,9.509a8.681,8.681,0,0,0,16.161,0A8.688,8.688,0,0,0,9.081,4Zm0,3.673A1.836,1.836,0,1,1,7.244,9.509,1.837,1.837,0,0,1,9.081,7.673m0-1.469a3.306,3.306,0,1,0,3.306,3.306A3.311,3.311,0,0,0,9.081,6.2Z" transform="translate(-0.265 -1.062)" fill="#707070"/>
</svg>
