<svg id="contratado" xmlns="http://www.w3.org/2000/svg" width="14.55" height="17.401" viewBox="0 0 14.55 17.401">
  <path id="Trazado_4388" data-name="Trazado 4388" d="M0,0H14.151V17.4H0Z" transform="translate(0 0)" fill="none"/>
  <path id="Trazado_4389" data-name="Trazado 4389" d="M6.321,5.45A1.377,1.377,0,0,1,7.6,6.9a1.377,1.377,0,0,1-1.28,1.45A1.377,1.377,0,0,1,5.041,6.9a1.377,1.377,0,0,1,1.28-1.45m0,6.525c1.728,0,3.713.943,3.841,1.45v.725H2.48v-.725c.128-.508,2.113-1.45,3.841-1.45M6.321,4A2.754,2.754,0,0,0,3.761,6.9,2.754,2.754,0,0,0,6.321,9.8,2.754,2.754,0,0,0,8.882,6.9,2.712,2.712,0,0,0,6.321,4Zm0,6.525c-1.728,0-5.121.943-5.121,2.9V15.6H11.443V13.426C11.443,11.468,8.05,10.525,6.321,10.525Z" transform="translate(-0.432 -1.1)" fill="#68b744"/>
  <path id="Trazado_4603" data-name="Trazado 4603" d="M0,0,5.324-.331,5.24,1.034l-5.324.331Z" transform="translate(9.82 8.304) rotate(-45)" fill="#68b744"/>
  <path id="Trazado_4604" data-name="Trazado 4604" d="M0,0,3,.187l.085,1.365-3-.187Z" transform="translate(10.618 9.227) rotate(-135)" fill="#68b744"/>
</svg>
