<svg id="Grupo_722" data-name="Grupo 722" xmlns="http://www.w3.org/2000/svg" width="12.901" height="14.508" viewBox="0 0 12.901 14.508">
  <g id="Grupo_552" data-name="Grupo 552">
    <g id="Grupo_551" data-name="Grupo 551">
      <g id="assignment_ind_black_24dp" data-name="assignment ind black 24dp">
        <rect id="Rectángulo_239" data-name="Rectángulo 239" width="3.419" height="1.069" transform="translate(1.953 8.711)" fill="#6b89ae"/>
        <path id="Trazado_4560" data-name="Trazado 4560" d="M9.807,13.928H5.214V4.333h6.749V9.54a2.213,2.213,0,0,1,.964-.132V4.333a1.037,1.037,0,0,0-.964-1.092H5.209A1.038,1.038,0,0,0,4.25,4.333v9.595a1.037,1.037,0,0,0,.964,1.092h4.927A2.761,2.761,0,0,1,9.807,13.928Z" transform="translate(-4.25 -3.241)" fill="#6b89ae"/>
        <path id="Trazado_4561" data-name="Trazado 4561" d="M11.135,9.984c0-.919-1.289-1.316-1.947-1.316S7.24,9.062,7.24,9.984v.563h3.895Z" transform="translate(-5.16 -4.392)" fill="#6b89ae"/>
        <path id="Trazado_4562" data-name="Trazado 4562" d="M10.586,6.557a1.047,1.047,0,0,0-.973-1.1,1.045,1.045,0,0,0-.974,1.1,1.044,1.044,0,0,0,.974,1.1A1.044,1.044,0,0,0,10.586,6.557Z" transform="translate(-5.585 -3.71)" fill="#6b89ae"/>
        <rect id="Rectángulo_240" data-name="Rectángulo 240" width="4.149" height="1.04" transform="translate(1.953 7.008)" fill="#6b89ae"/>
      </g>
      <path id="Trazado_4563" data-name="Trazado 4563" d="M17.962,16.4a3.351,3.351,0,0,0,.4-1.592,2.984,2.984,0,0,0-2.783-3.152A2.984,2.984,0,0,0,12.793,14.8a2.984,2.984,0,0,0,2.783,3.152,2.519,2.519,0,0,0,1.405-.449l1.788,2.025.981-1.111C18.707,17.239,19.2,17.79,17.962,16.4Zm-2.386.407a1.9,1.9,0,0,1-1.764-2,1.9,1.9,0,0,1,1.764-2,1.9,1.9,0,0,1,1.765,2A1.9,1.9,0,0,1,15.576,16.8Z" transform="translate(-6.849 -5.024)" fill="#6b89ae"/>
    </g>
  </g>
  <rect id="Rectángulo_241" data-name="Rectángulo 241" width="1.572" height="4.391" rx="0.786" transform="translate(7.941 1.228)" fill="#6b89ae"/>
</svg>
