<svg xmlns="http://www.w3.org/2000/svg" width="17.205" height="14.976" viewBox="0 0 17.205 14.976">
  <g id="Grupo_556" data-name="Grupo 556" transform="translate(12 -12)">
    <path id="Trazado_4568" data-name="Trazado 4568" d="M9.6,5.226a7.641,7.641,0,0,1,6.9,4.3,7.544,7.544,0,0,1-1.885,2.44l1.1,1.1A9.229,9.229,0,0,0,18.2,9.527,9.254,9.254,0,0,0,6.756,4.108L8.046,5.4A7.9,7.9,0,0,1,9.6,5.226Zm-.837.892,1.619,1.619a1.954,1.954,0,0,1,1,1L13,10.356a3.659,3.659,0,0,0,.109-.837A3.506,3.506,0,0,0,9.6,6.008,3.319,3.319,0,0,0,8.766,6.118ZM1.79,3.56l2.1,2.1A9.179,9.179,0,0,0,1,9.527a9.249,9.249,0,0,0,8.6,5.865,9.173,9.173,0,0,0,3.378-.641l2.675,2.675,1.1-1.1L2.893,2.45ZM7.655,9.426,9.7,11.467a.393.393,0,0,1-.094.016A1.956,1.956,0,0,1,7.647,9.527C7.647,9.488,7.655,9.465,7.655,9.426ZM5,6.767,6.365,8.135a3.6,3.6,0,0,0-.282,1.392,3.523,3.523,0,0,0,4.9,3.238l.766.766a8.159,8.159,0,0,1-2.151.3,7.641,7.641,0,0,1-6.9-4.3A7.744,7.744,0,0,1,5,6.767Z" transform="translate(-13 9.55)" fill="#b2b3b5"/>
  </g>
</svg>
