<svg xmlns="http://www.w3.org/2000/svg" width="27.474" height="27.473" viewBox="0 0 27.474 27.473">
  <g id="Grupo_573" data-name="Grupo 573" transform="translate(79.052 0.753)">
    <path id="Trazado_4391" data-name="Trazado 4391" d="M-62.337,9.411a1.863,1.863,0,0,1,1.863,1.863,1.863,1.863,0,0,1-1.863,1.863A1.863,1.863,0,0,1-64.2,11.274h0a1.868,1.868,0,0,1,1.863-1.863m0,8.382c2.514,0,5.4,1.211,5.588,1.863v.931H-67.925v-.931c.186-.652,3.073-1.863,5.588-1.863m0-10.247a3.725,3.725,0,0,0-3.725,3.725,3.725,3.725,0,0,0,3.725,3.725,3.725,3.725,0,0,0,3.725-3.725h0a3.677,3.677,0,0,0-3.633-3.722h-.092Zm0,8.382c-2.515,0-7.451,1.214-7.451,3.728v2.794h14.9V19.655c0-2.514-4.936-3.725-7.45-3.725Z" transform="translate(-2.977 -2.667)" fill="#6b89ae"/>
    <g id="Grupo_566" data-name="Grupo 566" transform="translate(-79.052 -0.753)">
      <path id="Trazado_4577" data-name="Trazado 4577" d="M-65.315,26.72A13.753,13.753,0,0,1-79.052,12.984,13.753,13.753,0,0,1-65.315-.753,13.752,13.752,0,0,1-51.578,12.984,13.752,13.752,0,0,1-65.315,26.72Zm0-25.437a11.714,11.714,0,0,0-11.7,11.7,11.714,11.714,0,0,0,11.7,11.7,11.714,11.714,0,0,0,11.7-11.7A11.714,11.714,0,0,0-65.315,1.283Z" transform="translate(79.052 0.753)" fill="#6b89ae"/>
    </g>
    <g id="Grupo_567" data-name="Grupo 567" transform="translate(-55.966 11.847)">
      <rect id="Rectángulo_249" data-name="Rectángulo 249" width="3.001" height="2.036" fill="#6b89ae"/>
    </g>
    <g id="Grupo_568" data-name="Grupo 568" transform="translate(-77.379 11.847)">
      <rect id="Rectángulo_250" data-name="Rectángulo 250" width="3.001" height="2.036" fill="#6b89ae"/>
    </g>
    <g id="Grupo_569" data-name="Grupo 569" transform="translate(-66.19 -0.021)">
      <rect id="Rectángulo_251" data-name="Rectángulo 251" width="2.036" height="3.001" fill="#6b89ae"/>
    </g>
    <g id="Grupo_570" data-name="Grupo 570" transform="translate(-66.19 22.749)">
      <rect id="Rectángulo_252" data-name="Rectángulo 252" width="2.036" height="3.001" fill="#6b89ae"/>
    </g>
    <g id="Grupo_571" data-name="Grupo 571" transform="translate(-66.19 0.658)">
      <rect id="Rectángulo_253" data-name="Rectángulo 253" width="2.036" height="3.001" fill="#6b89ae"/>
    </g>
    <g id="Grupo_572" data-name="Grupo 572" transform="translate(-66.19 22.07)">
      <rect id="Rectángulo_254" data-name="Rectángulo 254" width="2.036" height="3.001" fill="#6b89ae"/>
    </g>
  </g>
</svg>
