<svg xmlns="http://www.w3.org/2000/svg" width="73.139" height="73.139" viewBox="0 0 73.139 73.139">
  <g id="Grupo_579" data-name="Grupo 579" transform="translate(0 47)">
    <path id="Trazado_4569" data-name="Trazado 4569" d="M30.206,4.4H23.1a5.081,5.081,0,0,0-9.59,0H6.4A3.411,3.411,0,0,0,3,7.8V31.607a3.411,3.411,0,0,0,3.4,3.4H30.206a3.41,3.41,0,0,0,.816-.109h.02v-.007a3.4,3.4,0,0,0,2.564-3.285V7.8A3.411,3.411,0,0,0,30.206,4.4Zm-11.9,0a1.7,1.7,0,1,1-1.7,1.7A1.705,1.705,0,0,1,18.3,4.4ZM6.4,7.8H9.8v5.1h17V7.8h3.4V31.607H6.4Z" transform="translate(18.46 -29.821)" fill="#1c4a83"/>
    <g id="Grupo_557" data-name="Grupo 557" transform="translate(0 -47)">
      <path id="Trazado_4572" data-name="Trazado 4572" d="M-10.4,52.081l-7.284-9.405L-28.7,47.189l-1.584-11.8-11.8-1.584L-37.56,22.8l-9.409-7.284,9.409-7.28L-42.073-2.781-30.28-4.369l1.588-11.793,11.009,4.513,7.284-9.409,7.28,9.409L7.893-16.162l1.588,11.8L21.275-2.781,16.761,8.232l9.409,7.28L16.761,22.8l4.513,11.013L9.481,35.392l-1.588,11.8L-3.119,42.676Zm-6.024-14.1,6.024,7.782,6.024-7.782,9.108,3.729,1.31-9.757L15.8,30.643,12.07,21.536l7.786-6.024L12.07,9.488,15.8.384,6.042-.93l-1.31-9.761L-4.375-6.958-10.4-14.744l-6.024,7.786-9.108-3.733L-26.841-.93-36.6.38l3.733,9.108-7.786,6.024,7.786,6.024-3.737,9.108,9.761,1.314,1.314,9.757Z" transform="translate(46.969 21.058)" fill="#1c4a83"/>
    </g>
  </g>
</svg>
