<svg id="new_releases_black_24dp" xmlns="http://www.w3.org/2000/svg" width="62.388" height="62.388" viewBox="0 0 62.388 62.388">
  <path id="Trazado_4384" data-name="Trazado 4384" d="M0,0H62.388V62.388H0Z" fill="none"/>
  <path id="Trazado_4385" data-name="Trazado 4385" d="M57.364,28.1,51.113,21.04l.871-9.344L42.735,9.614,37.893,1.54,29.182,5.247,20.471,1.54,15.629,9.614,6.38,11.671l.871,9.344L1,28.1l6.251,7.058L6.38,44.525l9.249,2.082,4.842,8.074,8.711-3.732,8.711,3.707,4.842-8.074L51.984,44.5l-.871-9.344ZM45.809,33.455l.666,7.084-7.02,1.574-3.664,6.119-6.61-2.818-6.61,2.818-3.664-6.119-7.02-1.574.666-7.109L7.815,28.1l4.74-5.383-.666-7.058,7.02-1.549,3.664-6.119,6.61,2.793,6.61-2.818,3.664,6.119,7.02,1.574-.666,7.084,4.74,5.357ZM26.62,35.715h5.124v5.078H26.62Zm0-20.312h5.124V30.637H26.62Z" transform="translate(2.012 3.098)" fill="#68b744"/>
</svg>
