<svg xmlns="http://www.w3.org/2000/svg" width="23.901" height="17" viewBox="0 0 23.901 17">
  <g id="Grupo_555" data-name="Grupo 555" transform="translate(-26.239 -1.142)">
    <g id="Grupo_554" data-name="Grupo 554" transform="translate(26.239 1.142)">
      <path id="Trazado_4564" data-name="Trazado 4564" d="M40.758,8.158h0A2.731,2.731,0,0,0,38.039,10.9v.025a2.744,2.744,0,1,0,2.719-2.769Z" transform="translate(-28.807 -2.669)" fill="none"/>
      <path id="Trazado_4565" data-name="Trazado 4565" d="M40.125,5.352h0a4.94,4.94,0,1,0,4.888,4.992v-.052A4.923,4.923,0,0,0,40.125,5.352Zm.05,7.684a2.744,2.744,0,0,1-2.769-2.719v-.025a2.731,2.731,0,0,1,2.716-2.744h0a2.745,2.745,0,0,1,.05,5.489Z" transform="translate(-28.174 -2.058)" fill="#6b89ae"/>
      <path id="Trazado_4566" data-name="Trazado 4566" d="M33.606,14.378a10.625,10.625,0,0,1-5-5,10.625,10.625,0,0,1,19.167,0,10.587,10.587,0,0,1-2.556,3.385L46.639,14.4a12.767,12.767,0,0,0,3.5-5.022,12.79,12.79,0,0,0-23.9,0A12.789,12.789,0,0,0,42.746,16.77c.106-.041.2-.094.308-.137l-1.533-1.762A10.579,10.579,0,0,1,33.606,14.378Z" transform="translate(-26.239 -1.142)" fill="#6b89ae"/>
    </g>
    <rect id="Rectángulo_243" data-name="Rectángulo 243" width="7.754" height="3.14" transform="translate(41.578 10.23) rotate(48.99)" fill="#6b89ae"/>
  </g>
</svg>
