<svg xmlns="http://www.w3.org/2000/svg" width="32.936" height="32.936" viewBox="0 0 32.936 32.936">
  <g id="Grupo_577" data-name="Grupo 577" transform="translate(-190.125 -96.073)">
    <path id="Trazado_4569" data-name="Trazado 4569" d="M15.251,2.531h-3.2a2.288,2.288,0,0,0-4.319,0h-3.2A1.536,1.536,0,0,0,3,4.063v10.72a1.536,1.536,0,0,0,1.531,1.531h10.72a1.535,1.535,0,0,0,.368-.049h.009v0a1.529,1.529,0,0,0,1.155-1.479V4.063A1.536,1.536,0,0,0,15.251,2.531Zm-5.36,0a.766.766,0,1,1-.766.766A.768.768,0,0,1,9.891,2.531ZM4.531,4.063H6.063v2.3H13.72v-2.3h1.531v10.72H4.531Z" transform="translate(196.789 103.26)" fill="#6b89ae"/>
    <g id="Grupo_557" data-name="Grupo 557" transform="translate(237.094 117.131)">
      <path id="Trazado_4572" data-name="Trazado 4572" d="M-30.5,11.878l-3.28-4.235L-38.74,9.675l-.713-5.312-5.312-.713,2.034-4.959-4.237-3.28,4.237-3.278-2.032-4.959,5.311-.715.715-5.311,4.957,2.032,3.28-4.237,3.278,4.237,4.959-2.032.715,5.312,5.311.713L-18.27-7.868l4.237,3.278L-18.27-1.31l2.032,4.959-5.311.713-.715,5.312-4.959-2.032ZM-33.214,5.53l2.713,3.5,2.713-3.5,4.1,1.679.59-4.394,4.4-.592-1.681-4.1,3.506-2.713L-20.383-7.3l1.681-4.1-4.4-.592-.59-4.4-4.1,1.681L-30.5-18.215l-2.713,3.506-4.1-1.681-.59,4.4-4.4.59,1.681,4.1L-44.126-4.59l3.506,2.713-1.683,4.1,4.4.592.592,4.394Z" transform="translate(0 0)" fill="#6b89ae"/>
    </g>
  </g>
</svg>
