<svg id="new_releases_black_24dp" xmlns="http://www.w3.org/2000/svg" width="15.142" height="15.142" viewBox="0 0 15.142 15.142">
  <path id="Trazado_4384" data-name="Trazado 4384" d="M0,0H15.142V15.142H0Z" fill="none"/>
  <path id="Trazado_4385" data-name="Trazado 4385" d="M14.68,7.986,13.162,6.273,13.374,4,11.129,3.5,9.954,1.54l-2.114.9-2.114-.9L4.55,3.5,2.306,4l.211,2.268L1,7.986,2.517,9.7l-.211,2.274,2.245.505,1.175,1.96,2.114-.906,2.114.9,1.175-1.96,2.245-.505L13.162,9.7Zm-2.8,1.3.162,1.719-1.7.382-.889,1.485-1.6-.684-1.6.684-.889-1.485-1.7-.382L3.8,9.28,2.654,7.986,3.8,6.679,3.643,4.966l1.7-.376.889-1.485,1.6.678,1.6-.684.889,1.485,1.7.382-.162,1.719,1.15,1.3Zm-4.657.548H8.462v1.232H7.218Zm0-4.93H8.462V8.6H7.218Z" transform="translate(-0.269 -0.414)" fill="#b2b3b5"/>
</svg>
