<svg id="Grupo_898" data-name="Grupo 898" xmlns="http://www.w3.org/2000/svg" width="23.123" height="13.657" viewBox="0 0 23.123 13.657">
  <path id="Trazado_4657" data-name="Trazado 4657" d="M1773.458,1549.1a10.572,10.572,0,0,0-4.535-4.547,14.1,14.1,0,0,0-6.721-1.663h-.021a14.105,14.105,0,0,0-6.71,1.669,10.569,10.569,0,0,0-4.526,4.54l-.3.619.3.619a10.572,10.572,0,0,0,4.535,4.547,14.108,14.108,0,0,0,6.722,1.662h.021a14.106,14.106,0,0,0,6.71-1.669,10.578,10.578,0,0,0,4.526-4.54l.305-.619Zm-9.762,4.3-.01,0a3.99,3.99,0,0,1-2.783.071l-.026-.009c-.041-.015-.082-.031-.122-.046l-.024-.009-.051-.02-.048-.021-.025-.011c-.04-.018-.08-.035-.121-.055l-.023-.011a3.99,3.99,0,0,1-1.917-2.015l-.007-.017c-.019-.045-.036-.09-.053-.135l-.008-.022-.014-.037c-.009-.024-.017-.047-.024-.071l-.013-.039c-.009-.029-.019-.057-.028-.087l-.015-.052c-.014-.048-.027-.1-.039-.146l0-.009a3.986,3.986,0,0,1,.108-2.247l0-.007v0c.007-.019.014-.039.021-.058l.026-.067c.007-.02.015-.041.024-.063l.012-.028c.016-.04.033-.079.05-.117s.037-.078.06-.122c.043-.086.091-.176.146-.27a3.942,3.942,0,0,1,.234-.346l.06-.076c.064-.081.129-.157.193-.227l.05-.055.061-.063q.1-.1.21-.194l.147-.119c.076-.062.154-.119.233-.172.036-.025.072-.048.109-.071l.017-.011.121-.071,0,0,.111-.062c.047-.024.093-.048.143-.072l-.1-.2h0l.1.2c.055-.026.11-.051.17-.076.087-.038.176-.071.275-.1s.19-.06.3-.088l.074-.019c.095-.022.191-.04.287-.055l.143-.016c.1-.012.2-.02.3-.024l.117,0c.1,0,.2,0,.3.008l.214.023c.1.01.193.025.286.043s.183.039.286.067c.076.021.155.044.232.07l.013,0c.061.021.126.045.2.076l.037.015c.059.025.123.053.193.087.04.02.08.041.121.062l.064.034q.069.038.137.079l.028.017a3.993,3.993,0,0,1,.438.312l.017.014a4.034,4.034,0,0,1,1.05,1.34c.023.047.044.1.065.144l.02.045c.015.035.029.071.043.11l.007.017c.008.021.016.042.024.065l.017.048.011.033c.012.037.025.075.036.112l.012.042c.015.051.029.1.041.153l0,.009a4.021,4.021,0,0,1,0,1.877l0,.013c-.012.049-.026.1-.039.146l-.014.049c-.01.035-.022.069-.033.1l-.01.031c-.007.02-.013.04-.021.061s-.013.035-.02.053l-.008.021c-.015.039-.03.079-.047.118l-.016.037c-.02.047-.041.095-.063.141l-.005.01a3.985,3.985,0,0,1-1.516,1.672l-.008,0c-.043.026-.087.051-.13.075l-.048.027-.085.044-.028.014-.072.036-.057.026C1763.791,1553.354,1763.747,1553.373,1763.7,1553.394Zm-11.494-3.679c1.394-2.832,4.6-4.845,8.313-5.32h0a5.578,5.578,0,0,0-.575.219l-.079.036c-.057.026-.113.054-.167.081s-.135.07-.2.107l-.053.03a5.527,5.527,0,0,0-1.7,1.5l-.007,0-.145.214a5.553,5.553,0,0,0-.409.708l-.005.01c-.02.041-.039.082-.057.121-.028.062-.055.125-.082.19l-.009.024a5.523,5.523,0,0,0-.4,2.085,5.58,5.58,0,0,0,.152,1.291l.01.04c.018.073.038.146.059.22l.017.058c.016.054.034.108.053.166.012.036.024.073.037.11s.022.059.033.088l.005.013c.022.057.044.114.068.171l.018.042a5.561,5.561,0,0,0,2.682,2.818l.042.021c.054.026.109.05.164.074l.008,0,.1.042.085.034.02.008c.056.022.112.044.171.064l.041.014.14.045C1756.8,1554.564,1753.6,1552.552,1752.2,1549.715Zm11.678,5.32c.132-.042.263-.087.392-.139l.045-.018c.057-.023.112-.048.168-.073l.021-.009.079-.036.094-.046.015-.007c.051-.025.1-.051.151-.077l.037-.02.016-.009q.1-.054.2-.113l.159-.1v0a5.565,5.565,0,0,0,1.975-2.248l.005-.011c.032-.067.062-.133.091-.2l.027-.062c.022-.052.042-.1.061-.155l0-.01c.013-.034.027-.069.04-.105l.032-.093,0-.014c.018-.055.037-.11.053-.166l.012-.041.005-.019c.021-.071.04-.142.058-.216l0-.011a5.565,5.565,0,0,0,0-2.642l0-.014c-.018-.073-.038-.145-.058-.215l-.015-.052c-.018-.059-.037-.117-.056-.174l-.007-.02-.027-.08c-.013-.037-.028-.075-.042-.112l0-.011c-.019-.049-.038-.1-.058-.148l-.031-.07c-.028-.065-.057-.129-.088-.193l-.009-.019a5.572,5.572,0,0,0-2.426-2.508l.057-.019-.077.009q-.078-.041-.157-.079l-.023-.01c-.059-.028-.12-.055-.179-.081l-.122-.051-.067-.026c-.119-.047-.239-.088-.36-.126,3.723.469,6.933,2.483,8.331,5.322C1770.8,1552.548,1767.6,1554.563,1763.88,1555.035Z" transform="translate(-1750.64 -1542.886)" fill="#b2b3b5"/>
</svg>
