<svg id="contratado" xmlns="http://www.w3.org/2000/svg" width="15.153" height="16.331" viewBox="0 0 15.153 16.331">
  <path id="Trazado_4388" data-name="Trazado 4388" d="M0,0H15.041V16.331H0Z" fill="none"/>
  <path id="Trazado_4389" data-name="Trazado 4389" d="M6.644,5.361A1.361,1.361,0,1,1,5.283,6.722,1.365,1.365,0,0,1,6.644,5.361m0,6.124c1.837,0,3.947.885,4.083,1.361v.68H2.561v-.68c.136-.476,2.245-1.361,4.083-1.361M6.644,4A2.722,2.722,0,1,0,9.365,6.722,2.687,2.687,0,0,0,6.644,4Zm0,6.124c-1.837,0-5.444.885-5.444,2.722v2.041H12.087V12.846C12.087,11.009,8.481,10.124,6.644,10.124Z" transform="translate(-0.383 -1.278)" fill="#b2b3b5"/>
  <rect id="Rect치ngulo_89" data-name="Rect치ngulo 89" width="5.307" height="1.361" transform="translate(10.438 7.793) rotate(-45)" fill="#b2b3b5"/>
  <rect id="Rect치ngulo_90" data-name="Rect치ngulo 90" width="2.994" height="1.361" transform="translate(11.285 8.659) rotate(-135)" fill="#b2b3b5"/>
</svg>
