<svg xmlns="http://www.w3.org/2000/svg" width="13.503" height="15.293" viewBox="0 0 13.503 15.293">
  <g id="Grupo_728" data-name="Grupo 728" transform="translate(0 0)">
    <path id="Trazado_4569" data-name="Trazado 4569" d="M8.023,1.711H6.711A.961.961,0,0,0,5.825,1a.961.961,0,0,0-.885.711H3.628A.675.675,0,0,0,3,2.422V7.4a.675.675,0,0,0,.628.711H8.023a.56.56,0,0,0,.151-.023h0A.7.7,0,0,0,8.651,7.4V2.422A.675.675,0,0,0,8.023,1.711Zm-2.2,0a.338.338,0,0,1,.314.356.316.316,0,1,1-.628,0A.338.338,0,0,1,5.825,1.711Zm-2.2.711h.628V3.489H7.395V2.422h.628V7.4H3.628Z" transform="translate(0.962 2.801)" fill="#6b89ae"/>
    <g id="Grupo_557" data-name="Grupo 557">
      <path id="Trazado_4572" data-name="Trazado 4572" d="M-40.218-5.765l-1.345-1.967-2.033.944-.292-2.467-2.178-.331.834-2.3-1.737-1.523,1.737-1.522-.833-2.3,2.177-.332.293-2.466,2.032.944,1.345-1.967,1.344,1.967,2.033-.944.293,2.467,2.177.331-.833,2.3,1.737,1.522L-35.2-11.889l.833,2.3-2.177.331-.293,2.467-2.033-.944ZM-41.33-8.712l1.112,1.627,1.112-1.627,1.681.78.242-2.04,1.8-.275-.689-1.9,1.437-1.26-1.437-1.26.689-1.9-1.8-.275-.242-2.041-1.681.78-1.112-1.628L-41.33-18.11l-1.681-.78-.242,2.041-1.8.274.689,1.9-1.437,1.26,1.437,1.26-.69,1.9,1.8.275.243,2.04Z" transform="translate(46.969 21.058)" fill="#6b89ae"/>
    </g>
  </g>
</svg>
