<svg xmlns="http://www.w3.org/2000/svg" width="17.63" height="17.63" viewBox="0 0 17.63 17.63">
  <g id="assignment_ind_black_24dp" transform="translate(0 0)">
    <path id="Trazado_320" data-name="Trazado 320" d="M0,0H17.63V17.63H0Z" transform="translate(0 0)" fill="none"/>
    <path id="Trazado_321" data-name="Trazado 321" d="M14.754,2.469H11.683a2.2,2.2,0,0,0-4.143,0H4.469A1.473,1.473,0,0,0,3,3.938V14.222a1.473,1.473,0,0,0,1.469,1.469H14.754a1.473,1.473,0,0,0,1.469-1.469V3.938A1.473,1.473,0,0,0,14.754,2.469ZM9.611,2.286a.563.563,0,1,1-.4.184A.55.55,0,0,1,9.611,2.286Zm5.142,11.937H4.469V3.938H14.754ZM9.611,4.673a2.2,2.2,0,1,0,2.2,2.2A2.21,2.21,0,0,0,9.611,4.673Zm0,2.938a.735.735,0,1,1,.735-.735A.737.737,0,0,1,9.611,7.611ZM5.2,12.364v1.124h8.815V12.364c0-1.836-2.916-2.63-4.408-2.63S5.2,10.52,5.2,12.364Zm1.7-.345A5.15,5.15,0,0,1,9.611,11.2a5.129,5.129,0,0,1,2.711.823Z" transform="translate(-0.796 -0.266)" fill="#707070"/>
  </g>
</svg>
