<svg id="business_black_24dp" xmlns="http://www.w3.org/2000/svg" width="19" height="19" viewBox="0 0 19 19">
  <path id="Trazado_4394" data-name="Trazado 4394" d="M0,0H19V19H0Z" fill="none"/>
  <path id="Trazado_4395" data-name="Trazado 4395" d="M9.5,5.889V3H2V16H17V5.889ZM5,14.556H3.5V13.111H5Zm0-2.889H3.5V10.222H5ZM5,8.778H3.5V7.333H5ZM5,5.889H3.5V4.444H5Zm3,8.667H6.5V13.111H8Zm0-2.889H6.5V10.222H8ZM8,8.778H6.5V7.333H8ZM8,5.889H6.5V4.444H8Zm7.5,8.667h-6V13.111H11V11.667H9.5V10.222H11V8.778H9.5V7.333h6ZM14,8.778H12.5v1.444H14Zm0,2.889H12.5v1.444H14Z" transform="translate(0 0)" fill="#707070"/>
</svg>
