<svg xmlns="http://www.w3.org/2000/svg" width="11.694" height="11.528" viewBox="0 0 11.694 11.528">
  <g id="Grupo_725" data-name="Grupo 725" transform="translate(0)">
    <path id="Trazado_4568" data-name="Trazado 4568" d="M6.847,4.587A5.176,5.176,0,0,1,11.535,7.9a5.775,5.775,0,0,1-1.281,1.878l.749.849A7.173,7.173,0,0,0,12.694,7.9,6.356,6.356,0,0,0,6.847,3.383a5.628,5.628,0,0,0-1.935.343l.877.993A4.772,4.772,0,0,1,6.847,4.587Zm-.569.686,1.1,1.246a1.428,1.428,0,0,1,.68.771l1.1,1.246a3.17,3.17,0,0,0,.074-.644,2.556,2.556,0,0,0-2.387-2.7A2.008,2.008,0,0,0,6.278,5.273ZM1.537,3.3,2.961,4.918A7.064,7.064,0,0,0,1,7.9a6.356,6.356,0,0,0,5.847,4.515,5.6,5.6,0,0,0,2.3-.494l1.818,2.059.749-.849L2.286,2.45ZM5.523,7.82,6.911,9.391a.239.239,0,0,1-.064.012A1.426,1.426,0,0,1,5.518,7.9C5.518,7.868,5.523,7.85,5.523,7.82ZM3.716,5.773l.93,1.054A3.089,3.089,0,0,0,4.455,7.9a2.569,2.569,0,0,0,2.392,2.709,2.16,2.16,0,0,0,.941-.217l.521.59a4.941,4.941,0,0,1-1.462.229A5.176,5.176,0,0,1,2.159,7.9,5.854,5.854,0,0,1,3.716,5.773Z" transform="translate(-1 -2.45)" fill="#b2b3b5"/>
  </g>
</svg>
