<svg id="contratado" xmlns="http://www.w3.org/2000/svg" width="34.178" height="36.834" viewBox="0 0 34.178 36.834">
  <path id="Trazado_4388" data-name="Trazado 4388" d="M0,0H33.926V36.834H0Z" fill="none"/>
  <path id="Trazado_4389" data-name="Trazado 4389" d="M13.478,7.07a3.07,3.07,0,1,1-3.07,3.07,3.079,3.079,0,0,1,3.07-3.07m0,13.813c4.144,0,8.9,2,9.209,3.07v1.535H4.27V23.952c.307-1.074,5.065-3.07,9.209-3.07M13.478,4a6.139,6.139,0,1,0,6.139,6.139A6.06,6.06,0,0,0,13.478,4Zm0,13.813c-4.144,0-12.278,2-12.278,6.139v4.6H25.756v-4.6C25.756,19.808,17.622,17.813,13.478,17.813Z" transform="translate(0.642 2.139)" fill="#6b89ae"/>
  <rect id="Rect치ngulo_89" data-name="Rect치ngulo 89" width="11.971" height="3.07" transform="translate(23.543 17.577) rotate(-45)" fill="#6b89ae"/>
  <rect id="Rect치ngulo_90" data-name="Rect치ngulo 90" width="6.753" height="3.07" transform="translate(25.454 19.532) rotate(-135)" fill="#6b89ae"/>
</svg>
