<svg xmlns="http://www.w3.org/2000/svg" width="22.997" height="8.858" viewBox="0 0 22.997 8.858">
  <path id="Trazado_4659" data-name="Trazado 4659" d="M2116.623,1592.834l.128-.315-.979-.162-.032,0c-.284,0-.308,0-.367.089l-.013.022c-1.612,3.274-5.67,5.478-10.1,5.486h-.021c-4.421,0-8.48-2.19-10.1-5.45l-.065-.132-1.322.233.106.231a9.649,9.649,0,0,0,2.367,3.156l-1.066,1.577,1.076.728,1.009-1.493a12.4,12.4,0,0,0,1.486.9l-.778,1.713,1.182.537.778-1.712a14,14,0,0,0,1.791.575l-.383,1.856,1.272.262.384-1.862a14.757,14.757,0,0,0,1.613.161v1.977h1.3v-1.977a14.747,14.747,0,0,0,1.613-.161l.383,1.862,1.272-.262-.383-1.857a14.031,14.031,0,0,0,1.821-.588l.748,1.646,1.183-.537-.75-1.65a12.567,12.567,0,0,0,1.393-.842l.979,1.448,1.076-.728-1.031-1.526A9.67,9.67,0,0,0,2116.623,1592.834Z" transform="translate(-2093.754 -1592.354)" fill="#fff"/>
</svg>
