<svg width="56" height="56" xmlns="http://www.w3.org/2000/svg" xmlns:xlink="http://www.w3.org/1999/xlink" overflow="hidden"><defs><clipPath id="clip0"><rect x="648" y="188" width="56" height="56"/></clipPath><clipPath id="clip1"><rect x="649" y="189" width="54" height="54"/></clipPath><clipPath id="clip2"><rect x="649" y="189" width="54" height="45"/></clipPath><clipPath id="clip3"><rect x="649" y="177" width="54" height="57"/></clipPath><linearGradient x1="18.9254" y1="14.9999" x2="18.9254" y2="28.4439" gradientUnits="userSpaceOnUse" spreadMethod="pad" id="fill4"><stop offset="0" stop-color="#5DB64B"/><stop offset="0.23" stop-color="#4DA667"/><stop offset="0.72" stop-color="#247EAD"/><stop offset="1" stop-color="#0C66D8"/></linearGradient><linearGradient x1="14.8934" y1="3.99998" x2="14.8934" y2="24.2576" gradientUnits="userSpaceOnUse" spreadMethod="pad" id="fill5"><stop offset="0" stop-color="#5DB64B"/><stop offset="0.23" stop-color="#4DA667"/><stop offset="0.72" stop-color="#247EAD"/><stop offset="1" stop-color="#0C66D8"/></linearGradient><linearGradient x1="23.7309" y1="2.99999" x2="23.7309" y2="18.6809" gradientUnits="userSpaceOnUse" spreadMethod="pad" id="fill6"><stop offset="0" stop-color="#5DB64B"/><stop offset="0.23" stop-color="#4DA667"/><stop offset="0.72" stop-color="#247EAD"/><stop offset="1" stop-color="#0C66D8"/></linearGradient><linearGradient x1="20.5124" y1="9.99996" x2="20.5124" y2="21.2049" gradientUnits="userSpaceOnUse" spreadMethod="pad" id="fill7"><stop offset="0" stop-color="#5DB64B"/><stop offset="0.23" stop-color="#4DA667"/><stop offset="0.72" stop-color="#247EAD"/><stop offset="1" stop-color="#0C66D8"/></linearGradient></defs><g clip-path="url(#clip0)" transform="translate(-648 -188)"><g clip-path="url(#clip1)"><g clip-path="url(#clip2)"><g clip-path="url(#clip3)"><path d="M18.9249 14.9999C12.9429 14.9999 0.999996 17.9999 0.999996 23.9629L0.999996 28.4439 36.8508 28.4439 36.8508 23.9629C36.8508 17.9999 24.9079 14.9999 18.9249 14.9999ZM5.48098 23.9629C5.97397 22.3499 12.8979 19.4819 18.9249 19.4819 24.9749 19.4819 31.9249 22.3719 32.3689 23.9629Z" fill="url(#fill4)" transform="matrix(1 0 0 1 649.94 205.43)"/><path d="M5.34798 15.1999 5.93097 15.1999C5.87869 20.1498 9.84893 24.2048 14.7988 24.2571 19.7486 24.3093 23.8036 20.3391 23.8559 15.3893 23.8566 15.3262 23.8566 15.263 23.8559 15.1999L24.4389 15.1999C25.0464 15.1999 25.5389 14.7074 25.5389 14.0999L25.5389 14.0549C25.5389 13.4474 25.0464 12.9549 24.4389 12.9549L23.8559 12.9549C23.846 9.764 22.139 6.81937 19.3749 5.22498L19.3749 7.36097C19.3749 7.9798 18.8733 8.48146 18.2544 8.48146 17.6356 8.48146 17.1339 7.9798 17.1339 7.36097L17.1339 4.31398C16.4028 4.11715 15.65 4.01168 14.8929 3.99998 14.1358 4.01168 13.3831 4.11715 12.6519 4.31398L12.6519 7.36097C12.6519 7.9798 12.1503 8.48146 11.5314 8.48146 10.9126 8.48146 10.411 7.9798 10.411 7.36097L10.411 5.23198C7.64688 6.82637 5.93991 9.771 5.92997 12.9619L5.34798 12.9619C4.74047 12.9619 4.24798 13.4544 4.24798 14.0619L4.24798 14.1289C4.2637 14.7251 4.75161 15.2001 5.34798 15.1999ZM19.3749 15.1999C19.3749 17.675 17.3685 19.6814 14.8934 19.6814 12.4184 19.6814 10.412 17.675 10.412 15.1999Z" fill="url(#fill5)" transform="matrix(1 0 0 1 653.972 191.783)"/><path d="M29.2879 10.237 31.3719 8.37696 29.6909 5.46498 27.0249 6.33897C26.7029 6.0918 26.3486 5.88993 25.9719 5.73897L25.4109 2.99999 22.0499 2.99999 21.4899 5.73397C21.1083 5.88967 20.747 6.09115 20.4139 6.33397L17.7699 5.45998 16.0899 8.37796 18.1739 10.238C18.1291 10.625 18.1291 11.0159 18.1739 11.4029L16.0899 13.3029 17.7709 16.2159 20.4599 15.3649C20.7597 15.5859 21.0826 15.7736 21.4229 15.9249L22.0499 18.6809 25.4109 18.6809 26.0109 15.9469C26.3585 15.7958 26.689 15.6081 26.9969 15.3869L29.6629 16.2379 31.3439 13.3249 29.2599 11.4249C29.3136 11.0312 29.323 10.6328 29.2879 10.237ZM23.7309 13.6429C22.1845 13.6429 20.9309 12.3893 20.9309 10.843 20.9309 9.29656 22.1845 8.04296 23.7309 8.04296 25.2773 8.04296 26.5309 9.29656 26.5309 10.843 26.5309 12.3893 25.2773 13.6429 23.7309 13.6429Z" fill="url(#fill6)" transform="matrix(1 0 0 1 668.662 190.542)"/><path d="M24.7719 11.7699 22.8719 12.3969C22.6469 12.2208 22.3981 12.0773 22.1329 11.9709L21.7249 9.99996 19.3249 9.99996 18.9249 11.9489C18.6567 12.0639 18.4013 12.2067 18.1629 12.3749L16.2809 11.7479 15.0709 13.8319 16.5499 15.1539C16.5275 15.4298 16.5275 15.7071 16.5499 15.9829L15.0699 17.3489 16.2799 19.4329 18.2069 18.8329C18.4257 18.9876 18.6583 19.1215 18.9019 19.2329L19.3019 21.2049 21.7019 21.2049 22.1279 19.2559C22.3785 19.1446 22.6185 19.0107 22.8449 18.8559L24.7449 19.4559 25.9549 17.3719 24.4759 16.0049C24.4983 15.729 24.4983 15.4518 24.4759 15.1759L25.9549 13.8539ZM20.5149 17.5999C19.4137 17.5999 18.5209 16.7072 18.5209 15.6059 18.5209 14.5047 19.4137 13.6119 20.5149 13.6119 21.6138 13.6119 22.5056 14.501 22.5089 15.5999 22.5089 16.7022 21.6171 17.5966 20.5149 17.5999Z" fill="url(#fill7)" transform="matrix(1 0 0 1 667.396 199.227)"/></g></g></g></g></svg>