<svg id="Group_212" data-name="Group 212" xmlns="http://www.w3.org/2000/svg" width="29.445" height="29.445" viewBox="0 0 29.445 29.445">
  <path id="Path_280" data-name="Path 280" d="M292.411,301.952a1.726,1.726,0,1,0,1.726,1.726A1.726,1.726,0,0,0,292.411,301.952Z" transform="translate(-269.893 -296.694)" fill="#fff"/>
  <path id="Path_281" data-name="Path 281" d="M284.736,304.166a7.251,7.251,0,1,0,7.251,7.251,7.251,7.251,0,0,0-7.251-7.251Zm0,11.9a4.645,4.645,0,1,1,4.645-4.645,4.645,4.645,0,0,1-4.645,4.645Z" transform="translate(-269.893 -296.694)" fill="#fff"/>
  <path id="Path_282" data-name="Path 282" d="M290.493,326.139H278.737a8.853,8.853,0,0,1-8.844-8.844V305.539a8.854,8.854,0,0,1,8.844-8.845h11.756a8.855,8.855,0,0,1,8.845,8.845V317.3a8.854,8.854,0,0,1-8.845,8.839Zm-11.756-26.674a6.081,6.081,0,0,0-6.074,6.074V317.3a6.081,6.081,0,0,0,6.074,6.074h11.756a6.081,6.081,0,0,0,6.074-6.074V305.539a6.08,6.08,0,0,0-6.074-6.074Z" transform="translate(-269.893 -296.694)" fill="#fff"/>
</svg>
