<svg xmlns="http://www.w3.org/2000/svg" width="29.685" height="29.685" viewBox="0 0 29.685 29.685">
  <g id="instagram_2_" data-name="instagram (2)" transform="translate(0)">
    <path id="Trazado_24" data-name="Trazado 24" d="M14.843,8.813A6.088,6.088,0,1,0,20.931,14.9,6.095,6.095,0,0,0,14.843,8.813Zm0,0A6.088,6.088,0,1,0,20.931,14.9,6.095,6.095,0,0,0,14.843,8.813ZM25.337,0H4.348A4.35,4.35,0,0,0,0,4.348V25.337a4.35,4.35,0,0,0,4.348,4.348H25.337a4.35,4.35,0,0,0,4.348-4.348V4.348A4.35,4.35,0,0,0,25.337,0ZM14.843,22.728A7.827,7.827,0,1,1,22.67,14.9,7.839,7.839,0,0,1,14.843,22.728ZM24.409,7.073a1.739,1.739,0,1,1,1.739-1.739A1.744,1.744,0,0,1,24.409,7.073ZM14.843,8.813A6.088,6.088,0,1,0,20.931,14.9,6.095,6.095,0,0,0,14.843,8.813Zm0,0A6.088,6.088,0,1,0,20.931,14.9,6.095,6.095,0,0,0,14.843,8.813Zm0,0A6.088,6.088,0,1,0,20.931,14.9,6.095,6.095,0,0,0,14.843,8.813Z" transform="translate(0)" fill="#1c4a83"/>
  </g>
</svg>
