<svg xmlns="http://www.w3.org/2000/svg" width="29.569" height="29.569" viewBox="0 0 29.569 29.569">
  <g id="linkedin-logo" transform="translate(0)">
    <g id="post-linkedin" transform="translate(0 0)">
      <path id="Trazado_25" data-name="Trazado 25" d="M26.612,0H2.957A2.966,2.966,0,0,0,0,2.957V26.613a2.966,2.966,0,0,0,2.957,2.957H26.612a2.966,2.966,0,0,0,2.957-2.957V2.957A2.966,2.966,0,0,0,26.612,0ZM8.871,25.134H4.435V11.828H8.871ZM6.653,9.314A2.661,2.661,0,1,1,9.314,6.653,2.65,2.65,0,0,1,6.653,9.314Zm18.481,15.82H20.7V17.3a2.218,2.218,0,1,0-4.435,0v7.836H11.828V11.828h4.435V13.6a4.776,4.776,0,0,1,3.7-2.07,5.238,5.238,0,0,1,5.175,5.175Z" transform="translate(0 0)" fill="#1c4a83"/>
    </g>
  </g>
</svg>
