<?xml version="1.0" encoding="utf-8"?>
<!-- Generator: Adobe Illustrator 24.1.3, SVG Export Plug-In . SVG Version: 6.00 Build 0)  -->
<svg version="1.1" id="Layer_1" xmlns="http://www.w3.org/2000/svg" xmlns:xlink="http://www.w3.org/1999/xlink" x="0px" y="0px"
	 viewBox="0 0 29.6 29.6" style="enable-background:new 0 0 29.6 29.6;" xml:space="preserve">
<style type="text/css">
	.st0{fill:#1C4A83;}
	.st1{fill:#FFFFFF;}
</style>
<g id="twitter-sign" transform="translate(0)">
	<path id="Trazado_26" class="st0" d="M27.9,1.7C26.9,0.6,25.5,0,24,0H5.6C4.1,0,2.7,0.6,1.7,1.7C0.6,2.7,0,4.1,0,5.6V24
		c0,1.5,0.6,2.9,1.6,3.9c1,1.1,2.4,1.6,3.9,1.6H24c3.1,0,5.5-2.5,5.5-5.5V5.6C29.6,4.1,29,2.7,27.9,1.7z"/>
	<path id="Trazado_4632" class="st1" d="M19.6,19.1c-0.7,0-1.4,0.3-2,0.8l-7.1-4.1c0.1-0.2,0.1-0.5,0.1-0.7c0-0.2,0-0.5-0.1-0.7
		l7-4.1c1.2,1.1,3.1,1,4.2-0.2c1.1-1.2,1-3.1-0.2-4.2c-1.2-1.1-3.1-1-4.2,0.2c-0.5,0.6-0.8,1.3-0.8,2c0,0.2,0,0.5,0.1,0.7l-7,4.1
		c-1.2-1.1-3.1-1.1-4.2,0.1s-1.1,3.1,0.1,4.2c1.2,1.1,2.9,1.1,4.1,0l7.1,4.2c-0.1,0.2-0.1,0.4-0.1,0.6c0,1.6,1.3,2.9,2.9,2.9
		c1.6,0,2.9-1.3,2.9-2.9S21.2,19.1,19.6,19.1L19.6,19.1z M19.6,7c0.6,0,1,0.4,1,1s-0.4,1-1,1s-1-0.4-1-1S19,7,19.6,7z M7.6,16
		c-0.6,0-1-0.4-1-1s0.4-1,1-1c0.6,0,1,0.4,1,1S8.1,16,7.6,16z M19.6,23c-0.6,0-1-0.4-1-1c0-0.6,0.4-1,1-1s1,0.4,1,1
		C20.6,22.6,20.1,23,19.6,23z"/>
</g>
</svg>
