<svg xmlns="http://www.w3.org/2000/svg" width="276" height="34.196" viewBox="0 0 276 34.196">
  <g id="Group_150" data-name="Group 150" transform="translate(-509 -485)">
    <g id="Group_149" data-name="Group 149" transform="translate(509 485)">
      <path id="Path_194" data-name="Path 194" d="M69.467,523.55c-8.841,4.309-18.79-4.417-14.907-13.813,2.6-7.219,13.412-8.855,18.212-3.112L69.2,510.467c-3.286-4.181-9.875-2.142-9.683,3.343-.269,5.655,6.428,7.625,9.951,3.573l3.419,3.458a13.127,13.127,0,0,1-3.418,2.709Z" transform="translate(-53.695 -496.097)" fill="#1c4a83"/>
      <path id="Path_195" data-name="Path 195" d="M137.92,524.262v-2.228c-2.1,2.462-5.84,3.176-8.972,2.209-9.178-4.062-3.251-16.131,9.01-11.7.338-5.476-6.712-4.392-10.105-3l-1.46-4.457c18.485-6.243,17.619,5.027,17.175,19.173Zm.115-8.3c-3.112-1.774-10.424-.467-6.877,4,2.909,1.853,7.661-.229,6.877-4Z" transform="translate(-102.861 -496.215)" fill="#1c4a83"/>
      <path id="Path_196" data-name="Path 196" d="M224.3,518.187c-1.994,6.3-11.008,8.323-15,3.041v8.813h-5.84V503.3h5.84v2.933C217.271,496.932,228.515,508.4,224.3,518.187Zm-5.052-4.63c.073-7.574-10.21-7.51-10.028.077-.1,7.6,10.206,7.484,10.027-.077Z" transform="translate(-157.715 -495.844)" fill="#1c4a83"/>
      <path id="Path_197" data-name="Path 197" d="M288.745,485.226v-5.187h6.147v5.187Zm.154,22.861V487.493h5.84v20.594Z" transform="translate(-216.955 -480.039)" fill="#1c4a83"/>
      <path id="Path_198" data-name="Path 198" d="M332.478,513.087c-11.28,2.662-8.153-8.786-8.569-15.62h-2.46v-4.995h2.46v-5.264h5.844v5.264h4.841v4.995h-4.841v8.8c-.112,2.752,3.172,2.145,4.764,1.268v4.688A9.1,9.1,0,0,1,332.478,513.087Z" transform="translate(-239.671 -485.019)" fill="#1c4a83"/>
      <path id="Path_199" data-name="Path 199" d="M387.5,524.262v-2.228c-2.1,2.462-5.84,3.176-8.972,2.209-9.178-4.062-3.251-16.131,9.01-11.7.338-5.476-6.713-4.392-10.105-3l-1.461-4.457c18.485-6.243,17.619,5.027,17.175,19.173Zm.115-8.3c-3.112-1.774-10.424-.467-6.877,4,2.91,1.853,7.661-.229,6.878-4Z" transform="translate(-276.213 -496.215)" fill="#1c4a83"/>
      <path id="Path_200" data-name="Path 200" d="M453.916,508.087V480.039h5.84v28.048Z" transform="translate(-331.678 -480.039)" fill="#1c4a83"/>
      <path id="Path_201" data-name="Path 201" d="M507.745,515.054q-.02.308-.057.73H493.356c.838,4.874,7.07,5.079,10.028,1.921l3.343,2.962c-8.05,9.239-22.946.816-18.423-11.027C493.168,498.14,509.041,502.683,507.745,515.054Zm-7.051-6.09c-2.66-2.741-7.162-.573-7.415,3.17h8.8a5.692,5.692,0,0,0-1.384-3.17Z" transform="translate(-354.982 -495.997)" fill="#68b744"/>
      <path id="Path_202" data-name="Path 202" d="M593.728,524.163V512.7a4.759,4.759,0,0,0-.884-3.124,3.125,3.125,0,0,0-2.536-1.054,3.3,3.3,0,0,0-2.593,1.054,4.555,4.555,0,0,0-.942,3.124v11.46h-5.84V512.7a4.758,4.758,0,0,0-.883-3.124,3.126,3.126,0,0,0-2.536-1.054,3.3,3.3,0,0,0-2.593,1.054,4.555,4.555,0,0,0-.942,3.124v11.46h-5.84V503.569h5.84v2.944a12.48,12.48,0,0,1,1.1-1.257,7.653,7.653,0,0,1,1.326-1.064,6.513,6.513,0,0,1,1.633-.735,7.007,7.007,0,0,1,2.017-.269,6.935,6.935,0,0,1,3.515.851,5.746,5.746,0,0,1,2.286,2.438,9.382,9.382,0,0,1,3-2.457,8.253,8.253,0,0,1,3.766-.832,6.752,6.752,0,0,1,5.11,1.921,7.856,7.856,0,0,1,1.844,5.648v13.409Z" transform="translate(-411.014 -496.116)" fill="#68b744"/>
      <path id="Path_203" data-name="Path 203" d="M708.492,518.459a10.42,10.42,0,0,1-2.075,3.343,8.464,8.464,0,0,1-2.978,2.056,9.248,9.248,0,0,1-3.535.692,7.379,7.379,0,0,1-3.86-.916,10.275,10.275,0,0,1-2.555-2.135v8.809h-5.84V503.57h5.84V506.5a9.233,9.233,0,0,1,2.593-2.382,7.181,7.181,0,0,1,3.823-.934,9.149,9.149,0,0,1,3.5.692,8.663,8.663,0,0,1,3,2.056,10.265,10.265,0,0,1,2.093,3.343,12.256,12.256,0,0,1,.787,4.553v.077A12.248,12.248,0,0,1,708.492,518.459Zm-5.052-4.63a6.552,6.552,0,0,0-.4-2.34,5.588,5.588,0,0,0-1.1-1.818,4.848,4.848,0,0,0-1.594-1.161,4.7,4.7,0,0,0-5.456,1.161,5.777,5.777,0,0,0-1.077,1.818,6.552,6.552,0,0,0-.4,2.34v.077a6.552,6.552,0,0,0,.4,2.34,5.782,5.782,0,0,0,1.077,1.818,4.765,4.765,0,0,0,5.456,1.161,4.848,4.848,0,0,0,1.594-1.161,5.64,5.64,0,0,0,1.1-1.8,6.512,6.512,0,0,0,.4-2.36Z" transform="translate(-494.022 -496.116)" fill="#68b744"/>
      <path id="Path_204" data-name="Path 204" d="M773.441,508.087V480.039h5.84v28.048Z" transform="translate(-553.612 -480.039)" fill="#68b744"/>
      <path id="Path_205" data-name="Path 205" d="M827.47,515.174q-.021.308-.057.73H813.081a4.915,4.915,0,0,0,1.749,3.016,5.229,5.229,0,0,0,3.285,1.019,6.513,6.513,0,0,0,2.613-.5,8.892,8.892,0,0,0,2.383-1.616l3.343,2.962a10.366,10.366,0,0,1-3.535,2.824,10.965,10.965,0,0,1-4.88,1.018,11.736,11.736,0,0,1-4.284-.768,9.908,9.908,0,0,1-3.419-2.189,10.124,10.124,0,0,1-2.244-3.362,11.151,11.151,0,0,1-.808-4.322v-.076a11.52,11.52,0,0,1,.75-4.15,10.545,10.545,0,0,1,2.094-3.419,9.767,9.767,0,0,1,7.339-3.151,10.037,10.037,0,0,1,4.457.922,9.067,9.067,0,0,1,3.131,2.478,10.323,10.323,0,0,1,1.845,3.573,14.8,14.8,0,0,1,.6,4.207v.076Q827.489,514.869,827.47,515.174Zm-7.05-6.09a3.829,3.829,0,0,0-2.962-1.21,3.923,3.923,0,0,0-2.978,1.191,5.981,5.981,0,0,0-1.479,3.19h8.8a5.687,5.687,0,0,0-1.378-3.171Z" transform="translate(-577.116 -496.117)" fill="#68b744"/>
      <path id="Path_206" data-name="Path 206" d="M905.833,518.075a10.632,10.632,0,0,1-2.344,3.4,11.1,11.1,0,0,1-3.535,2.305,11.521,11.521,0,0,1-4.457.846,11.645,11.645,0,0,1-4.418-.826,10.777,10.777,0,0,1-3.516-2.267,10.541,10.541,0,0,1-2.325-3.381,10.316,10.316,0,0,1-.845-4.169v-.076a10.322,10.322,0,0,1,.845-4.169,10.625,10.625,0,0,1,2.344-3.4,11.109,11.109,0,0,1,3.535-2.305,11.516,11.516,0,0,1,4.457-.846,11.651,11.651,0,0,1,4.418.826,10.8,10.8,0,0,1,3.516,2.267,10.574,10.574,0,0,1,2.324,3.381,10.338,10.338,0,0,1,.845,4.169v.077a10.332,10.332,0,0,1-.844,4.168Zm-4.918-4.169a6.106,6.106,0,0,0-.384-2.172,5.454,5.454,0,0,0-2.843-3.052,5.164,5.164,0,0,0-2.19-.461,5.424,5.424,0,0,0-2.244.443,4.969,4.969,0,0,0-1.671,1.21,5.344,5.344,0,0,0-1.057,1.786,6.377,6.377,0,0,0-.365,2.171v.077a6.087,6.087,0,0,0,.384,2.171,5.508,5.508,0,0,0,2.824,3.052,5.116,5.116,0,0,0,2.209.461,5.421,5.421,0,0,0,2.244-.442,4.956,4.956,0,0,0,1.672-1.21,5.329,5.329,0,0,0,1.057-1.786,6.388,6.388,0,0,0,.365-2.171Z" transform="translate(-630.677 -496.117)" fill="#68b744"/>
    </g>
  </g>
</svg>
