<svg id="Group_149" data-name="Group 149" xmlns="http://www.w3.org/2000/svg" width="172.031" height="21.314" viewBox="0 0 172.031 21.314">
  <path id="Path_194" data-name="Path 194" d="M63.525,515.868c-5.511,2.687-11.711-2.753-9.292-8.609,1.621-4.5,8.36-5.519,11.351-1.94l-2.227,2.395a3.323,3.323,0,0,0-6.035,2.084c-.166,3.525,4.007,4.753,6.2,2.227l2.131,2.155a8.18,8.18,0,0,1-2.128,1.688Z" transform="translate(-53.695 -498.757)" fill="#fff"/>
  <path id="Path_195" data-name="Path 195" d="M132.857,516.376v-1.389a5.377,5.377,0,0,1-5.592,1.377c-5.72-2.532-2.026-10.054,5.616-7.292.211-3.414-4.184-2.738-6.3-1.868l-.91-2.778c11.522-3.891,10.982,3.134,10.7,11.95Zm.072-5.173c-1.94-1.106-6.5-.291-4.287,2.491,1.814,1.155,4.775-.141,4.287-2.494Z" transform="translate(-111.005 -498.894)" fill="#fff"/>
  <path id="Path_196" data-name="Path 196" d="M216.447,512.388c-1.243,3.924-6.861,5.187-9.352,1.9v5.493h-3.64V503.108h3.64v1.828C212.067,499.14,219.075,506.285,216.447,512.388ZM213.3,509.5c.045-4.721-6.364-4.681-6.251.048C206.988,514.287,213.409,514.215,213.3,509.5Z" transform="translate(-174.945 -498.462)" fill="#fff"/>
  <path id="Path_197" data-name="Path 197" d="M288.745,483.272v-3.233h3.832v3.233Zm.1,14.249V484.685h3.64v12.836Z" transform="translate(-243.998 -480.039)" fill="#fff"/>
  <path id="Path_198" data-name="Path 198" d="M328.324,503.339c-7.031,1.659-5.082-5.476-5.34-9.735h-1.533V490.49h1.533v-3.281h3.64v3.281h3.018v3.11h-3.018v5.484c-.07,1.716,1.977,1.337,2.97.79V502.8A5.67,5.67,0,0,1,328.324,503.339Z" transform="translate(-270.478 -485.844)" fill="#fff"/>
  <path id="Path_199" data-name="Path 199" d="M382.438,516.376v-1.389a5.377,5.377,0,0,1-5.592,1.377c-5.72-2.532-2.026-10.054,5.616-7.292.211-3.414-4.184-2.738-6.3-1.868l-.91-2.778c11.522-3.891,10.982,3.134,10.7,11.95Zm.072-5.173c-1.94-1.106-6.5-.291-4.287,2.491,1.814,1.155,4.777-.141,4.287-2.494Z" transform="translate(-313.073 -498.894)" fill="#fff"/>
  <path id="Path_200" data-name="Path 200" d="M453.916,497.521V480.039h3.64v17.482Z" transform="translate(-377.726 -480.039)" fill="#fff"/>
  <path id="Path_201" data-name="Path 201" d="M500.106,510.518q-.012.192-.036.455h-8.933c.522,3.039,4.407,3.166,6.251,1.2l2.083,1.844c-5.017,5.759-14.3.509-11.483-6.873C491.021,499.976,500.912,502.808,500.106,510.518Zm-4.395-3.8c-1.658-1.708-4.464-.357-4.622,1.976h5.484a3.548,3.548,0,0,0-.861-1.971Z" transform="translate(-404.889 -498.64)" fill="#68b744"/>
  <path id="Path_202" data-name="Path 202" d="M584.089,516.262v-7.143a2.967,2.967,0,0,0-.551-1.947,1.947,1.947,0,0,0-1.58-.657,2.056,2.056,0,0,0-1.617.657,2.839,2.839,0,0,0-.587,1.947v7.143h-3.64v-7.143a2.968,2.968,0,0,0-.551-1.947,1.948,1.948,0,0,0-1.581-.657,2.057,2.057,0,0,0-1.617.657,2.839,2.839,0,0,0-.587,1.947v7.143h-3.64V503.426h3.64v1.835a7.776,7.776,0,0,1,.683-.784,4.769,4.769,0,0,1,.826-.663,4.055,4.055,0,0,1,1.018-.458,4.369,4.369,0,0,1,1.257-.169,4.322,4.322,0,0,1,2.191.531,3.583,3.583,0,0,1,1.425,1.52,5.848,5.848,0,0,1,1.868-1.532,5.145,5.145,0,0,1,2.347-.519,4.208,4.208,0,0,1,3.185,1.2,4.9,4.9,0,0,1,1.149,3.521v8.358Z" transform="translate(-470.204 -498.78)" fill="#68b744"/>
  <path id="Path_203" data-name="Path 203" d="M700.639,512.705a6.494,6.494,0,0,1-1.293,2.084,5.274,5.274,0,0,1-1.856,1.281,5.765,5.765,0,0,1-2.2.431,4.6,4.6,0,0,1-2.407-.57,6.4,6.4,0,0,1-1.592-1.331v5.493h-3.64V503.426h3.64v1.828a5.755,5.755,0,0,1,1.616-1.485,4.475,4.475,0,0,1,2.383-.582,5.7,5.7,0,0,1,2.179.431,5.4,5.4,0,0,1,1.868,1.281,6.4,6.4,0,0,1,1.305,2.083,7.637,7.637,0,0,1,.491,2.838v.048a7.633,7.633,0,0,1-.494,2.837Zm-3.149-2.886a4.083,4.083,0,0,0-.251-1.458,3.484,3.484,0,0,0-.682-1.133,3.019,3.019,0,0,0-.994-.723,2.931,2.931,0,0,0-3.4.723,3.6,3.6,0,0,0-.671,1.133,4.084,4.084,0,0,0-.251,1.458v.048a4.085,4.085,0,0,0,.251,1.459,3.6,3.6,0,0,0,.671,1.133,2.97,2.97,0,0,0,3.4.723,3.021,3.021,0,0,0,.994-.723,3.512,3.512,0,0,0,.682-1.121,4.062,4.062,0,0,0,.251-1.471Z" transform="translate(-566.961 -498.78)" fill="#68b744"/>
  <path id="Path_204" data-name="Path 204" d="M773.441,497.521V480.039h3.64v17.482Z" transform="translate(-636.422 -480.039)" fill="#68b744"/>
  <path id="Path_205" data-name="Path 205" d="M819.864,510.658q-.013.192-.036.455H810.9a3.064,3.064,0,0,0,1.09,1.88,3.259,3.259,0,0,0,2.047.635,4.06,4.06,0,0,0,1.629-.311,5.541,5.541,0,0,0,1.485-1.006l2.084,1.844a6.463,6.463,0,0,1-2.2,1.76,6.836,6.836,0,0,1-3.041.635,7.314,7.314,0,0,1-2.67-.479,6.177,6.177,0,0,1-2.131-1.365,6.31,6.31,0,0,1-1.4-2.1,6.95,6.95,0,0,1-.5-2.694v-.048a7.181,7.181,0,0,1,.467-2.587,6.574,6.574,0,0,1,1.3-2.131,6.087,6.087,0,0,1,4.574-1.964,6.255,6.255,0,0,1,2.778.575,5.651,5.651,0,0,1,1.952,1.545,6.436,6.436,0,0,1,1.15,2.227,9.22,9.22,0,0,1,.371,2.623v.048Q819.876,510.467,819.864,510.658Zm-4.4-3.8a2.386,2.386,0,0,0-1.844-.754,2.445,2.445,0,0,0-1.856.742,3.728,3.728,0,0,0-.922,1.988h5.484a3.545,3.545,0,0,0-.862-1.972Z" transform="translate(-663.819 -498.78)" fill="#68b744"/>
  <path id="Path_206" data-name="Path 206" d="M897.756,512.466a6.629,6.629,0,0,1-1.461,2.119,6.919,6.919,0,0,1-2.2,1.437,7.179,7.179,0,0,1-2.778.527,7.256,7.256,0,0,1-2.754-.515,6.717,6.717,0,0,1-2.191-1.413,6.573,6.573,0,0,1-1.449-2.107,6.432,6.432,0,0,1-.527-2.6v-.048a6.432,6.432,0,0,1,.527-2.6,6.624,6.624,0,0,1,1.461-2.119,6.924,6.924,0,0,1,2.2-1.437,7.18,7.18,0,0,1,2.778-.527,7.263,7.263,0,0,1,2.754.515,6.734,6.734,0,0,1,2.191,1.413,6.59,6.59,0,0,1,1.449,2.107,6.443,6.443,0,0,1,.527,2.6v.048A6.439,6.439,0,0,1,897.756,512.466Zm-3.066-2.6a3.8,3.8,0,0,0-.239-1.353,3.4,3.4,0,0,0-1.772-1.9,3.218,3.218,0,0,0-1.365-.288,3.381,3.381,0,0,0-1.4.276,3.1,3.1,0,0,0-1.042.754,3.33,3.33,0,0,0-.659,1.114,3.975,3.975,0,0,0-.227,1.353v.048a3.793,3.793,0,0,0,.24,1.353,3.433,3.433,0,0,0,1.76,1.9,3.191,3.191,0,0,0,1.377.288,3.379,3.379,0,0,0,1.4-.275,3.09,3.09,0,0,0,1.042-.755,3.322,3.322,0,0,0,.659-1.114,3.985,3.985,0,0,0,.227-1.353Z" transform="translate(-726.252 -498.78)" fill="#68b744"/>
</svg>
