<?xml version="1.0" encoding="utf-8"?>
<!-- Generator: Adobe Illustrator 24.1.3, SVG Export Plug-In . SVG Version: 6.00 Build 0)  -->
<svg version="1.1" id="Layer_1" xmlns="http://www.w3.org/2000/svg" xmlns:xlink="http://www.w3.org/1999/xlink" x="0px" y="0px"
	 viewBox="0 0 20 20" style="enable-background:new 0 0 20 20;" xml:space="preserve">
<style type="text/css">
	.st0{fill:#707070;}
</style>
<g id="Trazado_298">
	<path class="st0" d="M11.1,17H3.7c-0.3,0-0.5-0.2-0.5-0.5v-13C3.2,3.2,3.4,3,3.7,3h7.4c0.3,0,0.5,0.2,0.5,0.5S11.4,4,11.1,4H4.2v12
		h6.9c0.3,0,0.5,0.2,0.5,0.5S11.4,17,11.1,17z"/>
</g>
<g id="Trazado_299">
	<path class="st0" d="M16,10.5H8c-0.3,0-0.5-0.2-0.5-0.5S7.7,9.5,8,9.5h8c0.3,0,0.5,0.2,0.5,0.5S16.2,10.5,16,10.5z"/>
</g>
<g id="Trazado_300">
	<path class="st0" d="M13.5,12.9c-0.1,0-0.3-0.1-0.4-0.2c-0.2-0.2-0.2-0.5,0.1-0.7l2.3-2l-2.3-2c-0.2-0.2-0.2-0.5-0.1-0.7
		s0.5-0.2,0.7-0.1l2.7,2.4c0.1,0.1,0.2,0.2,0.2,0.4s-0.1,0.3-0.2,0.4l-2.7,2.3C13.7,12.8,13.6,12.9,13.5,12.9z"/>
</g>
</svg>
