<svg id="Grupo_898" data-name="Grupo 898" xmlns="http://www.w3.org/2000/svg" width="73.179" height="43.223" viewBox="0 0 73.179 43.223">
  <path id="Trazado_4657" data-name="Trazado 4657" d="M1822.854,1562.538a33.459,33.459,0,0,0-14.353-14.39,44.638,44.638,0,0,0-21.272-5.262h-.065a44.644,44.644,0,0,0-21.236,5.283,33.445,33.445,0,0,0-14.324,14.369l-.964,1.96.965,1.959a33.458,33.458,0,0,0,14.352,14.391,44.652,44.652,0,0,0,21.272,5.261h.065a44.646,44.646,0,0,0,21.235-5.282,33.479,33.479,0,0,0,14.324-14.368l.966-1.96Zm-30.893,13.6-.031.012a12.626,12.626,0,0,1-8.808.223l-.081-.027c-.13-.046-.259-.1-.385-.146l-.076-.029c-.053-.021-.107-.042-.16-.064l-.151-.065-.08-.034c-.126-.057-.253-.111-.382-.173l-.073-.036a12.626,12.626,0,0,1-6.066-6.378l-.024-.054c-.06-.142-.114-.286-.168-.429l-.027-.069c-.015-.038-.029-.077-.044-.118-.027-.074-.053-.15-.077-.226l-.042-.124c-.03-.091-.059-.182-.088-.275l-.046-.163c-.044-.153-.087-.307-.125-.463l-.006-.029a12.614,12.614,0,0,1,.342-7.111l.008-.023,0-.007c.021-.061.045-.122.068-.182l.081-.211c.023-.065.047-.129.077-.2l.039-.09c.052-.126.106-.251.16-.37s.116-.246.189-.388c.135-.273.288-.555.463-.854a12.59,12.59,0,0,1,.741-1.1l.19-.24c.2-.255.408-.5.612-.719l.159-.173.192-.2q.312-.311.663-.613l.465-.375c.24-.194.487-.376.738-.546.114-.078.229-.15.346-.223l.055-.036c.126-.076.252-.152.382-.225l.013-.008c.117-.067.236-.134.353-.2.147-.077.295-.152.451-.228l-.308-.643h.009l.324.633c.175-.082.349-.161.538-.24.277-.119.556-.223.871-.324.293-.1.6-.191.941-.278l.236-.06c.3-.068.6-.126.908-.173l.451-.051c.324-.038.64-.063.94-.076l.37-.015c.317-.007.635,0,.962.026l.677.072c.307.033.611.078.907.136s.581.124.906.212c.241.065.492.141.734.223l.043.015c.194.066.4.143.642.241l.119.047c.187.078.388.168.609.274.128.062.253.129.383.2.069.036.139.073.2.109q.22.12.435.25l.087.053a12.6,12.6,0,0,1,1.386.988l.054.044a12.767,12.767,0,0,1,3.322,4.242c.072.15.139.3.205.455l.062.142c.047.112.09.225.137.348l.021.055c.025.067.051.134.077.2.018.051.035.1.053.154l.034.1c.039.119.079.238.114.354l.037.132c.047.163.091.324.131.485l.006.027a12.728,12.728,0,0,1,0,5.942l-.01.042c-.038.156-.081.311-.125.463l-.045.155c-.032.11-.069.219-.1.327l-.033.1c-.021.063-.042.126-.066.194s-.041.112-.063.167l-.025.066c-.048.125-.095.249-.148.374l-.05.116c-.065.15-.131.3-.2.447l-.017.033a12.614,12.614,0,0,1-4.8,5.291l-.024.016c-.137.083-.276.161-.413.237l-.152.084c-.088.049-.179.093-.27.139l-.089.045-.229.113-.181.081C1792.261,1576.014,1792.121,1576.076,1791.961,1576.142Zm-36.377-11.644c4.413-8.962,14.553-15.335,26.31-16.836l0,0a17.679,17.679,0,0,0-1.821.694l-.25.114c-.179.083-.357.17-.53.257-.215.108-.427.221-.64.34l-.167.094a17.485,17.485,0,0,0-5.374,4.736l-.021-.007-.458.677a17.616,17.616,0,0,0-1.293,2.24l-.016.031c-.062.129-.124.259-.18.384-.089.2-.176.394-.26.6l-.03.074a17.484,17.484,0,0,0-1.281,6.6,17.662,17.662,0,0,0,.481,4.085l.03.125c.057.233.12.463.187.7l.053.183c.052.172.108.341.169.525.039.115.077.231.119.348.033.094.069.186.1.279l.016.042c.069.182.139.362.214.542l.058.132a17.6,17.6,0,0,0,8.489,8.917l.134.066c.172.081.346.159.518.234l.026.012c.1.045.2.089.307.133l.269.107.063.024c.177.069.355.138.541.2l.13.045c.147.05.3.1.444.143C1770.149,1579.846,1760,1573.476,1755.584,1564.5Zm36.958,16.838c.417-.132.832-.275,1.242-.44l.141-.055c.179-.074.355-.152.531-.231l.065-.029c.083-.036.165-.074.251-.114s.2-.1.3-.146l.046-.023c.16-.08.319-.16.477-.245l.117-.064.051-.03q.314-.172.621-.357l.5-.3v-.012a17.612,17.612,0,0,0,6.251-7.114l.017-.034c.1-.211.2-.422.288-.637l.086-.2c.068-.163.132-.328.193-.49l.013-.033c.042-.109.084-.219.125-.333.035-.1.068-.2.1-.3l.015-.044c.059-.173.116-.347.169-.524.013-.043.025-.086.037-.129l.016-.059c.065-.225.127-.45.184-.684l.008-.036a17.611,17.611,0,0,0,0-8.361l-.011-.043c-.057-.231-.119-.46-.184-.682l-.046-.165c-.056-.185-.117-.369-.178-.552l-.021-.063c-.028-.083-.056-.166-.087-.253-.042-.118-.088-.236-.132-.353l-.013-.034c-.059-.155-.119-.31-.185-.468l-.1-.221c-.088-.2-.179-.409-.277-.612l-.03-.06a17.63,17.63,0,0,0-7.677-7.939l.181-.06-.243.027q-.247-.128-.5-.249l-.072-.033c-.188-.09-.379-.175-.568-.257-.127-.055-.254-.107-.385-.161l-.212-.083c-.376-.148-.758-.278-1.14-.4,11.783,1.485,21.94,7.858,26.365,16.844C1814.456,1573.465,1804.307,1579.84,1792.541,1581.336Z" transform="translate(-1750.64 -1542.886)" fill="#1c4a83"/>
</svg>
