<svg width="46" height="39" xmlns="http://www.w3.org/2000/svg" xmlns:xlink="http://www.w3.org/1999/xlink" overflow="hidden"><defs><clipPath id="clip0"><rect x="332" y="158" width="46" height="39"/></clipPath><clipPath id="clip1"><rect x="332" y="158" width="45" height="39"/></clipPath><clipPath id="clip2"><rect x="332" y="158" width="45" height="39"/></clipPath></defs><g clip-path="url(#clip0)" transform="translate(-332 -158)"><g clip-path="url(#clip1)"><g clip-path="url(#clip2)"><path d="M40.7761 11.8752C40.3307 11.8752 39.9696 12.2363 39.9696 12.6817L39.9696 15.582C39.9678 17.2454 38.6198 18.5934 36.9564 18.5951L32.327 18.5951C32.1116 18.5943 31.9048 18.6797 31.7527 18.8323L26.1393 24.4457 26.1393 19.4065C26.1393 18.9611 25.7783 18.6 25.3328 18.6L13.6915 18.6C12.0262 18.5982 10.6774 17.2473 10.6783 15.582L10.6783 3.29383C10.681 1.63108 12.0287 0.284059 13.6915 0.282282L36.9516 0.282282C38.615 0.28406 39.963 1.63206 39.9647 3.29544L39.9647 12.7172C39.9647 13.1658 40.3283 13.5294 40.7769 13.5294 41.2254 13.5294 41.5891 13.1658 41.5891 12.7172L41.5891 3.29383C41.5855 0.734349 39.5111-1.33939 36.9516-1.34205L13.6915-1.34205C11.132-1.33939 9.05756 0.734349 9.054 3.29383L9.054 13.7302 3.14221 13.7302C1.40755 13.732 0.00177815 15.1378-7.38392e-08 16.8724L0 24.3569C0.00177822 26.0916 1.40755 27.4974 3.14221 27.4991L5.62629 27.4991 9.6589 31.5317C9.96794 31.8525 10.4785 31.862 10.7993 31.553 10.9608 31.3974 11.0502 31.1817 11.0461 30.9575L11.0461 27.5056 17.3176 27.5056C19.0523 27.5003 20.4552 26.0916 20.4534 24.3569L20.4534 20.2195 24.5086 20.2195 24.5086 26.4071C24.5005 26.8525 24.8549 27.2201 25.3003 27.2282 25.5245 27.2323 25.7402 27.1428 25.8958 26.9814L32.6576 20.2195 36.9516 20.2195C39.5117 20.2168 41.5864 18.1421 41.5891 15.582L41.5891 12.6866C41.5891 12.2411 41.228 11.8801 40.7825 11.8801ZM18.829 24.3569C18.8281 25.1949 18.1491 25.8739 17.3112 25.8748L10.2267 25.8748C9.78126 25.8748 9.42017 26.2359 9.42017 26.6813L9.42017 28.9848 6.53766 26.1135C6.38585 25.9604 6.17905 25.8744 5.96342 25.8748L3.14221 25.8748C2.30428 25.8739 1.62522 25.1949 1.62433 24.3569L1.62433 16.8724C1.62522 16.0345 2.30428 15.3554 3.14221 15.3545L9.054 15.3545 9.054 15.582C9.05667 18.1421 11.1314 20.2168 13.6915 20.2195L18.829 20.2195Z" fill="#707070" transform="matrix(1 0 0 1.02875 335.389 162.489)"/><path d="M102.33 26.149 86.4913 26.149C86.0428 26.149 85.6791 26.5126 85.6791 26.9612 85.6791 27.4097 86.0428 27.7734 86.4913 27.7734L102.331 27.7734C102.78 27.7734 103.144 27.4097 103.144 26.9612 103.144 26.5126 102.78 26.149 102.331 26.149Z" fill="#707070" transform="matrix(1 0 0 1.02875 266.299 139.684)"/><path d="M103.143 49.6156C103.143 49.1701 102.782 48.809 102.336 48.809L86.4913 48.809C86.0428 48.809 85.6791 49.1727 85.6791 49.6212 85.6791 50.0698 86.0428 50.4334 86.4913 50.4334L102.331 50.4334C102.777 50.4361 103.14 50.0772 103.143 49.6318 103.143 49.6264 103.143 49.621 103.143 49.6156Z" fill="#707070" transform="matrix(1 0 0 1.02875 266.299 120.889)"/><path d="M86.4913 71.4578C86.0428 71.4578 85.6791 71.8214 85.6791 72.2699 85.6791 72.7185 86.0428 73.0821 86.4913 73.0821L95.6292 73.0821C96.0777 73.0821 96.4414 72.7185 96.4414 72.2699 96.4414 71.8214 96.0777 71.4578 95.6292 71.4578Z" fill="#707070" transform="matrix(1 0 0 1.02875 266.299 102.098)"/></g></g></g></svg>