<svg id="new_releases_black_24dp" xmlns="http://www.w3.org/2000/svg" width="36.859" height="36.859" viewBox="0 0 36.859 36.859">
  <path id="Trazado_4384" data-name="Trazado 4384" d="M0,0H36.859V36.859H0Z" transform="translate(0)" fill="none"/>
  <path id="Trazado_4385" data-name="Trazado 4385" d="M34.3,17.231l-3.693-4.17.515-5.52L25.657,6.31,22.8,1.54,17.65,3.73,12.5,1.54,9.643,6.31,4.179,7.525l.515,5.52L1,17.231,4.693,21.4l-.515,5.535,5.464,1.23,2.861,4.77,5.146-2.205,5.146,2.19,2.861-4.77,5.464-1.23-.515-5.52ZM27.474,20.4l.394,4.185-4.147.93-2.165,3.615L17.65,27.461l-3.905,1.665L11.58,25.511l-4.147-.93.394-4.2-2.8-3.15,2.8-3.18L7.433,9.88l4.147-.915L13.745,5.35,17.65,7l3.905-1.665L23.72,8.95l4.147.93-.394,4.185,2.8,3.165ZM16.136,21.731h3.027v3H16.136Zm0-12h3.027v9H16.136Z" transform="translate(0.779 1.2)" fill="#68b744"/>
</svg>
