<svg id="new_releases_black_24dp" xmlns="http://www.w3.org/2000/svg" width="39.96" height="39.96" viewBox="0 0 39.96 39.96">
  <path id="Trazado_4384" data-name="Trazado 4384" d="M0,0H39.96V39.96H0Z" fill="none"/>
  <path id="Trazado_4385" data-name="Trazado 4385" d="M37.1,18.551l-4-4.521.558-5.985L27.732,6.712,24.63,1.54,19.051,3.914,13.472,1.54l-3.1,5.172L4.446,8.029,5,14.013,1,18.551l4,4.521-.558,6,5.924,1.334,3.1,5.171,5.579-2.391,5.579,2.374,3.1-5.172,5.924-1.334L33.1,23.072Zm-7.4,3.431.427,4.537-4.5,1.008-2.347,3.919-4.234-1.805-4.234,1.805-2.347-3.919-4.5-1.008L8.4,21.966,5.365,18.551,8.4,15.1l-.427-4.521,4.5-.992,2.347-3.919L19.051,7.46l4.234-1.805,2.347,3.919,4.5,1.008L29.7,15.119l3.036,3.431ZM17.41,23.429h3.282v3.253H17.41Zm0-13.01h3.282v9.758H17.41Z" transform="translate(0.929 1.431)" fill="#68b744"/>
</svg>
