<svg id="new_releases_black_24dp" xmlns="http://www.w3.org/2000/svg" width="27.182" height="27.182" viewBox="0 0 27.182 27.182">
  <path id="Trazado_4384" data-name="Trazado 4384" d="M0,0H27.182V27.182H0Z" transform="translate(0)" fill="none"/>
  <path id="Trazado_4385" data-name="Trazado 4385" d="M25.557,13.111l-2.724-3.075.38-4.071-4.03-.907L17.074,1.54l-3.8,1.615L9.483,1.54,7.374,5.058l-4.03.9.38,4.071L1,13.111l2.724,3.075-.38,4.082,4.03.907,2.11,3.518,3.8-1.626,3.8,1.615,2.11-3.518,4.03-.907-.38-4.071Zm-5.034,2.334.29,3.086-3.058.686-1.6,2.666-2.88-1.228L10.4,21.883,8.8,19.217l-3.058-.686.29-3.1L3.969,13.111l2.065-2.345-.29-3.075L8.8,7.016,10.4,4.35l2.88,1.217,2.88-1.228L17.755,7l3.058.686-.29,3.086,2.065,2.334Zm-8.361.985h2.232v2.212H12.162Zm0-8.85h2.232v6.637H12.162Z" transform="translate(0.312 0.481)" fill="#68b744"/>
</svg>
