<svg xmlns="http://www.w3.org/2000/svg" width="46.634" height="17.962" viewBox="0 0 46.634 17.962">
  <path id="Trazado_4659" data-name="Trazado 4659" d="M2140.128,1593.327l.26-.639-1.985-.329-.065-.005c-.577,0-.624,0-.743.18l-.026.045c-3.269,6.639-11.5,11.109-20.476,11.125h-.043c-8.966,0-17.2-4.442-20.481-11.052l-.132-.267-2.682.472.215.469a19.569,19.569,0,0,0,4.8,6.4l-2.161,3.2,2.182,1.475,2.046-3.027a25.138,25.138,0,0,0,3.014,1.83l-1.578,3.473,2.4,1.09,1.577-3.471a28.374,28.374,0,0,0,3.632,1.167l-.776,3.765,2.579.531.778-3.775a29.913,29.913,0,0,0,3.271.327v4.008h2.634v-4.009a29.946,29.946,0,0,0,3.271-.326l.777,3.775,2.58-.531-.776-3.765a28.478,28.478,0,0,0,3.692-1.193l1.517,3.338,2.4-1.09-1.521-3.346a25.418,25.418,0,0,0,2.825-1.708l1.986,2.937,2.182-1.475-2.092-3.094A19.613,19.613,0,0,0,2140.128,1593.327Z" transform="translate(-2093.754 -1592.354)" fill="#1c4a83"/>
</svg>
