<svg xmlns="http://www.w3.org/2000/svg" width="59.866" height="23.946" viewBox="0 0 59.866 23.946">
  <g id="paypal" transform="translate(-0.004)">
    <path id="Trazado_4590" data-name="Trazado 4590" d="M17.947,6.087a4.82,4.82,0,0,0-.986-4.277C15.867.536,13.907,0,11.38,0H4.08A1.04,1.04,0,0,0,3.054.9L.013,20.554a.633.633,0,0,0,.619.738h4.5L4.816,23.3a.558.558,0,0,0,.54.644h3.8a.935.935,0,0,0,.908-.79l.04-.2.71-4.626.052-.254a.915.915,0,0,1,.908-.791h.566c3.684,0,6.566-1.529,7.408-5.927a5.123,5.123,0,0,0-.763-4.464,3.515,3.515,0,0,0-1.04-.8Z" fill="#5599db"/>
    <path id="Trazado_4591" data-name="Trazado 4591" d="M17.947,6.087a4.82,4.82,0,0,0-.986-4.277C15.867.536,13.907,0,11.38,0H4.08A1.04,1.04,0,0,0,3.054.9L.013,20.554a.633.633,0,0,0,.619.738h4.5l1.131-7.321-.04.228a1.041,1.041,0,0,1,1.027-.9H9.4c4.21,0,7.5-1.744,8.473-6.785.04-.147.053-.3.08-.429Z" fill="#162667"/>
    <path id="Trazado_4592" data-name="Trazado 4592" d="M7.487,6.114A.965.965,0,0,1,8,5.417a.945.945,0,0,1,.4-.094h5.723a11.883,11.883,0,0,1,1.9.134c.171.027.33.054.487.094s.3.08.46.12c.08.027.145.04.211.068a5.285,5.285,0,0,1,.79.335A4.82,4.82,0,0,0,16.974,1.8C15.868.537,13.908,0,11.382,0h-7.3A1.04,1.04,0,0,0,3.053.9L.013,20.554a.633.633,0,0,0,.619.738h4.5l1.131-7.321L7.487,6.114Z" fill="#003383"/>
    <path id="Trazado_4593" data-name="Trazado 4593" d="M47.889,9.053H45.027a.414.414,0,0,0-.4.334l-1.157,7.36a.242.242,0,0,0,.24.28h1.463a.286.286,0,0,0,.28-.24l.333-2.08a.39.39,0,0,1,.4-.334h.9a2.943,2.943,0,0,0,3.26-2.733,2.243,2.243,0,0,0-.359-1.853,2.713,2.713,0,0,0-2.1-.734Zm.319,2.68c-.16,1.027-.945,1.027-1.7,1.027h-.426l.306-1.92a.233.233,0,0,1,.24-.2h.2c.519,0,1.011,0,1.25.293a.94.94,0,0,1,.134.8Z" fill="#5599db"/>
    <path id="Trazado_4594" data-name="Trazado 4594" d="M27.445,9.053H24.584a.414.414,0,0,0-.4.334l-1.157,7.36a.242.242,0,0,0,.24.28h1.37a.414.414,0,0,0,.4-.334l.306-1.986a.39.39,0,0,1,.4-.334h.9a2.943,2.943,0,0,0,3.26-2.733,2.243,2.243,0,0,0-.359-1.853,2.715,2.715,0,0,0-2.1-.734Zm.333,2.68c-.16,1.027-.945,1.027-1.7,1.027h-.426l.306-1.92a.233.233,0,0,1,.24-.2h.2c.519,0,1.012,0,1.251.293a.992.992,0,0,1,.133.8Zm8.239-.026H34.646a.243.243,0,0,0-.24.2l-.066.386-.094-.133a1.959,1.959,0,0,0-1.623-.573,3.151,3.151,0,0,0-3.061,2.76,2.588,2.588,0,0,0,.5,2.106,2.129,2.129,0,0,0,1.73.694,2.632,2.632,0,0,0,1.9-.787l-.067.387a.243.243,0,0,0,.24.28h1.238a.413.413,0,0,0,.4-.334l.745-4.706a.249.249,0,0,0-.24-.28ZM34.1,14.373a1.526,1.526,0,0,1-1.544,1.307,1.15,1.15,0,0,1-.918-.373,1.165,1.165,0,0,1-.213-.96,1.54,1.54,0,0,1,1.544-1.32,1.189,1.189,0,0,1,.918.373,1.317,1.317,0,0,1,.213.973Z" fill="#003383"/>
    <path id="Trazado_4595" data-name="Trazado 4595" d="M56.446,11.707h-1.37a.242.242,0,0,0-.24.2l-.067.386-.093-.133a1.96,1.96,0,0,0-1.623-.573,3.151,3.151,0,0,0-3.062,2.76,2.588,2.588,0,0,0,.506,2.106,2.129,2.129,0,0,0,1.73.694,2.632,2.632,0,0,0,1.9-.787l-.067.387a.242.242,0,0,0,.24.28h1.237a.414.414,0,0,0,.4-.334l.745-4.706a.249.249,0,0,0-.24-.28ZM54.53,14.373a1.526,1.526,0,0,1-1.544,1.307,1.149,1.149,0,0,1-.918-.373,1.165,1.165,0,0,1-.213-.96,1.538,1.538,0,0,1,1.544-1.32,1.189,1.189,0,0,1,.918.373A1.206,1.206,0,0,1,54.53,14.373Z" fill="#5599db"/>
    <path id="Trazado_4596" data-name="Trazado 4596" d="M43.323,11.707H41.94a.416.416,0,0,0-.333.173l-1.9,2.8-.812-2.693a.387.387,0,0,0-.386-.28H37.149a.243.243,0,0,0-.227.32l1.518,4.466-1.424,2.014a.237.237,0,0,0,.2.373H38.6a.417.417,0,0,0,.333-.173l4.592-6.627a.241.241,0,0,0-.2-.373Z" fill="#003383"/>
    <path id="Trazado_4597" data-name="Trazado 4597" d="M58.057,9.253l-1.171,7.494a.242.242,0,0,0,.24.28H58.31a.413.413,0,0,0,.4-.334l1.158-7.36a.242.242,0,0,0-.24-.28H58.31a.246.246,0,0,0-.253.2Z" fill="#5599db"/>
  </g>
</svg>
