<svg id="Componente_15_1" data-name="Componente 15 – 1" xmlns="http://www.w3.org/2000/svg" xmlns:xlink="http://www.w3.org/1999/xlink" width="573.391" height="495.796" viewBox="0 0 573.391 495.796">
  <defs>
    <linearGradient id="linear-gradient" y1="0.5" x2="1" y2="0.5" gradientUnits="objectBoundingBox">
      <stop offset="0" stop-color="#5db64b"/>
      <stop offset="0.23" stop-color="#4da667"/>
      <stop offset="0.72" stop-color="#247ead"/>
      <stop offset="1" stop-color="#0c66d8"/>
    </linearGradient>
    <linearGradient id="linear-gradient-4" x1="0" y1="0.5" y2="0.5" xlink:href="#linear-gradient"/>
    <linearGradient id="linear-gradient-6" x1="0" y1="0.499" y2="0.499" xlink:href="#linear-gradient"/>
    <linearGradient id="linear-gradient-10" x1="0" y1="0.5" y2="0.5" xlink:href="#linear-gradient"/>
    <linearGradient id="linear-gradient-12" x1="0" y1="0.5" y2="0.5" xlink:href="#linear-gradient"/>
    <linearGradient id="linear-gradient-13" x1="0" y1="0.5" y2="0.5" xlink:href="#linear-gradient"/>
    <linearGradient id="linear-gradient-15" x1="0" y1="0.5" y2="0.5" xlink:href="#linear-gradient"/>
  </defs>
  <g id="Grupo_19" data-name="Grupo 19" transform="translate(131.286 84.208)">
    <g id="Floor" transform="translate(0 196.018)">
      <path id="Path_1" data-name="Path 1" d="M95.809,404.824c81.493,42.091,213.643,42.1,295.143,0s81.493-110.338,0-152.429S177.31,210.3,95.808,252.4,14.307,362.731,95.809,404.824Z" transform="translate(-34.682 -220.826)" fill="#1c4a83" opacity="0.16"/>
    </g>
    <g id="Characters" transform="translate(120.358 0)">
      <g id="Group_136" data-name="Group 136" transform="translate(0 43.056)">
        <g id="Group_124" data-name="Group 124" transform="translate(0 52.951)">
          <path id="Path_152" data-name="Path 152" d="M309.611,221.765c-5.5-1.721-11.146,2.728-14.829,11.715a352.466,352.466,0,0,0-12.58,37.906c-1.14,6.089,24.832,19.342,24.1,18.987S309.611,221.765,309.611,221.765Z" transform="translate(-282.166 -221.4)" fill="#263238"/>
        </g>
        <path id="Path_153" data-name="Path 153" d="M293.105,371.407c-.775.294-.97,1.77-1.087,4.708-.09,2.221-.565,6.1,2.039,6.877a8.14,8.14,0,0,0,8.085-1.718c2.082-2.614,3.491-4.915,6.463-8.106a22.531,22.531,0,0,0,6.4-9.231c.927-3.506.158-5.026-2.233-6.049-3.29-1.4-8.458,3.179-11.038,3.9C299.513,362.411,293.881,371.114,293.105,371.407Z" transform="translate(-277.746 -106.731)" fill="#263238"/>
        <path id="Path_154" data-name="Path 154" d="M292.738,365.645v3.605a8.826,8.826,0,0,0,9.113.247c.158-.346.946-5.159.946-5.159Z" transform="translate(-277.376 -103.687)" fill="#ffa8a7"/>
        <path id="Path_155" data-name="Path 155" d="M313.5,381.409s-1.035,3.136-1.594,5.87a15.886,15.886,0,0,0-.309,7.464c.763,1.641,3.741,2.7,8.341,2.663a27.126,27.126,0,0,1,10.84,3.787,28.629,28.629,0,0,0,13.633,2.163c4.109-.482,8.363-2.864,9.027-4.566s-.219-3.466-9.886-7.594c-.09-.037-13.457-4.384-18.14-9.552Z" transform="translate(-268.94 -95.954)" fill="#263238"/>
        <path id="Path_156" data-name="Path 156" d="M312.835,378.726v4.2c0,1.529,1.792,3.809,6.469,3.642,3.284-.117,5.561-1,5.446-3.707v-3.911Z" transform="translate(-268.273 -97.17)" fill="#ffa8a7"/>
        <g id="Group_125" data-name="Group 125" transform="translate(12.615 119.117)">
          <path id="Path_157" data-name="Path 157" d="M291.248,361.924a97.928,97.928,0,0,1,4.26-18.78s-1.288-16.2-1.906-31.566c-.667-16.593.034-37.452-.281-41.591,0,0,53.544-10.834,54.5,8.341s-2.113,68.008-2.746,76.436-2.088,15.879-3.831,29.537c-1.718,13.479-6.534,45.311-6.534,45.311a12.641,12.641,0,0,1-11.912-.244s-3.769-38.354-3.374-48.076a83.053,83.053,0,0,1,3.686-21.224s-1.016-15.814-1.912-29.574-1.854-20.365-2.054-26.349l-1.152-.571s-1.174,23.735-1.807,32.16-1.974,16.506-4.412,32.157c-2.113,13.577-8.412,42.308-8.412,42.308a8.032,8.032,0,0,1-9.768-.433S289.6,373.713,291.248,361.924Z" transform="translate(-290.849 -266.937)" fill="#455a64"/>
        </g>
        <g id="Group_126" data-name="Group 126" transform="translate(21.421 144.159)">
          <path id="Path_158" data-name="Path 158" d="M316.4,296.345a112.036,112.036,0,0,1-19.49-12.175,42.98,42.98,0,0,0,13.96,12.277s2.82,29.484,2.805,28.9L315.3,296.3Z" transform="translate(-296.909 -284.17)" fill="#37474f"/>
        </g>
        <path id="Path_159" data-name="Path 159" d="M324.179,218.555l-3.166,17.439-15.755-1.149,3.309-19.771Z" transform="translate(-271.705 -171.319)" fill="#ffa8a7"/>
        <g id="Group_127" data-name="Group 127" transform="translate(14.934 53.319)">
          <path id="Path_160" data-name="Path 160" d="M294.435,230.586c1.545-4.742,7.575-9.886,13.593-8.783a177.629,177.629,0,0,1,26.361,6.583c5.511,1.968,10.532,6.732,10.986,24.857l2.78,54-6.667,1.434-2.326-12.231-1.084,12.231c-6.976,1.758-19.07.309-27.025-1.434-16.562-3.617-18.557-10.488-18.557-10.488s-.213-30.389.281-43.516C293.224,242.094,293.363,233.848,294.435,230.586Z" transform="translate(-292.449 -221.652)" fill="#1c4a83"/>
        </g>
        <path id="Path_161" data-name="Path 161" d="M326.3,203.248s3.812,5.647,3.327,6.253a8.986,8.986,0,0,1-2.867,1.27Z" transform="translate(-262.176 -176.674)" fill="#ffa8a7"/>
        <path id="Path_162" data-name="Path 162" d="M326.087,191.365c3.673,1.854,10.022,5.283,11.773,18.727,1.8,13.8-.568,18.252-2.437,20.08-1.26,1.236-8.113,1.307-11.545.278-4.294-1.288-13.985-4.971-18.406-12.048-5.2-8.341-6.358-19.515-.494-23.957a22.07,22.07,0,0,1,21.109-3.08Z" transform="translate(-273.609 -182.688)" fill="#ffa8a7"/>
        <path id="Path_163" data-name="Path 163" d="M340.663,198.258c-1.208,3.312-3.241,11.43-11.7,14.8,0,0-1.208-5.165-5.561-4.619s-5.085,6.092-2.416,9.527,5.252,2.2,5.252,2.2.581,7.414-4.362,10.766a13.859,13.859,0,0,1-12.292.877c-2.845-1.307-6.867-8.122-9.231-13.717-5-11.832-5.712-21.316,1.854-24.31a8.934,8.934,0,0,1,8.218-8.406c10.482-2.163,18.4,4.727,27.186,3.509C342.214,188.258,342.044,194.474,340.663,198.258Z" transform="translate(-275.653 -184.959)" fill="#37474f"/>
        <path id="Path_164" data-name="Path 164" d="M301.87,193.66l-4.943-3.065a2.908,2.908,0,0,1,4.943,3.065Z" transform="translate(-275.479 -183.03)" fill="#37474f"/>
        <g id="Group_129" data-name="Group 129" transform="translate(31.589 48.952)">
          <g id="Group_128" data-name="Group 128" transform="translate(0 0)">
            <path id="Path_165" data-name="Path 165" d="M323.635,223.281l1.792,5.218s-1.313,2.329-6.945,2.444-11.606-1.665-13.475-4.062a4.223,4.223,0,0,1-1.054-3.5s2.234-4.943,4.353-4.72l-.358,2.138s.479,1.764,5.589,3.12C321.466,226.027,323.635,223.281,323.635,223.281Z" transform="translate(-303.901 -218.649)" fill="#455a64"/>
          </g>
        </g>
        <g id="Group_130" data-name="Group 130" transform="translate(96.5 70.325)">
          <path id="Path_166" data-name="Path 166" d="M348.577,251.3c2.274-2.6,3.142-8.372,6.179-12.32,2.96-3.852,4.134-6.846,5.329-5.119,1.582,2.283-1.986,6.852-1.2,7.309a23.745,23.745,0,0,1,4.059,9.827c.309,3.349-8.56,11.758-8.56,11.758Z" transform="translate(-348.577 -233.356)" fill="#ffa8a7"/>
        </g>
        <g id="Group_132" data-name="Group 132" transform="translate(51.319 53.587)">
          <g id="Group_131" data-name="Group 131" transform="translate(0 0)">
            <path id="Path_167" data-name="Path 167" d="M317.485,221.836a2.026,2.026,0,0,1,1.792,1.035,47.222,47.222,0,0,1,2.391,4.943l-2.391-.778Z" transform="translate(-317.485 -221.836)" fill="#455a64"/>
          </g>
        </g>
        <g id="Group_133" data-name="Group 133" transform="translate(106.562 77.202)">
          <path id="Path_168" data-name="Path 168" d="M355.5,238.51s10.711-.927,12.274-.028,1.091,5.561,0,8.406-6.552,4.7-11.625,8.128C356.118,254.528,355.5,238.51,355.5,238.51Z" transform="translate(-355.5 -238.09)" fill="#ffa8a7"/>
        </g>
        <g id="Group_135" data-name="Group 135" transform="translate(51.115 59.58)">
          <g id="Group_134" data-name="Group 134" transform="translate(0)">
            <path id="Path_169" data-name="Path 169" d="M321.728,225.962a20.253,20.253,0,0,1,12.929,11.529c5.521,10.374,16.03,26.976,16.03,26.976l12.048-10.621s1.823-1.764,5.209,3.831A11.6,11.6,0,0,1,369.179,268s-13.9,16.318-16.568,18.8-7.059.553-9.923-3.352-20.942-26.512-20.942-26.512S311.854,243.948,321.728,225.962Z" transform="translate(-317.344 -225.962)" fill="#37474f"/>
          </g>
        </g>
      </g>
      <g id="Group_145" data-name="Group 145" transform="translate(102.298 0)">
        <path id="Rectangle_1" data-name="Rectangle 1" d="M6.651,0H37.421a6.651,6.651,0,0,1,6.651,6.651V53.535A22.036,22.036,0,0,1,22.036,75.571h0A22.036,22.036,0,0,1,0,53.535V6.651A6.651,6.651,0,0,1,6.651,0Z" transform="translate(82.333 75.571) rotate(180)" fill="#37474f"/>
        <path id="Path_170" data-name="Path 170" d="M387.971,197.2c-3.333,9.821-8.913,38.029-8.913,38.029s-11.69,14.211-15.413,17.658c-2.076,1.912-6.753,5.357-6.753,5.357l8.5,6.259a189.548,189.548,0,0,0,21.56-19.41,12.3,12.3,0,0,0,3.015-5.629l5.811-24.934s-.037-20.056,3.089-22.688,3.942-3.185,3.942-3.185C398.87,188.375,390.588,189.481,387.971,197.2Z" transform="translate(-350.609 -140.24)" fill="#f28f8f"/>
        <path id="Path_171" data-name="Path 171" d="M397.466,188.529c-5.422-.618-12.357-.513-15.755,5.561s-9.021,37.322-9.021,37.322a20.494,20.494,0,0,0,11.091,4.075Z" transform="translate(-343.449 -140.397)" fill="#1c4a83"/>
        <g id="Group_138" data-name="Group 138" transform="translate(35.308 77.316)">
          <g id="Group_137" data-name="Group 137" transform="translate(0 0)">
            <path id="Path_172" data-name="Path 172" d="M380.5,208.537a56.227,56.227,0,0,1,1.128,14.211,79.673,79.673,0,0,1-4.757,17.229s3.38,3.726,12.935,2.23c7.773-1.217,5.026-24.674.556-29.216a14.714,14.714,0,0,0-9.861-4.455Z" transform="translate(-376.869 -208.537)" fill="#16365e"/>
          </g>
          <path id="Path_173" data-name="Path 173" d="M380.5,208.537a56.227,56.227,0,0,1,1.128,14.211,79.673,79.673,0,0,1-4.757,17.229s3.38,3.726,12.935,2.23c7.773-1.217,5.026-24.674.556-29.216a14.714,14.714,0,0,0-9.861-4.455Z" transform="translate(-376.869 -208.537)" fill="#16365e" opacity="0.3"/>
        </g>
        <path id="Path_174" data-name="Path 174" d="M396.9,323.712a5.2,5.2,0,0,1-.772,3.049,38.062,38.062,0,0,1-5.036,6.6c-2.694,2.892-6.719,6.311-9.6,8.829-1.6,1.4-1.665,3.516.618,4.26a17.261,17.261,0,0,0,12.623-1.764c2.864-1.545,6.948-8.65,9.333-9.728a12.577,12.577,0,0,0,5.206-3.12,4.433,4.433,0,0,0,.559-5.505c-1.291-2.4-3.231-6.114-4.032-5.7l.247.766c-.618,1.962-5.975,4.245-8.718,3.707Z" transform="translate(-339.992 -80.447)" fill="#1c4a83"/>
        <path id="Path_175" data-name="Path 175" d="M426.3,281.808c1.236-13.114,4.788-34.112,1.149-49.685l-48.233,2.552c-1.341,15.366-2.873,63.312-1.236,68.8,1.946,6.488,19.339,51.335,20.294,60.362a4.943,4.943,0,0,1-.766,3.015,38.79,38.79,0,0,1-5.042,6.6c-1.31,1.4-2.938,2.935-4.6,4.421a1.358,1.358,0,0,0-.241.7c0,1.5,3.655,1.9,5.792,1.276a13.492,13.492,0,0,0,6.6-5.076c1.236-1.644,4.016-4.8,5.762-7.164a12.009,12.009,0,0,0,1.545-2.379,4.863,4.863,0,0,0,.223-3.4l-.111-.352a38.121,38.121,0,0,1-1.739-9.073c-.676-9.886-2.366-32.747-3.942-38.842a53.478,53.478,0,0,0-4.943-12.734L402.32,258s.59,37.767,2.3,47.405c1.356,7.723,1.884,17.374,3.46,30.6,1.5,12.666,3.145,34.993,3.145,34.993a.328.328,0,0,0,.127.065v10.547h9.175V375.43a51.16,51.16,0,0,1,.684-8.333c1.395-8.424,4.481-27.716,5.108-34.235a75.816,75.816,0,0,0-2.743-23.358S425.085,294.573,426.3,281.808Z" transform="translate(-341.38 -120.534)" fill="#ffa8a7"/>
        <g id="Group_139" data-name="Group 139" transform="translate(32.209 48.165)">
          <path id="Path_176" data-name="Path 176" d="M410.432,188.9s12.975,1.492,14.52,2.19c-12.175,8.564-2.317,27.625-2.317,27.625l-4.656,14.625c5.19,6.642,9.673,10.6,12.441,17.884,3.089,8.137,5.87,20.232,5.094,44.993-11.641,8.749-46.991,7.773-60.779,0,0,0,2.329-21.894,5.079-38.925,1.814-11.223,6.111-23.463,5.369-27.569-5.456-16.793-5.792-19.821-4.826-23.568,2.722-10.541,13.472-17.674,16.126-17.674Z" transform="translate(-374.735 -188.479)" fill="#68b744"/>
          <path id="Path_177" data-name="Path 177" d="M410.432,188.9s12.975,1.492,14.52,2.19c-12.175,8.564-2.317,27.625-2.317,27.625l-4.656,14.625c5.19,6.642,9.673,10.6,12.441,17.884,3.089,8.137,5.87,20.232,5.094,44.993-11.641,8.749-46.991,7.773-60.779,0,0,0,2.329-21.894,5.079-38.925,1.814-11.223,6.111-23.463,5.369-27.569-5.456-16.793-5.792-19.821-4.826-23.568,2.722-10.541,13.472-17.674,16.126-17.674Z" transform="translate(-374.735 -188.479)" fill="#68b744" opacity="0.6"/>
        </g>
        <path id="Path_178" data-name="Path 178" d="M405.256,332.3v-1.313a25.371,25.371,0,0,1-6.558,11.483c-2.895,2.641-6.843,5.687-7.844,8.632-1.044,3.061,4.662,4.272,8.406,3.9a15.1,15.1,0,0,0,9.416-4.928,31.778,31.778,0,0,0,3.451-6.1c1.109-1.5,3.67-3.182,4.272-4.921a11.089,11.089,0,0,0-.525-4.816c-.426-1.622-.886-3.4-1.44-3.253v1a7.258,7.258,0,0,1-4.588,1.544C408.5,333.593,405.247,333.324,405.256,332.3Z" transform="translate(-335.28 -75.747)" fill="#1c4a83"/>
        <path id="Path_179" data-name="Path 179" d="M412.916,331.988a7.257,7.257,0,0,1-4.588,1.545c-1.341.049-4.6-.216-4.587-1.236v-1.313a25.376,25.376,0,0,1-6.58,11.48c-.692.618-1.446,1.288-2.206,1.959-1.545,1.715-1.1,3.21,2.515,3.522a11.473,11.473,0,0,0,9.543-5.252A59.23,59.23,0,0,0,412.916,331.988Z" transform="translate(-333.755 -75.746)" fill="#ffa8a7"/>
        <path id="Path_180" data-name="Path 180" d="M385.421,161.462c-2.326,1.375-5.2,7.229-4.921,19.5.241,10.4,3.612,12.975,5.3,13.71a17.888,17.888,0,0,0,8.134-.238v6.243s-4.39,5.1-4.112,7.958,6.336,3.537,10.442.741a33.18,33.18,0,0,0,7.563-8.248l-.071-14.353s1.854,1.813,5.036-.955a5.925,5.925,0,0,0,1.458-8.211,4.553,4.553,0,0,0-7.247,1.446,13.839,13.839,0,0,0-9.076-7.288C391.322,169.612,387.729,167.125,385.421,161.462Z" transform="translate(-339.922 -152.549)" fill="#ffa8a7"/>
        <path id="Path_181" data-name="Path 181" d="M388.485,173.489a1.31,1.31,0,1,0,1.375-1.294,1.332,1.332,0,0,0-1.375,1.294Z" transform="translate(-336.294 -147.684)" fill="#37474f"/>
        <path id="Path_182" data-name="Path 182" d="M389.194,179.154l-3.04.967a1.566,1.566,0,0,0,1.977,1.09,1.668,1.668,0,0,0,1.063-2.058Z" transform="translate(-337.352 -144.532)" fill="#f28f8f"/>
        <path id="Path_183" data-name="Path 183" d="M381.189,171.121l2.648-1.835a1.545,1.545,0,0,0-2.2-.451A1.69,1.69,0,0,0,381.189,171.121Z" transform="translate(-339.721 -149.336)" fill="#37474f"/>
        <path id="Path_184" data-name="Path 184" d="M391.931,171.787l-2.648-1.835a1.545,1.545,0,0,1,2.2-.451,1.693,1.693,0,0,1,.451,2.286Z" transform="translate(-335.934 -149.032)" fill="#37474f"/>
        <path id="Path_185" data-name="Path 185" d="M381.524,172.84a1.31,1.31,0,1,0,1.375-1.3,1.332,1.332,0,0,0-1.375,1.3Z" transform="translate(-339.447 -147.983)" fill="#37474f"/>
        <path id="Path_186" data-name="Path 186" d="M387.128,171.919l-.207,7.875-4.143-1.282Z" transform="translate(-338.878 -147.81)" fill="#f28f8f"/>
        <path id="Path_187" data-name="Path 187" d="M389.742,185.758c3.346-.439,10.226-2.416,11.3-5.138a7.04,7.04,0,0,1-2.413,3.472,36.2,36.2,0,0,1-8.885,3.747Z" transform="translate(-335.725 -143.868)" fill="#f28f8f"/>
        <path id="Path_188" data-name="Path 188" d="M408.9,213.85l-9.157,12.41,6.9-4.424Z" transform="translate(-331.195 -128.814)" fill="#27debf"/>
        <g id="Group_140" data-name="Group 140" transform="translate(0 115.067)">
          <path id="Path_189" data-name="Path 189" d="M358.052,237.447a71.01,71.01,0,0,0-4.2,9.1c-1.032,1.653-2.271,3.089,0,3.4s5.561-4.13,6.815-6.815a6.487,6.487,0,0,1,3.306-3.4c-1.069-.358-.5-4.634-1.257-5.215C362.707,234.509,358.846,236.087,358.052,237.447Z" transform="translate(-352.568 -234.515)" fill="#f28f8f"/>
        </g>
        <g id="Group_141" data-name="Group 141" transform="translate(4.906 126.111)">
          <path id="Path_190" data-name="Path 190" d="M355.944,253.2c2.048-1.545,2.11-3.4,2.512-6.386s8.6-6.179,8.854-3.97a6.577,6.577,0,0,1-1.514,6.775C363.281,252.3,359.694,255.184,355.944,253.2Z" transform="translate(-355.944 -242.11)" fill="#f28f8f"/>
        </g>
        <g id="Group_142" data-name="Group 142" transform="translate(62.202 48.585)">
          <path id="Path_191" data-name="Path 191" d="M401.082,188.764a92.1,92.1,0,0,1,14.52,2.19c2.382,1.137,6.345,7.986,2.8,17.949s-6.762,21.659-6.4,24.013,8.829,14.52,8.829,14.52a23.028,23.028,0,0,1-7.791,3.741l-4.34-9.478,1.019,10.071a51.675,51.675,0,0,1-13.386,1.406S392.222,214.55,401.082,188.764Z" transform="translate(-395.378 -188.764)" fill="#1c4a83"/>
        </g>
        <g id="Group_143" data-name="Group 143" transform="translate(72.25 82.806)">
          <path id="Path_192" data-name="Path 192" d="M427.887,225.534c.961-5.734,0-7.6-2.017-13.219L415.628,218.9a21.738,21.738,0,0,1,1.517,6.636,155.856,155.856,0,0,1-4.455,23.788,4.42,4.42,0,0,1-2.088,2.351,25.3,25.3,0,0,0-5.638,4.683c-1.545,1.415-2.811,1.708-2.654,2.2a2.385,2.385,0,0,0,2.978,1.291,16.707,16.707,0,0,0,3.611-1.65,22.169,22.169,0,0,1-3.988,5.87c-3.732,3.982-4.059,6.565,2.885,7.105,4.353.337,8.011-2.11,11.946-11.48a87.788,87.788,0,0,0,3.012-10.5C424.85,241.024,426.92,231.3,427.887,225.534Z" transform="translate(-402.292 -212.315)" fill="#ffa8a7"/>
        </g>
        <g id="Group_144" data-name="Group 144" transform="translate(76.773 50.776)">
          <path id="Path_193" data-name="Path 193" d="M411.067,190.271c4.9,2.2,6.287,6.528,8.1,12.892s7.519,25.456,7.519,25.456A12.558,12.558,0,0,1,415,232.8l-8.65-21.177S402.266,197.812,411.067,190.271Z" transform="translate(-405.402 -190.271)" fill="#1c4a83"/>
        </g>
      </g>
    </g>
    <g id="Plants" transform="translate(60.249 229.474)">
      <g id="Group_12" data-name="Group 12" transform="translate(0 0)">
        <g id="Group_7" data-name="Group 7">
          <g id="Group_5" data-name="Group 5">
            <path id="Path_2" data-name="Path 2" d="M142.623,328.445c-1.957-10.119-8.935-24.542-17.486-32.567-8.232-7.728-20.449-10.417-25.317-6.866s-1.675,11.272,7.77,20.661c10.661,10.592,31.137,39.971,35.028,56.619Z" transform="translate(-97.563 -287.467)" fill="#3a7420"/>
          </g>
          <g id="Group_6" data-name="Group 6" opacity="0.2">
            <path id="Path_3" data-name="Path 3" d="M142.623,328.445c-1.957-10.119-8.935-24.542-17.486-32.567-8.232-7.728-20.449-10.417-25.317-6.866s-1.675,11.272,7.77,20.661c10.661,10.592,31.137,39.971,35.028,56.619Z" transform="translate(-97.563 -287.467)" fill="#3a7420"/>
          </g>
        </g>
        <g id="Group_8" data-name="Group 8" transform="translate(6.897 3.85)">
          <path id="Path_4" data-name="Path 4" d="M142.914,352.952a.481.481,0,0,1-.477-.434c-2.42-25.494-20.238-54.147-37.391-60.114a.479.479,0,0,1,.314-.9c17.766,6.18,35.537,34.652,38.031,60.93a.479.479,0,0,1-.432.522Z" transform="translate(-104.746 -291.481)" fill="#fff"/>
        </g>
        <g id="Group_11" data-name="Group 11" transform="translate(5.497 29.88)">
          <g id="Group_9" data-name="Group 9" transform="translate(0 0)">
            <path id="Path_5" data-name="Path 5" d="M142.865,379.823s-3.314,2.649-14.382,1.612-16.756-8.943-16.756-12.336,10.16-3.975,12.367-12.383a14.683,14.683,0,0,1-8.476,4.5c-5.768,1.084-10.363-.759-11.676-11.237a18.708,18.708,0,0,0,8.455-.7c4.55-1.462,5.634-3.959,4.441-4.5s-7.524.051-11.592-1.543-.912-22.7,1.7-24.213,15.265,2.046,17.719,3.943a9.5,9.5,0,0,1,3.795,10.793,15.521,15.521,0,0,0,3.807-5.634c1.191-2.911,2.047-2.2,3.852-1.111a8.633,8.633,0,0,1,4.2,5.764c.426,2.685-.264,11.942-4.044,14.949,0,0,3.623.464,6.583-5.656,0,0,5.782,2.32,7.047,6.08S152.7,370.284,142.865,379.823Z" transform="translate(-103.296 -318.654)" fill="#68b744"/>
          </g>
          <g id="Group_10" data-name="Group 10" transform="translate(6.147 3.834)">
            <path id="Path_6" data-name="Path 6" d="M144.1,382.078a.479.479,0,0,1-.473-.421c-2.53-20.7-18.275-47.866-33.707-58.129a.479.479,0,0,1,.531-.8c15.625,10.394,31.573,37.874,34.126,58.811a.479.479,0,0,1-.417.542Z" transform="translate(-109.711 -322.65)" fill="#fff"/>
          </g>
        </g>
      </g>
    </g>
  </g>
  <g id="Layer_2" data-name="Layer 2" transform="translate(0 303.03)">
    <g id="Layer_1" data-name="Layer 1">
      <path id="Trazado_2" data-name="Trazado 2" d="M50.075,2.66A65.855,65.855,0,0,0,7.68,37.87Z" transform="translate(-1.293 -0.448)" fill="url(#linear-gradient)"/>
      <path id="Trazado_3" data-name="Trazado 3" d="M66.429,0h-.524a66.345,66.345,0,0,0-8.674.59L3.477,45.239A65.92,65.92,0,0,0,1.24,54.154Z" transform="translate(-0.209)" fill="url(#linear-gradient)"/>
      <path id="Trazado_4" data-name="Trazado 4" d="M79.3,1.494A67.552,67.552,0,0,0,72.142.38L.249,60.089C.091,61.96,0,63.848,0,65.761c0,.524,0,1.048.042,1.563Z" transform="translate(0 -0.064)" fill="url(#linear-gradient)"/>
      <path id="Trazado_5" data-name="Trazado 5" d="M90.2,5.249c-1.954-.782-3.95-1.489-5.988-2.079L.39,72.784a58.962,58.962,0,0,0,.94,6.287Z" transform="translate(-0.066 -0.534)" fill="url(#linear-gradient-4)"/>
      <path id="Trazado_6" data-name="Trazado 6" d="M99.866,10.636c-1.663-1-3.385-1.938-5.148-2.786L2.76,84.216q.773,2.844,1.788,5.58Z" transform="translate(-0.465 -1.322)" fill="url(#linear-gradient)"/>
      <path id="Trazado_7" data-name="Trazado 7" d="M108.545,17.326c-1.439-1.173-2.927-2.3-4.457-3.326L6.79,94.782q1.139,2.561,2.495,4.99Z" transform="translate(-1.143 -2.358)" fill="url(#linear-gradient-6)"/>
      <path id="Trazado_8" data-name="Trazado 8" d="M116.369,25.085q-1.83-2.021-3.834-3.875L12.31,104.445c.973,1.538,2.021,3.027,3.119,4.474Z" transform="translate(-2.073 -3.572)" fill="url(#linear-gradient)"/>
      <path id="Trazado_9" data-name="Trazado 9" d="M22.807,117.424l100.549-83.51q-1.522-2.254-3.235-4.374L19.09,113.449Q20.861,115.52,22.807,117.424Z" transform="translate(-3.215 -4.974)" fill="url(#linear-gradient)"/>
      <path id="Trazado_10" data-name="Trazado 10" d="M129.475,43.828c-.832-1.663-1.663-3.326-2.611-4.9L27.13,121.766c1.389,1.214,2.836,2.37,4.324,3.468Z" transform="translate(-4.569 -6.556)" fill="url(#linear-gradient)"/>
      <path id="Trazado_11" data-name="Trazado 11" d="M134.676,54.9q-.832-2.778-1.929-5.455L36.48,129.357q2.437,1.563,4.99,2.9Z" transform="translate(-6.143 -8.326)" fill="url(#linear-gradient-10)"/>
      <path id="Trazado_12" data-name="Trazado 12" d="M138.766,67.239q-.424-3.11-1.131-6.129L47.29,136.146c1.9.832,3.842,1.572,5.821,2.229Z" transform="translate(-7.963 -10.291)" fill="url(#linear-gradient-4)"/>
      <path id="Trazado_13" data-name="Trazado 13" d="M141.4,81.307c.05-1.023.083-2.062.083-3.1,0-1.314,0-2.628-.125-3.925l-81.5,67.659a64.859,64.859,0,0,0,6.9,1.331Z" transform="translate(-10.08 -12.508)" fill="url(#linear-gradient-12)"/>
      <path id="Trazado_14" data-name="Trazado 14" d="M83.64,146.244l58.071-48.233a66.445,66.445,0,0,0,1.721-8.491L75,146.377c1.106.058,2.22.1,3.326.1C80.123,146.468,81.886,146.385,83.64,146.244Z" transform="translate(-12.63 -15.075)" fill="url(#linear-gradient-13)"/>
      <path id="Trazado_15" data-name="Trazado 15" d="M94.47,148.4a65.772,65.772,0,0,0,48.083-39.917Z" transform="translate(-15.908 -18.268)" fill="url(#linear-gradient-10)"/>
    </g>
  </g>
  <g id="Layer_2-2" data-name="Layer 2" transform="matrix(-0.017, -1, 1, -0.017, 494.379, 80.391)">
    <g id="Layer_1-2" data-name="Layer 1" transform="translate(0 0)">
      <path id="Trazado_1" data-name="Trazado 1" d="M39.489,79.024A39.512,39.512,0,1,1,79.024,39.5,39.512,39.512,0,0,1,39.489,79.024Zm0-72.223A32.688,32.688,0,1,0,72.2,39.5,32.688,32.688,0,0,0,39.489,6.8Z" fill="url(#linear-gradient-15)"/>
    </g>
  </g>
</svg>
