<svg xmlns="http://www.w3.org/2000/svg" width="568" height="560.1" viewBox="0 0 568 560.1">
  <g id="Grupo_19" data-name="Grupo 19" transform="translate(-1064 -1499.08)">
    <g id="Floor" transform="translate(1064 1765.826)">
      <path id="Path_1" data-name="Path 1" d="M117.866,471.215c110.9,57.279,290.73,57.293,401.639,0s110.9-150.15,0-207.429-290.73-57.286-401.641.007S6.955,413.934,117.866,471.215Z" transform="translate(-34.682 -220.826)" fill="#1c4a83" opacity="0.16"/>
    </g>
    <g id="Characters" transform="translate(1227.787 1499.08)">
      <g id="Group_136" data-name="Group 136" transform="translate(0 58.591)">
        <g id="Group_124" data-name="Group 124" transform="translate(0 72.057)">
          <path id="Path_152" data-name="Path 152" d="M319.514,221.9c-7.487-2.342-15.168,3.712-20.179,15.942a479.653,479.653,0,0,0-17.119,51.583c-1.551,8.286,33.792,26.321,32.791,25.838S319.514,221.9,319.514,221.9Z" transform="translate(-282.166 -221.4)" fill="#263238"/>
        </g>
        <path id="Path_153" data-name="Path 153" d="M293.531,376.381c-1.055.4-1.32,2.409-1.48,6.407-.122,3.023-.77,8.3,2.775,9.358a11.078,11.078,0,0,0,11-2.337c2.833-3.557,4.751-6.689,8.795-11.031a30.66,30.66,0,0,0,8.715-12.562c1.261-4.772.215-6.84-3.039-8.231-4.477-1.909-11.511,4.326-15.021,5.305C302.25,364.139,294.586,375.982,293.531,376.381Z" transform="translate(-272.629 -16.203)" fill="#263238"/>
        <path id="Path_154" data-name="Path 154" d="M292.738,366.116v4.906a12.011,12.011,0,0,0,12.4.336c.215-.471,1.287-7.021,1.287-7.021Z" transform="translate(-271.833 -9.638)" fill="#ffa8a7"/>
        <path id="Path_155" data-name="Path 155" d="M314.3,381.409s-1.408,4.267-2.169,7.988a21.618,21.618,0,0,0-.42,10.157c1.038,2.232,5.091,3.67,11.351,3.624a36.913,36.913,0,0,1,14.752,5.154,38.959,38.959,0,0,0,18.552,2.943c5.591-.656,11.38-3.9,12.284-6.214s-.3-4.717-13.453-10.334c-.122-.05-18.313-5.966-24.686-13Z" transform="translate(-253.657 7.045)" fill="#263238"/>
        <path id="Path_156" data-name="Path 156" d="M312.835,378.726v5.722c0,2.081,2.438,5.183,8.8,4.956,4.469-.16,7.567-1.362,7.412-5.045v-5.322Z" transform="translate(-252.193 4.423)" fill="#ffa8a7"/>
        <g id="Group_125" data-name="Group 125" transform="translate(17.167 162.098)">
          <path id="Path_157" data-name="Path 157" d="M291.392,396.2a133.266,133.266,0,0,1,5.8-25.556s-1.753-22.05-2.594-42.956c-.908-22.58.046-50.965-.383-56.6,0,0,72.864-14.743,74.163,11.351s-2.876,92.547-3.737,104.016-2.842,21.609-5.213,40.195c-2.337,18.342-8.891,61.66-8.891,61.66a17.2,17.2,0,0,1-16.211-.332s-5.129-52.193-4.591-65.423a113.029,113.029,0,0,1,5.015-28.881s-1.383-21.52-2.6-40.245-2.522-27.713-2.8-35.856l-1.568-.778s-1.6,32.3-2.459,43.764-2.686,22.462-6,43.76c-2.875,18.477-11.447,57.574-11.447,57.574a10.93,10.93,0,0,1-13.293-.589S289.147,412.24,291.392,396.2Z" transform="translate(-290.849 -266.937)" fill="#455a64"/>
        </g>
        <g id="Group_126" data-name="Group 126" transform="translate(29.15 196.176)">
          <path id="Path_158" data-name="Path 158" d="M323.432,300.738a152.459,152.459,0,0,1-26.523-16.568,58.488,58.488,0,0,0,19,16.707S319.745,341,319.724,340.2l2.216-39.518Z" transform="translate(-296.909 -284.17)" fill="#37474f"/>
        </g>
        <path id="Path_159" data-name="Path 159" d="M331.007,219.811,326.7,243.543l-21.44-1.564,4.5-26.906Z" transform="translate(-259.598 -155.532)" fill="#ffa8a7"/>
        <g id="Group_127" data-name="Group 127" transform="translate(20.322 72.557)">
          <path id="Path_160" data-name="Path 160" d="M295.152,233.81c2.1-6.453,10.308-13.453,18.5-11.952a241.724,241.724,0,0,1,35.872,8.959c7.5,2.678,14.332,9.161,14.95,33.825l3.784,73.486-9.072,1.951-3.166-16.644-1.476,16.644c-9.493,2.392-25.951.42-36.777-1.951-22.538-4.923-25.253-14.273-25.253-14.273s-.29-41.355.383-59.218C293.5,249.469,293.693,238.249,295.152,233.81Z" transform="translate(-292.449 -221.652)" fill="#1c4a83"/>
        </g>
        <path id="Path_161" data-name="Path 161" d="M326.3,203.248s5.188,7.685,4.528,8.509a12.23,12.23,0,0,1-3.9,1.728Z" transform="translate(-239.038 -167.085)" fill="#ffa8a7"/>
        <path id="Path_162" data-name="Path 162" d="M335.119,191.875c5,2.522,13.638,7.189,16.021,25.485,2.447,18.784-.774,24.837-3.317,27.326-1.715,1.682-11.04,1.778-15.71.378-5.844-1.753-19.032-6.764-25.048-16.4-7.071-11.351-8.652-26.557-.673-32.6a30.033,30.033,0,0,1,28.726-4.191Z" transform="translate(-263.707 -180.066)" fill="#ffa8a7"/>
        <path id="Path_163" data-name="Path 163" d="M356.576,203.057c-1.644,4.507-4.41,15.555-15.916,20.146,0,0-1.644-7.029-7.567-6.285s-6.92,8.29-3.288,12.965,7.147,2.993,7.147,2.993.79,10.09-5.936,14.651a18.859,18.859,0,0,1-16.728,1.194c-3.872-1.778-9.345-11.052-12.562-18.666-6.8-16.1-7.773-29.008,2.522-33.081a12.158,12.158,0,0,1,11.183-11.439c14.264-2.943,25.043,6.432,37,4.776C358.686,189.449,358.455,197.907,356.576,203.057Z" transform="translate(-268.108 -184.959)" fill="#37474f"/>
        <path id="Path_164" data-name="Path 164" d="M303.653,195.262l-6.726-4.17a3.957,3.957,0,0,1,6.727,4.17Z" transform="translate(-267.74 -180.796)" fill="#37474f"/>
        <g id="Group_129" data-name="Group 129" transform="translate(42.987 66.615)">
          <g id="Group_128" data-name="Group 128" transform="translate(0 0)">
            <path id="Path_165" data-name="Path 165" d="M330.755,224.952l2.438,7.1s-1.787,3.17-9.451,3.325-15.794-2.266-18.338-5.528a5.747,5.747,0,0,1-1.434-4.767s3.04-6.726,5.924-6.424l-.488,2.909s.652,2.4,7.605,4.246C327.8,228.689,330.755,224.952,330.755,224.952Z" transform="translate(-303.901 -218.649)" fill="#455a64"/>
          </g>
        </g>
        <g id="Group_130" data-name="Group 130" transform="translate(131.32 95.7)">
          <path id="Path_166" data-name="Path 166" d="M348.577,257.769c3.094-3.536,4.275-11.393,8.408-16.766,4.028-5.242,5.625-9.316,7.252-6.966,2.152,3.107-2.7,9.324-1.627,9.947a32.314,32.314,0,0,1,5.524,13.373c.421,4.557-11.649,16-11.649,16Z" transform="translate(-348.577 -233.356)" fill="#ffa8a7"/>
        </g>
        <g id="Group_132" data-name="Group 132" transform="translate(69.836 72.922)">
          <g id="Group_131" data-name="Group 131" transform="translate(0 0)">
            <path id="Path_167" data-name="Path 167" d="M317.485,221.836a2.758,2.758,0,0,1,2.438,1.408,64.269,64.269,0,0,1,3.254,6.726l-3.254-1.059Z" transform="translate(-317.485 -221.836)" fill="#455a64"/>
          </g>
        </g>
        <g id="Group_133" data-name="Group 133" transform="translate(145.012 105.058)">
          <path id="Path_168" data-name="Path 168" d="M355.5,238.662s14.575-1.261,16.7-.038,1.484,7.567,0,11.439-8.917,6.39-15.82,11.061C356.341,260.46,355.5,238.662,355.5,238.662Z" transform="translate(-355.5 -238.09)" fill="#ffa8a7"/>
        </g>
        <g id="Group_135" data-name="Group 135" transform="translate(69.559 81.078)">
          <g id="Group_134" data-name="Group 134" transform="translate(0)">
            <path id="Path_169" data-name="Path 169" d="M323.309,225.962A27.562,27.562,0,0,1,340.9,241.651c7.513,14.117,21.815,36.709,21.815,36.709l16.4-14.453s2.48-2.4,7.088,5.213a15.786,15.786,0,0,1,1.682,14.046s-18.918,22.206-22.546,25.581-9.606.753-13.5-4.561-28.5-36.079-28.5-36.079S309.873,250.438,323.309,225.962Z" transform="translate(-317.344 -225.962)" fill="#37474f"/>
          </g>
        </g>
      </g>
      <g id="Group_145" data-name="Group 145" transform="translate(139.21 0)">
        <path id="Rectangle_1" data-name="Rectangle 1" d="M9.051,0H50.923a9.051,9.051,0,0,1,9.051,9.051v63.8a29.987,29.987,0,0,1-29.987,29.987h0A29.987,29.987,0,0,1,0,72.851V9.051A9.051,9.051,0,0,1,9.051,0Z" transform="translate(112.041 102.838) rotate(180)" fill="#37474f"/>
        <path id="Path_170" data-name="Path 170" d="M399.185,200.3c-4.536,13.365-12.129,51.751-12.129,51.751s-15.908,19.338-20.974,24.03c-2.825,2.6-9.19,7.29-9.19,7.29l11.57,8.517a257.929,257.929,0,0,0,29.34-26.414,16.744,16.744,0,0,0,4.1-7.66l7.908-33.931s-.05-27.292,4.2-30.874,5.364-4.334,5.364-4.334C414.017,188.285,402.746,189.79,399.185,200.3Z" transform="translate(-348.342 -122.783)" fill="#f28f8f"/>
        <path id="Path_171" data-name="Path 171" d="M406.406,188.618c-7.378-.841-16.816-.7-21.44,7.567s-12.276,50.789-12.276,50.789a27.889,27.889,0,0,0,15.092,5.545Z" transform="translate(-332.899 -123.12)" fill="#1c4a83"/>
        <g id="Group_138" data-name="Group 138" transform="translate(48.048 105.214)">
          <g id="Group_137" data-name="Group 137" transform="translate(0 0)">
            <path id="Path_172" data-name="Path 172" d="M381.809,208.537a76.514,76.514,0,0,1,1.534,19.338,108.428,108.428,0,0,1-6.474,23.446s4.6,5.07,17.6,3.035c10.577-1.656,6.84-33.577.757-39.757a20.023,20.023,0,0,0-13.419-6.062Z" transform="translate(-376.869 -208.537)" fill="#16365e"/>
          </g>
          <path id="Path_173" data-name="Path 173" d="M381.809,208.537a76.514,76.514,0,0,1,1.534,19.338,108.428,108.428,0,0,1-6.474,23.446s4.6,5.07,17.6,3.035c10.577-1.656,6.84-33.577.757-39.757a20.023,20.023,0,0,0-13.419-6.062Z" transform="translate(-376.869 -208.537)" fill="#16365e" opacity="0.3"/>
        </g>
        <path id="Path_174" data-name="Path 174" d="M402.876,324.833a7.079,7.079,0,0,1-1.051,4.149,51.8,51.8,0,0,1-6.853,8.984c-3.666,3.935-9.144,8.589-13.07,12.015-2.182,1.9-2.266,4.784.841,5.8a23.489,23.489,0,0,0,17.178-2.4c3.9-2.1,9.455-11.771,12.7-13.238a17.115,17.115,0,0,0,7.084-4.246,6.033,6.033,0,0,0,.761-7.492c-1.757-3.271-4.4-8.32-5.486-7.756l.336,1.043c-.841,2.67-8.131,5.776-11.864,5.045Z" transform="translate(-325.438 6.207)" fill="#1c4a83"/>
        <path id="Path_175" data-name="Path 175" d="M443.987,299.736c1.682-17.846,6.516-46.421,1.564-67.613L379.914,235.6c-1.824,20.911-3.91,86.157-1.681,93.623,2.649,8.828,26.317,69.858,27.616,82.142a6.727,6.727,0,0,1-1.043,4.1,52.791,52.791,0,0,1-6.861,8.988c-1.782,1.909-4,3.994-6.255,6.016a1.848,1.848,0,0,0-.328.954c0,2.039,4.973,2.581,7.882,1.736a18.359,18.359,0,0,0,8.988-6.907c1.682-2.237,5.465-6.537,7.84-9.749a16.344,16.344,0,0,0,2.1-3.237,6.618,6.618,0,0,0,.3-4.625l-.151-.479a51.885,51.885,0,0,1-2.367-12.347c-.921-13.453-3.22-44.562-5.364-52.857a72.775,72.775,0,0,0-6.726-17.329l7.492-58.3s.8,51.394,3.128,64.51c1.846,10.51,2.564,23.643,4.708,41.645,2.043,17.236,4.28,47.619,4.28,47.619a.444.444,0,0,0,.172.088v14.352h12.486v-8.408a69.6,69.6,0,0,1,.931-11.339c1.9-11.463,6.1-37.717,6.951-46.588a103.174,103.174,0,0,0-3.733-31.787S442.339,317.107,443.987,299.736Z" transform="translate(-328.431 -80.27)" fill="#ffa8a7"/>
        <g id="Group_139" data-name="Group 139" transform="translate(43.831 65.545)">
          <path id="Path_176" data-name="Path 176" d="M423.313,189.051s17.657,2.03,19.759,2.981c-16.568,11.654-3.153,37.592-3.153,37.592l-6.336,19.9c7.063,9.039,13.163,14.42,16.93,24.337,4.2,11.073,7.988,27.532,6.932,61.227-15.841,11.906-63.947,10.577-82.71,0,0,0,3.17-29.794,6.911-52.97,2.468-15.273,8.315-31.929,7.307-37.517-7.424-22.853-7.882-26.973-6.567-32.072,3.7-14.344,18.334-24.051,21.945-24.051Z" transform="translate(-374.735 -188.479)" fill="#68b744"/>
          <path id="Path_177" data-name="Path 177" d="M423.313,189.051s17.657,2.03,19.759,2.981c-16.568,11.654-3.153,37.592-3.153,37.592l-6.336,19.9c7.063,9.039,13.163,14.42,16.93,24.337,4.2,11.073,7.988,27.532,6.932,61.227-15.841,11.906-63.947,10.577-82.71,0,0,0,3.17-29.794,6.911-52.97,2.468-15.273,8.315-31.929,7.307-37.517-7.424-22.853-7.882-26.973-6.567-32.072,3.7-14.344,18.334-24.051,21.945-24.051Z" transform="translate(-374.735 -188.479)" fill="#68b744" opacity="0.6"/>
        </g>
        <path id="Path_178" data-name="Path 178" d="M410.5,332.779v-1.787a34.526,34.526,0,0,1-8.925,15.626c-3.939,3.594-9.312,7.739-10.674,11.746-1.421,4.166,6.344,5.814,11.439,5.305a20.554,20.554,0,0,0,12.814-6.706,43.251,43.251,0,0,0,4.7-8.3c1.509-2.043,4.994-4.33,5.814-6.7a15.094,15.094,0,0,0-.715-6.554c-.58-2.207-1.206-4.624-1.959-4.427v1.362a9.877,9.877,0,0,1-6.243,2.1C414.916,334.537,410.485,334.171,410.5,332.779Z" transform="translate(-315.272 16.347)" fill="#1c4a83"/>
        <path id="Path_179" data-name="Path 179" d="M419.7,332.35a9.875,9.875,0,0,1-6.243,2.1c-1.824.067-6.26-.294-6.243-1.681v-1.787a34.533,34.533,0,0,1-8.955,15.622c-.942.841-1.967,1.753-3,2.665-2.1,2.333-1.5,4.368,3.422,4.793a15.613,15.613,0,0,0,12.986-7.147A80.607,80.607,0,0,0,419.7,332.35Z" transform="translate(-311.976 16.351)" fill="#ffa8a7"/>
        <path id="Path_180" data-name="Path 180" d="M387.2,161.462c-3.166,1.871-7.08,9.837-6.7,26.54.328,14.155,4.915,17.657,7.218,18.657a24.342,24.342,0,0,0,11.069-.324v8.5s-5.974,6.937-5.6,10.83,8.622,4.814,14.21,1.009A45.15,45.15,0,0,0,417.7,215.446l-.1-19.532s2.522,2.468,6.853-1.3a8.063,8.063,0,0,0,1.984-11.174,6.2,6.2,0,0,0-9.863,1.967,18.833,18.833,0,0,0-12.351-9.917C395.233,172.552,390.344,169.168,387.2,161.462Z" transform="translate(-325.287 -149.333)" fill="#ffa8a7"/>
        <path id="Path_181" data-name="Path 181" d="M388.485,173.956a1.782,1.782,0,1,0,1.871-1.761,1.812,1.812,0,0,0-1.871,1.762Z" transform="translate(-317.462 -138.84)" fill="#37474f"/>
        <path id="Path_182" data-name="Path 182" d="M390.291,179.154l-4.137,1.316a2.131,2.131,0,0,0,2.691,1.484,2.27,2.27,0,0,0,1.446-2.8Z" transform="translate(-319.743 -132.04)" fill="#f28f8f"/>
        <path id="Path_183" data-name="Path 183" d="M381.284,172.047l3.6-2.5a2.1,2.1,0,0,0-2.993-.614A2.3,2.3,0,0,0,381.284,172.047Z" transform="translate(-324.853 -142.401)" fill="#37474f"/>
        <path id="Path_184" data-name="Path 184" d="M392.887,172.713l-3.6-2.5a2.1,2.1,0,0,1,2.989-.614,2.3,2.3,0,0,1,.614,3.111Z" transform="translate(-316.685 -141.746)" fill="#37474f"/>
        <path id="Path_185" data-name="Path 185" d="M381.524,173.308a1.783,1.783,0,1,0,1.871-1.766,1.812,1.812,0,0,0-1.871,1.766Z" transform="translate(-324.265 -139.483)" fill="#37474f"/>
        <path id="Path_186" data-name="Path 186" d="M388.7,171.919l-.282,10.716-5.638-1.745Z" transform="translate(-323.038 -139.111)" fill="#f28f8f"/>
        <path id="Path_187" data-name="Path 187" d="M389.742,187.612c4.553-.6,13.915-3.288,15.374-6.991a9.58,9.58,0,0,1-3.283,4.725,49.259,49.259,0,0,1-12.091,5.1Z" transform="translate(-316.234 -130.606)" fill="#f28f8f"/>
        <path id="Path_188" data-name="Path 188" d="M412.2,213.85l-12.461,16.887,9.4-6.02Z" transform="translate(-306.461 -98.131)" fill="#27debf"/>
        <g id="Group_140" data-name="Group 140" transform="translate(0 156.587)">
          <path id="Path_189" data-name="Path 189" d="M360.03,238.5a96.647,96.647,0,0,0-5.722,12.381c-1.4,2.249-3.09,4.2,0,4.624s7.567-5.621,9.274-9.274a8.828,8.828,0,0,1,4.5-4.624c-1.455-.488-.685-6.306-1.711-7.1C366.366,234.506,361.111,236.655,360.03,238.5Z" transform="translate(-352.568 -234.515)" fill="#f28f8f"/>
        </g>
        <g id="Group_141" data-name="Group 141" transform="translate(6.676 171.616)">
          <path id="Path_190" data-name="Path 190" d="M355.944,257.2c2.787-2.1,2.871-4.625,3.418-8.69s11.7-8.408,12.049-5.4a8.951,8.951,0,0,1-2.06,9.219C365.928,255.971,361.048,259.9,355.944,257.2Z" transform="translate(-355.944 -242.11)" fill="#f28f8f"/>
        </g>
        <g id="Group_142" data-name="Group 142" transform="translate(84.646 66.116)">
          <path id="Path_191" data-name="Path 191" d="M403.14,188.764a125.331,125.331,0,0,1,19.759,2.981c3.241,1.547,8.635,10.867,3.8,24.425s-9.2,29.474-8.711,32.678,12.015,19.759,12.015,19.759a31.338,31.338,0,0,1-10.6,5.091L413.5,260.8l1.387,13.7a70.322,70.322,0,0,1-18.216,1.913S391.083,223.855,403.14,188.764Z" transform="translate(-395.378 -188.764)" fill="#1c4a83"/>
        </g>
        <g id="Group_143" data-name="Group 143" transform="translate(98.32 112.684)">
          <path id="Path_192" data-name="Path 192" d="M437.122,230.3c1.307-7.8,0-10.346-2.745-17.989l-13.936,8.959a29.581,29.581,0,0,1,2.064,9.03,212.1,212.1,0,0,1-6.062,32.371,6.016,6.016,0,0,1-2.842,3.2,34.422,34.422,0,0,0-7.672,6.373c-2.1,1.925-3.826,2.325-3.611,3A3.246,3.246,0,0,0,406.369,277a22.737,22.737,0,0,0,4.914-2.245,30.168,30.168,0,0,1-5.427,7.988c-5.078,5.419-5.524,8.934,3.927,9.669,5.924.458,10.9-2.871,16.257-15.622a119.46,119.46,0,0,0,4.1-14.294C432.989,251.383,435.806,238.149,437.122,230.3Z" transform="translate(-402.292 -212.315)" fill="#ffa8a7"/>
        </g>
        <g id="Group_144" data-name="Group 144" transform="translate(104.475 69.097)">
          <path id="Path_193" data-name="Path 193" d="M413.111,190.271c6.663,2.993,8.555,8.883,11.023,17.543s10.232,34.641,10.232,34.641a17.089,17.089,0,0,1-15.908,5.692l-11.771-28.818S401.134,200.533,413.111,190.271Z" transform="translate(-405.402 -190.271)" fill="#1c4a83"/>
        </g>
      </g>
    </g>
    <g id="Plants" transform="translate(1145.988 1811.355)">
      <g id="Group_12" data-name="Group 12" transform="translate(0 0)">
        <g id="Group_7" data-name="Group 7">
          <g id="Group_5" data-name="Group 5">
            <path id="Path_2" data-name="Path 2" d="M158.882,343.23c-2.663-13.77-12.159-33.4-23.8-44.318-11.2-10.517-27.828-14.176-34.452-9.344s-2.279,15.339,10.573,28.116c14.508,14.414,42.373,54.394,47.667,77.048Z" transform="translate(-97.563 -287.467)" fill="#3a7420"/>
          </g>
          <g id="Group_6" data-name="Group 6" opacity="0.2">
            <path id="Path_3" data-name="Path 3" d="M158.882,343.23c-2.663-13.77-12.159-33.4-23.8-44.318-11.2-10.517-27.828-14.176-34.452-9.344s-2.279,15.339,10.573,28.116c14.508,14.414,42.373,54.394,47.667,77.048Z" transform="translate(-97.563 -287.467)" fill="#3a7420"/>
          </g>
        </g>
        <g id="Group_8" data-name="Group 8" transform="translate(9.385 5.239)">
          <path id="Path_4" data-name="Path 4" d="M156.687,375.132a.654.654,0,0,1-.649-.59c-3.293-34.693-27.54-73.685-50.883-81.8a.652.652,0,0,1,.428-1.229c24.176,8.41,48.36,47.155,51.753,82.915a.652.652,0,0,1-.588.711Z" transform="translate(-104.746 -291.481)" fill="#fff"/>
        </g>
        <g id="Group_11" data-name="Group 11" transform="translate(7.481 40.662)">
          <g id="Group_9" data-name="Group 9" transform="translate(0 0)">
            <path id="Path_5" data-name="Path 5" d="M157.142,401.895s-4.51,3.6-19.571,2.193-22.8-12.169-22.8-16.787,13.827-5.41,16.829-16.851a19.981,19.981,0,0,1-11.535,6.118c-7.849,1.475-14.1-1.033-15.89-15.292a25.458,25.458,0,0,0,11.505-.954c6.192-1.989,7.667-5.388,6.044-6.12s-10.239.069-15.774-2.1-1.242-30.889,2.316-32.95,20.773,2.784,24.112,5.366a12.929,12.929,0,0,1,5.164,14.687,21.121,21.121,0,0,0,5.181-7.667c1.62-3.961,2.786-3,5.242-1.512a11.749,11.749,0,0,1,5.722,7.844c.58,3.654-.359,16.251-5.5,20.343,0,0,4.93.632,8.958-7.7,0,0,7.869,3.157,9.59,8.274S170.526,388.914,157.142,401.895Z" transform="translate(-103.296 -318.654)" fill="#68b744"/>
          </g>
          <g id="Group_10" data-name="Group 10" transform="translate(8.365 5.217)">
            <path id="Path_6" data-name="Path 6" d="M156.515,403.521a.652.652,0,0,1-.644-.573c-3.443-28.175-24.87-65.137-45.869-79.1a.652.652,0,0,1,.723-1.085c21.262,14.144,42.965,51.539,46.44,80.031a.652.652,0,0,1-.568.738Z" transform="translate(-109.711 -322.65)" fill="#fff"/>
          </g>
        </g>
      </g>
    </g>
  </g>
</svg>
