<svg xmlns="http://www.w3.org/2000/svg" width="27.385" height="27.385" viewBox="0 0 27.385 27.385">
  <g id="assignment_ind_black_24dp" transform="translate(0 0)">
    <path id="Trazado_320" data-name="Trazado 320" d="M0,0H27.385V27.385H0Z" transform="translate(0 0)" fill="none"/>
    <path id="Trazado_321" data-name="Trazado 321" d="M21.257,3.282h-4.77a3.41,3.41,0,0,0-6.436,0H5.282A2.289,2.289,0,0,0,3,5.564V21.539a2.289,2.289,0,0,0,2.282,2.282H21.257a2.289,2.289,0,0,0,2.282-2.282V5.564A2.289,2.289,0,0,0,21.257,3.282ZM13.269,3a.875.875,0,1,1-.628.285A.854.854,0,0,1,13.269,3Zm7.987,18.542H5.282V5.564H21.257ZM13.269,6.705a3.423,3.423,0,1,0,3.423,3.423A3.433,3.433,0,0,0,13.269,6.705Zm0,4.564a1.141,1.141,0,1,1,1.141-1.141A1.144,1.144,0,0,1,13.269,11.269ZM6.423,18.652V20.4H20.116V18.652c0-2.853-4.53-4.085-6.846-4.085S6.423,15.788,6.423,18.652Zm2.636-.536a8,8,0,0,1,4.21-1.278,7.967,7.967,0,0,1,4.21,1.278Z" transform="translate(0.423 0.141)" fill="#6b89ae"/>
  </g>
</svg>
