<svg id="post-linkedin" xmlns="http://www.w3.org/2000/svg" width="15.934" height="15.934" viewBox="0 0 15.934 15.934">
  <path id="Trazado_25" data-name="Trazado 25" d="M14.34,0H1.593A1.6,1.6,0,0,0,0,1.593V14.34a1.6,1.6,0,0,0,1.593,1.593H14.34a1.6,1.6,0,0,0,1.593-1.593V1.593A1.6,1.6,0,0,0,14.34,0ZM4.78,13.544H2.39V6.373H4.78Zm-1.2-8.525A1.434,1.434,0,1,1,5.019,3.585,1.428,1.428,0,0,1,3.585,5.019Zm9.959,8.525h-2.39V9.321a1.2,1.2,0,1,0-2.39,0v4.222H6.373V6.373h2.39V7.33a2.573,2.573,0,0,1,1.992-1.115A2.823,2.823,0,0,1,13.544,9Z" transform="translate(0 0)" fill="#1c4a83"/>
</svg>
