<svg xmlns="http://www.w3.org/2000/svg" width="20.901" height="14.866" viewBox="0 0 20.901 14.866">
  <g id="Grupo_555" data-name="Grupo 555" transform="translate(-26.239 -1.142)">
    <g id="Grupo_554" data-name="Grupo 554" transform="translate(26.239 1.142)">
      <path id="Trazado_4565" data-name="Trazado 4565" d="M39.5,5.352h0A4.32,4.32,0,1,0,43.77,9.717V9.672A4.3,4.3,0,0,0,39.5,5.352Zm.044,6.72A2.4,2.4,0,0,1,37.12,9.693V9.672a2.388,2.388,0,0,1,2.375-2.4h0a2.4,2.4,0,0,1,.044,4.8Z" transform="translate(-29.047 -2.472)" fill="#1c4a83"/>
      <path id="Trazado_4566" data-name="Trazado 4566" d="M32.682,12.716a9.291,9.291,0,0,1-4.374-4.374,9.291,9.291,0,0,1,16.761,0,9.258,9.258,0,0,1-2.235,2.96l1.244,1.431A11.165,11.165,0,0,0,47.14,8.342a11.184,11.184,0,0,0-20.9,0,11.184,11.184,0,0,0,14.435,6.466c.092-.036.179-.082.27-.12L39.6,13.148A9.251,9.251,0,0,1,32.682,12.716Z" transform="translate(-26.239 -1.142)" fill="#1c4a83"/>
    </g>
    <rect id="Rectángulo_243" data-name="Rectángulo 243" width="6.781" height="2.746" transform="translate(39.653 9.089) rotate(48.99)" fill="#1c4a83"/>
  </g>
</svg>
