<svg id="Componente_12_1" data-name="Componente 12 – 1" xmlns="http://www.w3.org/2000/svg" xmlns:xlink="http://www.w3.org/1999/xlink" width="658.548" height="617.352" viewBox="0 0 658.548 617.352">
  <defs>
    <clipPath id="clip-path">
      <path id="Path_124" data-name="Path 124" d="M179.809,139.212c-12.722,7.172-23.034,25.033-23.034,39.893s10.312,20.957,23.034,13.607,23.031-25.2,23.031-39.893S192.528,132.038,179.809,139.212Z" transform="translate(-156.775 -136.203)" fill="none"/>
    </clipPath>
    <linearGradient id="linear-gradient" y1="0.5" x2="1" y2="0.5" gradientUnits="objectBoundingBox">
      <stop offset="0" stop-color="#5db64b"/>
      <stop offset="0.23" stop-color="#4da667"/>
      <stop offset="0.72" stop-color="#247ead"/>
      <stop offset="1" stop-color="#0c66d8"/>
    </linearGradient>
    <linearGradient id="linear-gradient-4" x1="0" y1="0.5" y2="0.5" xlink:href="#linear-gradient"/>
    <linearGradient id="linear-gradient-6" x1="0" y1="0.499" y2="0.499" xlink:href="#linear-gradient"/>
    <linearGradient id="linear-gradient-10" x1="0" y1="0.5" y2="0.5" xlink:href="#linear-gradient"/>
    <linearGradient id="linear-gradient-12" x1="0" y1="0.5" y2="0.5" xlink:href="#linear-gradient"/>
    <linearGradient id="linear-gradient-13" x1="0" y1="0.5" y2="0.5" xlink:href="#linear-gradient"/>
  </defs>
  <g id="Grupo_16" data-name="Grupo 16">
    <g id="Floor" transform="translate(0 362.229)">
      <path id="Path_1" data-name="Path 1" d="M107.025,438.584c96.446,49.814,252.841,49.827,349.3,0s96.446-130.582,0-180.4-252.841-49.82-349.3.006S10.569,388.768,107.025,438.584Z" transform="translate(-34.682 -220.826)" fill="#f1f1f1"/>
    </g>
    <g id="Plants" transform="translate(71.303 401.824)">
      <g id="Group_12" data-name="Group 12" transform="translate(0 0)">
        <g id="Group_7" data-name="Group 7">
          <g id="Group_5" data-name="Group 5">
            <path id="Path_2" data-name="Path 2" d="M150.891,335.963c-2.316-11.976-10.575-29.045-20.694-38.542-9.743-9.146-24.2-12.328-29.962-8.126s-1.982,13.34,9.2,24.451c12.617,12.536,36.85,47.305,41.454,67.007Z" transform="translate(-97.563 -287.467)" fill="#3a7420"/>
          </g>
          <g id="Group_6" data-name="Group 6" opacity="0.2">
            <path id="Path_3" data-name="Path 3" d="M150.891,335.963c-2.316-11.976-10.575-29.045-20.694-38.542-9.743-9.146-24.2-12.328-29.962-8.126s-1.982,13.34,9.2,24.451c12.617,12.536,36.85,47.305,41.454,67.007Z" transform="translate(-97.563 -287.467)" fill="#3a7420"/>
          </g>
        </g>
        <g id="Group_8" data-name="Group 8" transform="translate(8.162 4.556)">
          <path id="Path_4" data-name="Path 4" d="M149.918,364.23a.569.569,0,0,1-.565-.513c-2.863-30.172-23.951-64.082-44.252-71.143a.567.567,0,0,1,.372-1.069c21.026,7.314,42.058,41.01,45.009,72.11a.567.567,0,0,1-.511.618Z" transform="translate(-104.746 -291.481)" fill="#fff"/>
        </g>
        <g id="Group_11" data-name="Group 11" transform="translate(6.506 35.363)">
          <g id="Group_9" data-name="Group 9" transform="translate(0 0)">
            <path id="Path_5" data-name="Path 5" d="M150.124,391.046s-3.922,3.135-17.02,1.908-19.83-10.583-19.83-14.6,12.025-4.7,14.636-14.655a17.378,17.378,0,0,1-10.032,5.321c-6.826,1.283-12.264-.9-13.819-13.3a22.139,22.139,0,0,0,10.006-.83c5.385-1.73,6.668-4.685,5.256-5.323s-8.9.06-13.718-1.826-1.08-26.864,2.014-28.656,18.066,2.421,20.97,4.666a11.244,11.244,0,0,1,4.491,12.773,18.368,18.368,0,0,0,4.506-6.668c1.409-3.445,2.423-2.609,4.559-1.315a10.217,10.217,0,0,1,4.976,6.822c.5,3.178-.312,14.133-4.786,17.692,0,0,4.288.55,7.79-6.693,0,0,6.843,2.746,8.34,7.2S161.764,379.757,150.124,391.046Z" transform="translate(-103.296 -318.654)" fill="#68b744"/>
          </g>
          <g id="Group_10" data-name="Group 10" transform="translate(7.275 4.537)">
            <path id="Path_6" data-name="Path 6" d="M150.415,392.982a.567.567,0,0,1-.56-.5c-2.994-24.5-21.629-56.648-39.891-68.795a.567.567,0,1,1,.629-.943c18.491,12.3,37.366,44.822,40.387,69.6a.567.567,0,0,1-.494.642Z" transform="translate(-109.711 -322.651)" fill="#fff"/>
          </g>
        </g>
      </g>
    </g>
    <path id="Path_7" data-name="Path 7" d="M146.894,605.414a8.933,8.933,0,0,1-2.3-6.071V204.466a9.092,9.092,0,0,1,2.455-6.2L317.186,55.1a3.832,3.832,0,0,1,4.76-.128,8.93,8.93,0,0,1,2.3,6.071L151.653,605.284a3.834,3.834,0,0,1-4.758.13Z" transform="translate(-17.678 -54.203)" fill="#e0e0e0"/>
    <g id="Group_13" data-name="Group 13" transform="translate(126.913 91.983)">
      <path id="Path_8" data-name="Path 8" d="M149.2,155.306l69.1-45.212-4.608-2.66L147.046,145.91a5.425,5.425,0,0,0-2.455,4.253v2.485Z" transform="translate(-144.591 -107.434)" fill="#37474f"/>
      <path id="Path_9" data-name="Path 9" d="M149.2,155.306l69.1-45.212-4.608-2.66L147.046,145.91a5.425,5.425,0,0,0-2.455,4.253v2.485Z" transform="translate(-144.591 -107.434)" fill="#37474f" opacity="0.2"/>
    </g>
    <g id="Group_14" data-name="Group 14" transform="translate(126.91 273.949)">
      <path id="Path_10" data-name="Path 10" d="M172.23,158.519l-26.919-15.54a5.022,5.022,0,0,0-.719,2.419V416.322a4.613,4.613,0,0,0,7.057,4.078l20.574-11.879Z" transform="translate(-144.59 -142.979)" fill="#263238"/>
      <path id="Path_11" data-name="Path 11" d="M172.23,158.519l-26.919-15.54a5.022,5.022,0,0,0-.719,2.419V416.322a4.613,4.613,0,0,0,7.057,4.078l20.574-11.879Z" transform="translate(-144.59 -142.979)" fill="#263238" opacity="0.4"/>
    </g>
    <path id="Path_12" data-name="Path 12" d="M151.108,605.066,321.241,461.509A9.131,9.131,0,0,0,323.7,455.3V59.353c0-2.288-1.1-3.208-2.455-2.072L151.108,200.837a9.138,9.138,0,0,0-2.457,6.214V602.994C148.653,605.28,149.752,606.208,151.108,605.066Z" transform="translate(-17.134 -53.852)" fill="#1c4a83"/>
    <path id="Path_14" data-name="Path 14" d="M161.691,205.51l40.845-23.583c2.712-1.565,4.919-.453,4.919,2.483a10.525,10.525,0,0,1-4.919,8.154l-40.845,23.585c-2.712,1.565-4.919.453-4.919-2.485a10.532,10.532,0,0,1,4.919-8.154Z" transform="translate(-16.049 35.571)" fill="#68b744"/>
    <path id="Path_15" data-name="Path 15" d="M161.691,219.329l27.03-15.611c2.712-1.565,4.919-.453,4.919,2.483a10.532,10.532,0,0,1-4.919,8.154l-27.03,15.611c-2.712,1.565-4.919.453-4.919-2.485a10.53,10.53,0,0,1,4.919-8.152Z" transform="translate(-16.049 49.035)" fill="#68b744"/>
    <path id="Path_16" data-name="Path 16" d="M158.739,243.055l5.284-3.05c1.084-.627,1.963-.12,1.963,1.133v6.1a4.343,4.343,0,0,1-1.963,3.4l-5.284,3.049c-1.084.627-1.963.12-1.963-1.133v-6.1a4.345,4.345,0,0,1,1.963-3.4Z" transform="translate(-16.044 70.687)" fill="#27debf"/>
    <path id="Path_17" data-name="Path 17" d="M158.739,243.055l5.284-3.05c1.084-.627,1.963-.12,1.963,1.133v6.1a4.343,4.343,0,0,1-1.963,3.4l-5.284,3.049c-1.084.627-1.963.12-1.963-1.133v-6.1a4.345,4.345,0,0,1,1.963-3.4Z" transform="translate(-16.044 70.687)" fill="#68b744"/>
    <g id="Group_18" data-name="Group 18" transform="translate(140.732 341.814)">
      <g id="Group_16" data-name="Group 16" transform="translate(0 0)">
        <path id="Path_18" data-name="Path 18" d="M158.739,261.819l5.284-3.052c1.084-.627,1.963-.12,1.963,1.133V266a4.343,4.343,0,0,1-1.963,3.4l-5.284,3.052c-1.084.627-1.963.12-1.963-1.133v-6.1a4.343,4.343,0,0,1,1.963-3.4Z" transform="translate(-156.776 -258.498)" fill="#68b744"/>
      </g>
      <g id="Group_17" data-name="Group 17" transform="translate(0 0)" opacity="0.2">
        <path id="Path_19" data-name="Path 19" d="M158.739,261.819l5.284-3.052c1.084-.627,1.963-.12,1.963,1.133V266a4.343,4.343,0,0,1-1.963,3.4l-5.284,3.052c-1.084.627-1.963.12-1.963-1.133v-6.1a4.343,4.343,0,0,1,1.963-3.4Z" transform="translate(-156.776 -258.498)" fill="#68b744"/>
      </g>
    </g>
    <g id="Group_19" data-name="Group 19" transform="translate(154.551 313.609)">
      <path id="Path_20" data-name="Path 20" d="M171.417,258.707l31.94-18.442c1.356-.783,2.455-.227,2.455,1.242a5.263,5.263,0,0,1-2.455,4.076l-31.94,18.442c-1.356.783-2.455.227-2.455-1.242A5.267,5.267,0,0,1,171.417,258.707Z" transform="translate(-168.962 -239.91)" fill="#68b744"/>
      <path id="Path_21" data-name="Path 21" d="M171.417,258.707l31.94-18.442c1.356-.783,2.455-.227,2.455,1.242a5.263,5.263,0,0,1-2.455,4.076l-31.94,18.442c-1.356.783-2.455.227-2.455-1.242A5.267,5.267,0,0,1,171.417,258.707Z" transform="translate(-168.962 -239.91)" fill="#68b744" opacity="0.2"/>
    </g>
    <g id="Group_20" data-name="Group 20" transform="translate(140.732 373.203)">
      <path id="Path_22" data-name="Path 22" d="M158.739,280.579l5.284-3.052c1.084-.627,1.963-.118,1.963,1.133v6.1a4.339,4.339,0,0,1-1.963,3.4l-5.284,3.052c-1.084.627-1.963.118-1.963-1.133v-6.11A4.341,4.341,0,0,1,158.739,280.579Z" transform="translate(-156.776 -277.26)" fill="#e0e0e0"/>
    </g>
    <g id="Group_21" data-name="Group 21" transform="translate(154.551 345.293)">
      <path id="Path_23" data-name="Path 23" d="M171.417,277.467l31.94-18.44c1.356-.783,2.455-.229,2.455,1.242a5.263,5.263,0,0,1-2.455,4.076l-31.94,18.442c-1.356.783-2.455.227-2.455-1.242A5.269,5.269,0,0,1,171.417,277.467Z" transform="translate(-168.962 -258.672)" fill="#f0f0f0"/>
    </g>
    <g id="Group_22" data-name="Group 22" transform="translate(140.732 404.677)">
      <path id="Path_24" data-name="Path 24" d="M158.739,299.391l5.284-3.052c1.084-.627,1.963-.118,1.963,1.133v6.1a4.339,4.339,0,0,1-1.963,3.4l-5.284,3.052c-1.084.627-1.963.118-1.963-1.133v-6.1A4.341,4.341,0,0,1,158.739,299.391Z" transform="translate(-156.776 -296.071)" fill="#e0e0e0"/>
    </g>
    <g id="Group_23" data-name="Group 23" transform="translate(154.551 377.058)">
      <path id="Path_25" data-name="Path 25" d="M171.417,296.279l31.94-18.442c1.356-.783,2.455-.227,2.455,1.242a5.265,5.265,0,0,1-2.455,4.076l-31.94,18.44c-1.356.783-2.455.229-2.455-1.242a5.267,5.267,0,0,1,2.455-4.074Z" transform="translate(-168.962 -277.482)" fill="#f0f0f0"/>
    </g>
    <g id="Group_24" data-name="Group 24" transform="translate(140.732 436.066)">
      <path id="Path_26" data-name="Path 26" d="M158.739,318.151l5.284-3.052c1.084-.627,1.963-.118,1.963,1.133v6.1a4.339,4.339,0,0,1-1.963,3.4l-5.284,3.052c-1.084.627-1.963.118-1.963-1.133v-6.1a4.341,4.341,0,0,1,1.963-3.4Z" transform="translate(-156.776 -314.831)" fill="#e0e0e0"/>
    </g>
    <g id="Group_25" data-name="Group 25" transform="translate(154.551 408.74)">
      <path id="Path_27" data-name="Path 27" d="M171.417,315.039l31.94-18.442c1.356-.783,2.455-.227,2.455,1.242a5.263,5.263,0,0,1-2.455,4.076l-31.94,18.442c-1.356.783-2.455.227-2.455-1.242a5.267,5.267,0,0,1,2.455-4.076Z" transform="translate(-168.962 -296.242)" fill="#f0f0f0"/>
    </g>
    <g id="Group_26" data-name="Group 26" transform="translate(140.732 479.613)">
      <path id="Path_28" data-name="Path 28" d="M159.232,337.815l22.728-13.122c1.356-.783,2.455-.227,2.455,1.242a5.267,5.267,0,0,1-2.455,4.076l-22.728,13.124c-1.356.783-2.455.227-2.455-1.242a5.265,5.265,0,0,1,2.455-4.078Z" transform="translate(-156.777 -324.338)" fill="#68b744"/>
    </g>
    <g id="Group_27" data-name="Group 27" transform="translate(140.732 476.955)">
      <path id="Path_29" data-name="Path 29" d="M159.232,348.767,205,322.348c1.356-.783,2.455-.227,2.455,1.242A5.262,5.262,0,0,1,205,327.666l-45.764,26.419c-1.356.783-2.455.227-2.455-1.242A5.265,5.265,0,0,1,159.232,348.767Z" transform="translate(-156.777 -321.993)" fill="#27debf"/>
      <path id="Path_30" data-name="Path 30" d="M159.232,348.767,205,322.348c1.356-.783,2.455-.227,2.455,1.242A5.262,5.262,0,0,1,205,327.666l-45.764,26.419c-1.356.783-2.455.227-2.455-1.242A5.265,5.265,0,0,1,159.232,348.767Z" transform="translate(-156.777 -321.993)" fill="#fff" opacity="0.8"/>
    </g>
    <g id="Group_28" data-name="Group 28" transform="translate(140.73 484.932)">
      <path id="Path_31" data-name="Path 31" d="M159.233,347.825l31.94-18.442c1.356-.783,2.455-.227,2.455,1.242a5.265,5.265,0,0,1-2.457,4.076l-31.94,18.442c-1.356.783-2.455.227-2.455-1.242a5.265,5.265,0,0,1,2.457-4.076Z" transform="translate(-156.776 -329.028)" fill="#68b744"/>
    </g>
    <path id="Path_32" data-name="Path 32" d="M159.232,356.566l22.728-13.122c1.356-.783,2.455-.227,2.455,1.242a5.269,5.269,0,0,1-2.455,4.078l-22.728,13.122c-1.356.783-2.455.227-2.455-1.242A5.265,5.265,0,0,1,159.232,356.566Z" transform="translate(-16.045 157.789)" fill="#27debf"/>
    <g id="Group_29" data-name="Group 29" transform="translate(154.551 281.926)">
      <path id="Path_33" data-name="Path 33" d="M171.417,239.945l31.94-18.442c1.356-.783,2.455-.227,2.455,1.242a5.263,5.263,0,0,1-2.455,4.076l-31.94,18.442c-1.356.783-2.455.227-2.455-1.242A5.267,5.267,0,0,1,171.417,239.945Z" transform="translate(-168.962 -221.148)" fill="#68b744"/>
      <path id="Path_34" data-name="Path 34" d="M171.417,239.945l31.94-18.442c1.356-.783,2.455-.227,2.455,1.242a5.263,5.263,0,0,1-2.455,4.076l-31.94,18.442c-1.356.783-2.455.227-2.455-1.242A5.267,5.267,0,0,1,171.417,239.945Z" transform="translate(-168.962 -221.148)" fill="#68b744" opacity="0.2"/>
    </g>
    <g id="Group_30" data-name="Group 30" transform="translate(140.732 500.878)">
      <path id="Path_35" data-name="Path 35" d="M159.232,356.566l22.728-13.122c1.356-.783,2.455-.227,2.455,1.242a5.269,5.269,0,0,1-2.455,4.078l-22.728,13.122c-1.356.783-2.455.227-2.455-1.242A5.265,5.265,0,0,1,159.232,356.566Z" transform="translate(-156.777 -343.089)" fill="#68b744"/>
    </g>
    <g id="Group_31" data-name="Group 31" transform="translate(140.732 498.218)">
      <path id="Path_36" data-name="Path 36" d="M159.232,367.518,205,341.1c1.356-.783,2.455-.227,2.455,1.242A5.263,5.263,0,0,1,205,346.417l-45.763,26.421c-1.356.783-2.455.227-2.455-1.242A5.265,5.265,0,0,1,159.232,367.518Z" transform="translate(-156.777 -340.744)" fill="#27debf"/>
      <path id="Path_37" data-name="Path 37" d="M159.232,367.518,205,341.1c1.356-.783,2.455-.227,2.455,1.242A5.263,5.263,0,0,1,205,346.417l-45.763,26.421c-1.356.783-2.455.227-2.455-1.242A5.265,5.265,0,0,1,159.232,367.518Z" transform="translate(-156.777 -340.744)" fill="#fff" opacity="0.8"/>
    </g>
    <g id="Group_32" data-name="Group 32" transform="translate(140.73 500.878)">
      <path id="Path_38" data-name="Path 38" d="M159.233,367.2l41.153-23.761c1.356-.783,2.455-.227,2.455,1.242a5.265,5.265,0,0,1-2.457,4.078l-41.153,23.761c-1.356.783-2.455.227-2.455-1.242a5.265,5.265,0,0,1,2.457-4.078Z" transform="translate(-156.776 -343.089)" fill="#68b744"/>
    </g>
    <g id="Group_33" data-name="Group 33" transform="translate(200.616 2.941)">
      <path id="Path_39" data-name="Path 39" d="M313.075,57.3,209.583,147.8V566.745l103.5-90.5a9.648,9.648,0,0,0,2.455-6.441V59.448C315.53,57.077,314.431,56.116,313.075,57.3Z" transform="translate(-209.583 -56.794)" fill="#ebebeb"/>
      <path id="Path_40" data-name="Path 40" d="M313.075,57.3,209.583,147.8V566.745l103.5-90.5a9.648,9.648,0,0,0,2.455-6.441V59.448C315.53,57.077,314.431,56.116,313.075,57.3Z" transform="translate(-209.583 -56.794)" fill="#fafafa" opacity="0.6"/>
    </g>
    <path id="Path_41" data-name="Path 41" d="M210.672,125.761v21.276l-9.215,10.637h9.213v21.278L307.4,123.1V69.91Z" transform="translate(-10.058 -52.096)" fill="#68b744"/>
    <g id="Group_34" data-name="Group 34" transform="translate(209.826 51.308)" opacity="0.6">
      <path id="Path_42" data-name="Path 42" d="M221.143,122.544l39.19-22.627c1.9-1.095,3.437-.214,3.437,1.984v.041a7.6,7.6,0,0,1-3.436,5.954l-39.188,22.627c-1.9,1.095-3.439.214-3.439-1.984V128.5A7.6,7.6,0,0,1,221.143,122.544Z" transform="translate(-217.706 -99.446)" fill="#fff"/>
    </g>
    <path id="Path_43" data-name="Path 43" d="M218.934,140.148l75.854-43.794c.678-.391,1.228-.113,1.228.622a2.634,2.634,0,0,1-1.228,2.038l-75.854,43.792c-.678.391-1.228.113-1.228-.62a2.632,2.632,0,0,1,1.228-2.038Z" transform="translate(-7.88 -48.576)" fill="#27debf"/>
    <g id="Group_35" data-name="Group 35" transform="translate(209.826 47.601)">
      <path id="Path_44" data-name="Path 44" d="M218.934,140.148l75.854-43.794c.678-.391,1.228-.113,1.228.622a2.634,2.634,0,0,1-1.228,2.038l-75.854,43.792c-.678.391-1.228.113-1.228-.62a2.632,2.632,0,0,1,1.228-2.038Z" transform="translate(-217.706 -96.177)" fill="#27debf"/>
      <path id="Path_45" data-name="Path 45" d="M218.934,140.148l75.854-43.794c.678-.391,1.228-.113,1.228.622a2.634,2.634,0,0,1-1.228,2.038l-75.854,43.792c-.678.391-1.228.113-1.228-.62a2.632,2.632,0,0,1,1.228-2.038Z" transform="translate(-217.706 -96.177)" fill="#fff" opacity="0.6"/>
    </g>
    <g id="Group_37" data-name="Group 37" transform="translate(209.826 55.589)">
      <g id="Group_36" data-name="Group 36" transform="translate(0 0)">
        <path id="Path_46" data-name="Path 46" d="M218.934,147.178l75.854-43.783c.678-.391,1.228-.113,1.228.62a2.632,2.632,0,0,1-1.228,2.038l-75.854,43.785c-.678.391-1.228.113-1.228-.622a2.635,2.635,0,0,1,1.228-2.038Z" transform="translate(-217.706 -103.217)" fill="#27debf"/>
        <path id="Path_47" data-name="Path 47" d="M218.934,147.178l75.854-43.783c.678-.391,1.228-.113,1.228.62a2.632,2.632,0,0,1-1.228,2.038l-75.854,43.785c-.678.391-1.228.113-1.228-.622a2.635,2.635,0,0,1,1.228-2.038Z" transform="translate(-217.706 -103.217)" fill="#fff" opacity="0.6"/>
      </g>
      <path id="Path_48" data-name="Path 48" d="M218.934,154.219l75.854-43.794c.678-.391,1.228-.113,1.228.622a2.632,2.632,0,0,1-1.228,2.038l-75.854,43.792c-.678.391-1.228.113-1.228-.622A2.633,2.633,0,0,1,218.934,154.219Z" transform="translate(-217.706 -102.278)" fill="#fff" opacity="0.6"/>
    </g>
    <g id="Group_38" data-name="Group 38" transform="translate(211.958 186.667)">
      <path id="Path_49" data-name="Path 49" d="M221.545,169.088l5.284-3.049c1.084-.627,1.963-.12,1.963,1.133v6.1a4.341,4.341,0,0,1-1.963,3.4l-5.284,3.06c-1.084.627-1.963.118-1.963-1.133v-6.1a4.341,4.341,0,0,1,1.963-3.411Z" transform="translate(-219.582 -165.769)" fill="#68b744"/>
      <path id="Path_50" data-name="Path 50" d="M221.545,169.088l5.284-3.049c1.084-.627,1.963-.12,1.963,1.133v6.1a4.341,4.341,0,0,1-1.963,3.4l-5.284,3.06c-1.084.627-1.963.118-1.963-1.133v-6.1a4.341,4.341,0,0,1,1.963-3.411Z" transform="translate(-219.582 -165.769)" fill="#68b744" opacity="0.2"/>
    </g>
    <g id="Group_39" data-name="Group 39" transform="translate(225.768 157.015)">
      <path id="Path_51" data-name="Path 51" d="M234.218,165.978l31.94-18.442c1.356-.783,2.455-.227,2.455,1.242a5.263,5.263,0,0,1-2.455,4.076L234.218,171.3c-1.356.783-2.455.227-2.455-1.242A5.263,5.263,0,0,1,234.218,165.978Z" transform="translate(-231.763 -147.181)" fill="#b8e6a2"/>
      <path id="Path_52" data-name="Path 52" d="M234.218,165.978l31.94-18.442c1.356-.783,2.455-.227,2.455,1.242a5.263,5.263,0,0,1-2.455,4.076L234.218,171.3c-1.356.783-2.455.227-2.455-1.242A5.263,5.263,0,0,1,234.218,165.978Z" transform="translate(-231.763 -147.181)" fill="#b8e6a2" opacity="0.8"/>
    </g>
    <path id="Path_53" data-name="Path 53" d="M220.8,191.009l80.46-46.463c.678-.391,1.227-.111,1.227.622a2.632,2.632,0,0,1-1.227,2.038L220.8,193.669c-.678.391-1.228.113-1.228-.622A2.63,2.63,0,0,1,220.8,191.009Z" transform="translate(-7.63 11.698)" fill="#68b744"/>
    <path id="Path_54" data-name="Path 54" d="M220.8,198.044l80.46-46.463c.678-.391,1.227-.113,1.227.622a2.632,2.632,0,0,1-1.227,2.038L220.8,200.7c-.678.391-1.228.113-1.228-.62A2.63,2.63,0,0,1,220.8,198.044Z" transform="translate(-7.63 16.838)" fill="#27debf"/>
    <path id="Path_55" data-name="Path 55" d="M220.8,205.08l80.46-46.463c.678-.391,1.227-.113,1.227.622a2.635,2.635,0,0,1-1.227,2.038L220.8,207.74c-.678.391-1.228.113-1.228-.622a2.63,2.63,0,0,1,1.228-2.038Z" transform="translate(-7.63 21.98)" fill="#68b744"/>
    <path id="Path_56" data-name="Path 56" d="M220.8,212.135l80.46-46.463c.678-.391,1.227-.113,1.227.62a2.632,2.632,0,0,1-1.227,2.038L220.8,214.793c-.678.391-1.228.115-1.228-.62A2.63,2.63,0,0,1,220.8,212.135Z" transform="translate(-7.63 27.136)" fill="#68b744"/>
    <g id="Group_40" data-name="Group 40" transform="translate(211.947 160.289)">
      <path id="Path_57" data-name="Path 57" d="M220.8,191.009l80.46-46.463c.678-.391,1.227-.111,1.227.622a2.632,2.632,0,0,1-1.227,2.038L220.8,193.669c-.678.391-1.228.113-1.228-.622A2.63,2.63,0,0,1,220.8,191.009Z" transform="translate(-219.577 -144.369)" fill="#e0e0e0"/>
      <path id="Path_58" data-name="Path 58" d="M220.8,198.044l80.46-46.463c.678-.391,1.227-.113,1.227.622a2.632,2.632,0,0,1-1.227,2.038L220.8,200.7c-.678.391-1.228.113-1.228-.62A2.63,2.63,0,0,1,220.8,198.044Z" transform="translate(-219.577 -143.428)" fill="#e0e0e0"/>
      <path id="Path_59" data-name="Path 59" d="M220.8,205.08l80.46-46.463c.678-.391,1.227-.113,1.227.622a2.635,2.635,0,0,1-1.227,2.038L220.8,207.74c-.678.391-1.228.113-1.228-.622a2.63,2.63,0,0,1,1.228-2.038Z" transform="translate(-219.577 -142.483)" fill="#e0e0e0"/>
      <path id="Path_60" data-name="Path 60" d="M220.8,212.135l80.46-46.463c.678-.391,1.227-.113,1.227.62a2.632,2.632,0,0,1-1.227,2.038L220.8,214.793c-.678.391-1.228.115-1.228-.62A2.63,2.63,0,0,1,220.8,212.135Z" transform="translate(-219.577 -141.538)" fill="#e0e0e0"/>
      <path id="Path_61" data-name="Path 61" d="M220.8,191.009l80.46-46.463c.678-.391,1.227-.111,1.227.622a2.632,2.632,0,0,1-1.227,2.038L220.8,193.669c-.678.391-1.228.113-1.228-.622A2.63,2.63,0,0,1,220.8,191.009Z" transform="translate(-219.577 -144.369)" fill="#e0e0e0" opacity="0.8"/>
      <path id="Path_62" data-name="Path 62" d="M220.8,198.044l80.46-46.463c.678-.391,1.227-.113,1.227.622a2.632,2.632,0,0,1-1.227,2.038L220.8,200.7c-.678.391-1.228.113-1.228-.62A2.63,2.63,0,0,1,220.8,198.044Z" transform="translate(-219.577 -143.428)" fill="#e0e0e0" opacity="0.8"/>
      <path id="Path_63" data-name="Path 63" d="M220.8,205.08l80.46-46.463c.678-.391,1.227-.113,1.227.622a2.635,2.635,0,0,1-1.227,2.038L220.8,207.74c-.678.391-1.228.113-1.228-.622a2.63,2.63,0,0,1,1.228-2.038Z" transform="translate(-219.577 -142.483)" fill="#e0e0e0" opacity="0.8"/>
      <path id="Path_64" data-name="Path 64" d="M220.8,212.135l80.46-46.463c.678-.391,1.227-.113,1.227.62a2.632,2.632,0,0,1-1.227,2.038L220.8,214.793c-.678.391-1.228.115-1.228-.62A2.63,2.63,0,0,1,220.8,212.135Z" transform="translate(-219.577 -141.538)" fill="#e0e0e0" opacity="0.8"/>
    </g>
    <g id="Group_41" data-name="Group 41" transform="translate(211.947 250.952)">
      <path id="Path_65" data-name="Path 65" d="M220.8,242.009l80.46-46.463c.678-.391,1.227-.113,1.227.622a2.633,2.633,0,0,1-1.227,2.038L220.8,244.669c-.678.391-1.228.113-1.228-.622A2.63,2.63,0,0,1,220.8,242.009Z" transform="translate(-219.577 -195.369)" fill="#e0e0e0"/>
      <path id="Path_66" data-name="Path 66" d="M220.8,249.044l80.46-46.463c.678-.391,1.227-.113,1.227.622a2.632,2.632,0,0,1-1.227,2.038L220.8,251.7c-.678.391-1.228.113-1.228-.62A2.63,2.63,0,0,1,220.8,249.044Z" transform="translate(-219.577 -194.428)" fill="#e0e0e0"/>
      <path id="Path_67" data-name="Path 67" d="M220.8,256.08l80.46-46.463c.678-.391,1.227-.113,1.227.622a2.635,2.635,0,0,1-1.227,2.038L220.8,258.74c-.678.391-1.228.113-1.228-.622A2.63,2.63,0,0,1,220.8,256.08Z" transform="translate(-219.577 -193.483)" fill="#e0e0e0"/>
      <path id="Path_68" data-name="Path 68" d="M220.8,263.135l80.46-46.463c.678-.391,1.227-.113,1.227.62a2.633,2.633,0,0,1-1.227,2.038L220.8,265.793c-.678.391-1.228.111-1.228-.622A2.63,2.63,0,0,1,220.8,263.135Z" transform="translate(-219.577 -192.538)" fill="#e0e0e0"/>
      <path id="Path_69" data-name="Path 69" d="M220.8,242.009l80.46-46.463c.678-.391,1.227-.113,1.227.622a2.633,2.633,0,0,1-1.227,2.038L220.8,244.669c-.678.391-1.228.113-1.228-.622A2.63,2.63,0,0,1,220.8,242.009Z" transform="translate(-219.577 -195.369)" fill="#e0e0e0" opacity="0.8"/>
      <path id="Path_70" data-name="Path 70" d="M220.8,249.044l80.46-46.463c.678-.391,1.227-.113,1.227.622a2.632,2.632,0,0,1-1.227,2.038L220.8,251.7c-.678.391-1.228.113-1.228-.62A2.63,2.63,0,0,1,220.8,249.044Z" transform="translate(-219.577 -194.428)" fill="#e0e0e0" opacity="0.8"/>
      <path id="Path_71" data-name="Path 71" d="M220.8,256.08l80.46-46.463c.678-.391,1.227-.113,1.227.622a2.635,2.635,0,0,1-1.227,2.038L220.8,258.74c-.678.391-1.228.113-1.228-.622A2.63,2.63,0,0,1,220.8,256.08Z" transform="translate(-219.577 -193.483)" fill="#e0e0e0" opacity="0.8"/>
      <path id="Path_72" data-name="Path 72" d="M220.8,263.135l80.46-46.463c.678-.391,1.227-.113,1.227.62a2.633,2.633,0,0,1-1.227,2.038L220.8,265.793c-.678.391-1.228.111-1.228-.622A2.63,2.63,0,0,1,220.8,263.135Z" transform="translate(-219.577 -192.538)" fill="#e0e0e0" opacity="0.8"/>
    </g>
    <g id="Group_42" data-name="Group 42" transform="translate(211.947 343.392)">
      <path id="Path_73" data-name="Path 73" d="M220.8,294.009l80.46-46.463c.678-.391,1.227-.113,1.227.622a2.632,2.632,0,0,1-1.227,2.038L220.8,296.669c-.678.391-1.228.113-1.228-.62A2.63,2.63,0,0,1,220.8,294.009Z" transform="translate(-219.577 -247.369)" fill="#e0e0e0"/>
      <path id="Path_74" data-name="Path 74" d="M220.8,301.044l80.46-46.463c.678-.391,1.227-.113,1.227.622a2.632,2.632,0,0,1-1.227,2.038L220.8,303.7c-.678.391-1.228.113-1.228-.622A2.632,2.632,0,0,1,220.8,301.044Z" transform="translate(-219.577 -246.428)" fill="#e0e0e0"/>
      <path id="Path_75" data-name="Path 75" d="M220.8,308.08l80.46-46.463c.678-.391,1.227-.113,1.227.622a2.635,2.635,0,0,1-1.227,2.038L220.8,310.74c-.678.391-1.228.113-1.228-.622A2.63,2.63,0,0,1,220.8,308.08Z" transform="translate(-219.577 -245.483)" fill="#e0e0e0"/>
      <path id="Path_76" data-name="Path 76" d="M220.8,315.135l80.46-46.463c.678-.391,1.227-.113,1.227.622a2.633,2.633,0,0,1-1.227,2.038L220.8,317.8c-.678.391-1.228.113-1.228-.622A2.63,2.63,0,0,1,220.8,315.135Z" transform="translate(-219.577 -244.538)" fill="#e0e0e0"/>
      <path id="Path_77" data-name="Path 77" d="M220.8,294.009l80.46-46.463c.678-.391,1.227-.113,1.227.622a2.632,2.632,0,0,1-1.227,2.038L220.8,296.669c-.678.391-1.228.113-1.228-.62A2.63,2.63,0,0,1,220.8,294.009Z" transform="translate(-219.577 -247.369)" fill="#e0e0e0" opacity="0.8"/>
      <path id="Path_78" data-name="Path 78" d="M220.8,301.044l80.46-46.463c.678-.391,1.227-.113,1.227.622a2.632,2.632,0,0,1-1.227,2.038L220.8,303.7c-.678.391-1.228.113-1.228-.622A2.632,2.632,0,0,1,220.8,301.044Z" transform="translate(-219.577 -246.428)" fill="#e0e0e0" opacity="0.8"/>
      <path id="Path_79" data-name="Path 79" d="M220.8,308.08l80.46-46.463c.678-.391,1.227-.113,1.227.622a2.635,2.635,0,0,1-1.227,2.038L220.8,310.74c-.678.391-1.228.113-1.228-.622A2.63,2.63,0,0,1,220.8,308.08Z" transform="translate(-219.577 -245.483)" fill="#e0e0e0" opacity="0.8"/>
      <path id="Path_80" data-name="Path 80" d="M220.8,315.135l80.46-46.463c.678-.391,1.227-.113,1.227.622a2.633,2.633,0,0,1-1.227,2.038L220.8,317.8c-.678.391-1.228.113-1.228-.622A2.63,2.63,0,0,1,220.8,315.135Z" transform="translate(-219.577 -244.538)" fill="#e0e0e0" opacity="0.8"/>
    </g>
    <g id="Group_43" data-name="Group 43" transform="translate(211.958 272.992)">
      <path id="Path_81" data-name="Path 81" d="M221.545,220.684l5.284-3.052c1.084-.627,1.963-.118,1.963,1.133v6.1a4.341,4.341,0,0,1-1.963,3.4l-5.284,3.049c-1.084.627-1.963.12-1.963-1.133v-6.1A4.339,4.339,0,0,1,221.545,220.684Z" transform="translate(-219.582 -217.365)" fill="#68b744"/>
      <path id="Path_82" data-name="Path 82" d="M221.545,220.684l5.284-3.052c1.084-.627,1.963-.118,1.963,1.133v6.1a4.341,4.341,0,0,1-1.963,3.4l-5.284,3.049c-1.084.627-1.963.12-1.963-1.133v-6.1A4.339,4.339,0,0,1,221.545,220.684Z" transform="translate(-219.582 -217.365)" fill="#68b744" opacity="0.2"/>
    </g>
    <g id="Group_44" data-name="Group 44" transform="translate(225.768 244.147)">
      <path id="Path_83" data-name="Path 83" d="M234.218,217.573l31.94-18.442c1.356-.783,2.455-.227,2.455,1.242a5.265,5.265,0,0,1-2.455,4.078l-31.94,18.44c-1.356.783-2.455.227-2.455-1.242A5.263,5.263,0,0,1,234.218,217.573Z" transform="translate(-231.763 -198.776)" fill="#b8e6a1"/>
      <path id="Path_84" data-name="Path 84" d="M234.218,217.573l31.94-18.442c1.356-.783,2.455-.227,2.455,1.242a5.265,5.265,0,0,1-2.455,4.078l-31.94,18.44c-1.356.783-2.455.227-2.455-1.242A5.263,5.263,0,0,1,234.218,217.573Z" transform="translate(-231.763 -198.776)" fill="#b8e6a1" opacity="0.8"/>
    </g>
    <g id="Group_45" data-name="Group 45" transform="translate(211.958 359.32)">
      <path id="Path_85" data-name="Path 85" d="M221.545,272.279l5.284-3.049c1.084-.627,1.963-.12,1.963,1.133v6.1a4.341,4.341,0,0,1-1.963,3.4l-5.284,3.052c-1.084.627-1.963.118-1.963-1.133v-6.11A4.339,4.339,0,0,1,221.545,272.279Z" transform="translate(-219.582 -268.96)" fill="#68b744"/>
      <path id="Path_86" data-name="Path 86" d="M221.545,272.279l5.284-3.049c1.084-.627,1.963-.12,1.963,1.133v6.1a4.341,4.341,0,0,1-1.963,3.4l-5.284,3.052c-1.084.627-1.963.118-1.963-1.133v-6.11A4.339,4.339,0,0,1,221.545,272.279Z" transform="translate(-219.582 -268.96)" fill="#68b744" opacity="0.2"/>
    </g>
    <g id="Group_46" data-name="Group 46" transform="translate(225.768 331.275)">
      <path id="Path_87" data-name="Path 87" d="M234.218,269.168l31.94-18.442c1.356-.783,2.455-.227,2.455,1.242a5.263,5.263,0,0,1-2.455,4.076l-31.94,18.442c-1.356.783-2.455.227-2.455-1.242A5.261,5.261,0,0,1,234.218,269.168Z" transform="translate(-231.763 -250.371)" fill="#b8e6a0"/>
      <path id="Path_88" data-name="Path 88" d="M234.218,269.168l31.94-18.442c1.356-.783,2.455-.227,2.455,1.242a5.263,5.263,0,0,1-2.455,4.076l-31.94,18.442c-1.356.783-2.455.227-2.455-1.242A5.261,5.261,0,0,1,234.218,269.168Z" transform="translate(-231.763 -250.371)" fill="#b8e6a0" opacity="0.8"/>
    </g>
    <path id="Path_89" data-name="Path 89" d="M228.175,317.707l5.284-3.052c1.084-.627,1.963-.12,1.963,1.133V321.9a4.341,4.341,0,0,1-1.963,3.4l-5.284,3.049c-1.084.627-1.963.12-1.963-1.133v-6.11a4.339,4.339,0,0,1,1.963-3.4Z" transform="translate(-6.739 120.937)" fill="#27debf"/>
    <path id="Path_90" data-name="Path 90" d="M220.8,337.1l21.812-12.587c.678-.391,1.228-.113,1.228.622a2.633,2.633,0,0,1-1.228,2.038L220.8,339.756c-.678.391-1.228.113-1.228-.62A2.63,2.63,0,0,1,220.8,337.1Z" transform="translate(-7.63 155.269)" fill="#e0e0e0"/>
    <path id="Path_91" data-name="Path 91" d="M254.037,302.767l5.284-3.049c1.084-.627,1.963-.12,1.963,1.133v6.1a4.345,4.345,0,0,1-1.963,3.4l-5.284,3.05c-1.086.627-1.963.12-1.963-1.133v-6.1A4.343,4.343,0,0,1,254.037,302.767Z" transform="translate(-3.274 110.883)" fill="#27debf"/>
    <path id="Path_92" data-name="Path 92" d="M246.667,322.158l21.812-12.587c.678-.391,1.228-.113,1.228.622a2.633,2.633,0,0,1-1.228,2.038l-21.812,12.587c-.678.391-1.228.113-1.228-.62a2.634,2.634,0,0,1,1.227-2.04Z" transform="translate(-4.162 118.097)" fill="#e0e0e0"/>
    <path id="Path_93" data-name="Path 93" d="M279.9,287.82l5.284-3.052c1.086-.627,1.963-.12,1.963,1.133V292a4.344,4.344,0,0,1-1.963,3.4l-5.284,3.049c-1.084.627-1.963.12-1.963-1.133v-6.1a4.341,4.341,0,0,1,1.963-3.4Z" transform="translate(0.193 100.818)" fill="#27debf"/>
    <path id="Path_94" data-name="Path 94" d="M228.175,317.707l5.284-3.052c1.084-.627,1.963-.12,1.963,1.133V321.9a4.341,4.341,0,0,1-1.963,3.4l-5.284,3.049c-1.084.627-1.963.12-1.963-1.133v-6.11a4.339,4.339,0,0,1,1.963-3.4Z" transform="translate(-6.739 120.937)" fill="#1c4a83"/>
    <path id="Path_95" data-name="Path 95" d="M254.037,302.767l5.284-3.049c1.084-.627,1.963-.12,1.963,1.133v6.1a4.345,4.345,0,0,1-1.963,3.4l-5.284,3.05c-1.086.627-1.963.12-1.963-1.133v-6.1A4.343,4.343,0,0,1,254.037,302.767Z" transform="translate(-3.274 110.883)" fill="#1c4a83"/>
    <path id="Path_96" data-name="Path 96" d="M279.9,287.82l5.284-3.052c1.086-.627,1.963-.12,1.963,1.133V292a4.344,4.344,0,0,1-1.963,3.4l-5.284,3.049c-1.084.627-1.963.12-1.963-1.133v-6.1a4.341,4.341,0,0,1,1.963-3.4Z" transform="translate(0.193 100.818)" fill="#1c4a83"/>
    <path id="Path_97" data-name="Path 97" d="M272.529,307.215l21.813-12.587c.678-.391,1.227-.113,1.227.622a2.632,2.632,0,0,1-1.227,2.038l-21.812,12.587c-.678.391-1.228.113-1.228-.62a2.632,2.632,0,0,1,1.228-2.04Z" transform="translate(-0.697 108.009)" fill="#e0e0e0"/>
    <g id="Group_80" data-name="Group 80" transform="translate(140.73 143.488)">
      <g id="Group_79" data-name="Group 79" transform="translate(0 0)" clip-path="url(#clip-path)">
        <path id="Path_98" data-name="Path 98" d="M179.809,139.212c-12.722,7.172-23.034,25.033-23.034,39.893s10.312,20.957,23.034,13.607,23.031-25.2,23.031-39.893S192.528,132.038,179.809,139.212Z" transform="translate(-156.775 -136.203)" fill="#fafafa"/>
        <path id="Path_99" data-name="Path 99" d="M179.809,139.212c-12.722,7.172-23.034,25.033-23.034,39.893s10.312,20.957,23.034,13.607,23.031-25.2,23.031-39.893S192.528,132.038,179.809,139.212Z" transform="translate(-156.775 -136.203)" fill="none"/>
        <path id="Path_100" data-name="Path 100" d="M179.809,139.212c-12.722,7.172-23.034,25.033-23.034,39.893s10.312,20.957,23.034,13.607,23.031-25.2,23.031-39.893S192.528,132.038,179.809,139.212Z" transform="translate(-156.775 -136.203)" fill="none"/>
        <g id="Group_48" data-name="Group 48" transform="translate(13.115 6.585)">
          <g id="Group_47" data-name="Group 47" transform="translate(0 0)">
            <path id="Path_101" data-name="Path 101" d="M189.416,184.238l-18.434,4.94a2.014,2.014,0,0,1-2.624-2.109V155.676a12.585,12.585,0,0,1,8.691-11.642l6.3-1.687a6.67,6.67,0,0,1,8.691,6.984v31.393a3.8,3.8,0,0,1-2.624,3.513Z" transform="translate(-168.349 -142.024)" fill="#37474f"/>
          </g>
        </g>
        <g id="Group_52" data-name="Group 52" transform="translate(28.35 33.47)">
          <g id="Group_49" data-name="Group 49" transform="translate(0.979 0.498)">
            <path id="Path_102" data-name="Path 102" d="M188.388,189.1l-1.978-8.554s.019-11.548-1.653-12.617a22.342,22.342,0,0,0-2.119-1.266c2.111-.727,6.559-1.283,7.966,2.78,1.326,3.83,3.31,13.28,4.253,17.935Z" transform="translate(-182.638 -166.151)" fill="#f28f8f"/>
          </g>
          <g id="Group_50" data-name="Group 50" transform="translate(0 0)">
            <path id="Path_103" data-name="Path 103" d="M188.346,189.2l-6.572-22.394c2.913-1.14,6.646-2.074,8.466.93,1.634,2.7,4.241,16.832,4.756,19.674Z" transform="translate(-181.774 -165.719)" fill="#27debf"/>
          </g>
          <g id="Group_51" data-name="Group 51" transform="translate(0 0)" opacity="0.4">
            <path id="Path_104" data-name="Path 104" d="M188.346,189.2l-6.572-22.394c2.913-1.14,6.646-2.074,8.466.93,1.634,2.7,4.241,16.832,4.756,19.674Z" transform="translate(-181.774 -165.719)"/>
          </g>
        </g>
        <g id="Group_53" data-name="Group 53" transform="translate(29.342 49.194)">
          <path id="Path_105" data-name="Path 105" d="M189.111,187.111l-6.462,1.732a14.436,14.436,0,0,1,1.807-5.267,10.527,10.527,0,0,1,5.3-3.99A38.371,38.371,0,0,0,189.111,187.111Z" transform="translate(-182.649 -179.586)" fill="#27debf"/>
        </g>
        <g id="Group_56" data-name="Group 56" transform="translate(29.342 49.194)">
          <g id="Group_54" data-name="Group 54" transform="translate(0 0)">
            <path id="Path_106" data-name="Path 106" d="M189.111,187.111l-6.462,1.732a14.436,14.436,0,0,1,1.807-5.267,10.527,10.527,0,0,1,5.3-3.99A38.371,38.371,0,0,0,189.111,187.111Z" transform="translate(-182.649 -179.586)" fill="#27debf"/>
          </g>
          <g id="Group_55" data-name="Group 55" transform="translate(0 0)" opacity="0.7">
            <path id="Path_107" data-name="Path 107" d="M189.111,187.111l-6.462,1.732a14.436,14.436,0,0,1,1.807-5.267,10.527,10.527,0,0,1,5.3-3.99A38.371,38.371,0,0,0,189.111,187.111Z" transform="translate(-182.649 -179.586)"/>
          </g>
        </g>
        <g id="Group_58" data-name="Group 58" transform="translate(13.079 34.54)">
          <g id="Group_57" data-name="Group 57" transform="translate(0 0)">
            <path id="Path_108" data-name="Path 108" d="M189.646,189.215l-18.089,4.848-2-6.191s5.295-12.4-1.245-15.575c.834-.624,7.808-3.353,7.808-3.353L183.6,166.7c1.426-.383,7.2,2.177,8.663,7.857.52,2.017.34,3.809-2.592,14.266A3.666,3.666,0,0,0,189.646,189.215Z" transform="translate(-168.308 -166.664)" fill="#27debf"/>
          </g>
        </g>
        <g id="Group_60" data-name="Group 60" transform="translate(16.834 10.753)">
          <g id="Group_59" data-name="Group 59" transform="translate(0)">
            <path id="Path_109" data-name="Path 109" d="M187.709,145.686c1.251.458,2.8,3.422,2.643,10.524-.128,6.024-1.94,7.989-2.851,8.659a9.788,9.788,0,0,1-4.369,1.033V169.5s2.352,2.3,2.209,3.99-3.4,2.949-5.609,1.925a12.63,12.63,0,0,1-4.063-3.659l.038-8.276a1.9,1.9,0,0,1-2.705.175,3.221,3.221,0,0,1-.783-4.519c1.095-1.484,3.118-1.711,3.894-.214a11.171,11.171,0,0,1,4.874-5.5A13.639,13.639,0,0,0,187.709,145.686Z" transform="translate(-171.619 -145.686)" fill="#ffa8a7"/>
          </g>
        </g>
        <g id="Group_62" data-name="Group 62" transform="translate(27.924 20.859)">
          <g id="Group_61" data-name="Group 61" transform="translate(0 0)">
            <path id="Path_110" data-name="Path 110" d="M182.8,155.182a1.035,1.035,0,0,1-.665,1,.552.552,0,0,1-.74-.547,1.039,1.039,0,0,1,.665-1,.55.55,0,0,1,.74.547Z" transform="translate(-181.399 -154.6)" fill="#37474f"/>
          </g>
        </g>
        <g id="Group_64" data-name="Group 64" transform="translate(29.481 26.469)">
          <g id="Group_63" data-name="Group 63" transform="translate(0)">
            <path id="Path_111" data-name="Path 111" d="M182.809,159.545l1.632.122a1.138,1.138,0,0,1-1.069.911C182.928,160.546,182.672,160.09,182.809,159.545Z" transform="translate(-182.772 -159.545)" fill="#f28f8f"/>
          </g>
        </g>
        <g id="Group_66" data-name="Group 66" transform="translate(33.668 16.295)">
          <g id="Group_65" data-name="Group 65" transform="translate(0 0)">
            <path id="Path_112" data-name="Path 112" d="M187.887,151.856l-1.422-.676a.969.969,0,0,1,1.183-.575.9.9,0,0,1,.24,1.251Z" transform="translate(-186.465 -150.564)" fill="#37474f"/>
          </g>
        </g>
        <g id="Group_68" data-name="Group 68" transform="translate(27.152 18.54)">
          <g id="Group_67" data-name="Group 67" transform="translate(0 0)">
            <path id="Path_113" data-name="Path 113" d="M180.847,154.248l1.422-1.437c-.259-.366-.789-.34-1.18.058A1.142,1.142,0,0,0,180.847,154.248Z" transform="translate(-180.714 -152.552)" fill="#37474f"/>
          </g>
        </g>
        <g id="Group_70" data-name="Group 70" transform="translate(33.357 18.86)">
          <g id="Group_69" data-name="Group 69" transform="translate(0 0)">
            <path id="Path_114" data-name="Path 114" d="M187.6,153.418a1.035,1.035,0,0,1-.665,1,.552.552,0,0,1-.74-.548,1.039,1.039,0,0,1,.665-1,.55.55,0,0,1,.74.547Z" transform="translate(-186.191 -152.836)" fill="#37474f"/>
          </g>
        </g>
        <g id="Group_72" data-name="Group 72" transform="translate(31.448 19.899)">
          <g id="Group_71" data-name="Group 71">
            <path id="Path_115" data-name="Path 115" d="M184.507,153.751l.111,4.5,2.226-1.337Z" transform="translate(-184.507 -153.751)" fill="#f28f8f"/>
          </g>
        </g>
        <g id="Group_74" data-name="Group 74" transform="translate(22.279 29.636)">
          <g id="Group_73" data-name="Group 73" transform="translate(0)">
            <path id="Path_116" data-name="Path 116" d="M182.492,163.67c-1.8.229-5.494.081-6.071-1.332a2.889,2.889,0,0,0,1.3,1.653,15.037,15.037,0,0,0,4.775.877Z" transform="translate(-176.421 -162.338)" fill="#f28f8f"/>
          </g>
        </g>
        <g id="Group_76" data-name="Group 76" transform="translate(15.622 59.222)">
          <g id="Group_75" data-name="Group 75" transform="translate(0 0)">
            <path id="Path_117" data-name="Path 117" d="M171.316,191.129l-.766-2.7,2,2.369Z" transform="translate(-170.55 -188.428)" fill="#27debf"/>
          </g>
        </g>
        <g id="Group_77" data-name="Group 77" transform="translate(10.74 36.821)">
          <path id="Path_118" data-name="Path 118" d="M170.432,194.176a78.833,78.833,0,0,0-3.319-11.411,10.562,10.562,0,0,1,1.5-10.737,57.391,57.391,0,0,1,7.808-3.353,76.668,76.668,0,0,1,3.058,23.074Z" transform="translate(-166.277 -168.675)" fill="#27debf"/>
          <path id="Path_119" data-name="Path 119" d="M170.432,194.176a78.833,78.833,0,0,0-3.319-11.411,10.562,10.562,0,0,1,1.5-10.737,57.391,57.391,0,0,1,7.808-3.353,76.668,76.668,0,0,1,3.058,23.074Z" transform="translate(-166.277 -168.675)" opacity="0.4"/>
        </g>
        <g id="Group_78" data-name="Group 78" transform="translate(4.687 40.176)">
          <path id="Path_120" data-name="Path 120" d="M167.9,194.642l-6.477,1.736a4.256,4.256,0,0,1-.511-.417s3.067-11.815,4.04-15.739,1.724-6.629,4.352-8.59c4.728,3.075,2.543,11.614,2.543,11.614Z" transform="translate(-160.908 -171.632)" fill="#27debf"/>
          <path id="Path_121" data-name="Path 121" d="M167.9,194.642l-6.477,1.736a4.256,4.256,0,0,1-.511-.417s3.067-11.815,4.04-15.739,1.724-6.629,4.352-8.59c4.728,3.075,2.543,11.614,2.543,11.614Z" transform="translate(-160.908 -171.632)" opacity="0.4"/>
        </g>
        <path id="Path_122" data-name="Path 122" d="M179.809,139.212c-12.722,7.172-23.034,25.033-23.034,39.893s10.312,20.957,23.034,13.607,23.031-25.2,23.031-39.893S192.528,132.038,179.809,139.212Z" transform="translate(-156.775 -136.203)" fill="none"/>
        <path id="Path_123" data-name="Path 123" d="M179.809,139.212c-12.722,7.172-23.034,25.033-23.034,39.893s10.312,20.957,23.034,13.607,23.031-25.2,23.031-39.893S192.528,132.038,179.809,139.212Z" transform="translate(-156.775 -136.203)" fill="none"/>
      </g>
    </g>
    <g id="Graduation_cap" data-name="Graduation cap" transform="translate(36.934 30.324)">
      <g id="Group_103" data-name="Group 103">
        <g id="Group_82" data-name="Group 82" transform="translate(18.904 10.917)">
          <g id="Group_81" data-name="Group 81" transform="translate(0)">
            <path id="Path_125" data-name="Path 125" d="M83.927,129.994V107.519h0c-.066-4.35,2.767-8.71,8.515-12.029,11.362-6.561,29.785-6.561,41.147,0,5.748,3.319,8.582,7.681,8.515,12.029h0v22.39c.045,4.333-2.793,12.076-8.515,15.38-11.364,6.559-29.785,6.559-41.147,0-5.667-3.272-8.507-10.962-8.52-15.25h0v-.045Z" transform="translate(-83.923 -90.569)" fill="#b8b8b8"/>
          </g>
        </g>
        <g id="Group_83" data-name="Group 83">
          <path id="Path_126" data-name="Path 126" d="M115.258,80.942l48,27.71-48,27.719L67.251,108.652Z" transform="translate(-67.251 -80.942)" fill="#d8d8d8"/>
        </g>
        <g id="Group_84" data-name="Group 84" transform="translate(23.985 27.972)">
          <path id="Path_127" data-name="Path 127" d="M88.4,119.19l23.643-13.49a.845.845,0,0,1,.836,1.467l-22.788,13Z" transform="translate(-88.4 -105.602)" fill="#e0e0e0"/>
        </g>
        <g id="Group_85" data-name="Group 85" transform="translate(48.002 27.715)">
          <path id="Path_128" data-name="Path 128" d="M157.583,105.381v1.98l-48,27.715V133.1Z" transform="translate(-109.58 -105.381)" fill="#e6e6e6"/>
        </g>
        <g id="Group_86" data-name="Group 86" transform="translate(0 27.715)">
          <path id="Path_129" data-name="Path 129" d="M67.251,105.381v1.98l48.007,27.715V133.1Z" transform="translate(-67.251 -105.381)" fill="#f0f0f0"/>
        </g>
        <g id="Group_87" data-name="Group 87" transform="translate(22.79 41.583)">
          <path id="Path_130" data-name="Path 130" d="M87.347,118.879l1.465.855a2.511,2.511,0,0,1,.894-.877l.511-.291-1.668-.962A4.19,4.19,0,0,0,87.347,118.879Z" transform="translate(-87.347 -117.604)" fill="#e0e0e0"/>
        </g>
        <g id="Group_88" data-name="Group 88" transform="translate(18.934 40.582)">
          <path id="Path_131" data-name="Path 131" d="M142.162,116.728l-29.147,19.794L83.948,116.771l29.068,16.791Z" transform="translate(-83.948 -116.728)" fill="#e0e0e0"/>
        </g>
        <g id="Group_102" data-name="Group 102" transform="translate(18.859 27.033)">
          <g id="Group_94" data-name="Group 94" transform="translate(0 39.155)">
            <g id="Group_90" data-name="Group 90">
              <g id="Group_89" data-name="Group 89">
                <path id="Path_132" data-name="Path 132" d="M85.942,139.309a2.857,2.857,0,0,0,2.637,0l2.16,13.984c0,2.639-6.858,2.639-6.858,0Z" transform="translate(-83.881 -139.309)" fill="#68b744"/>
              </g>
            </g>
            <g id="Group_91" data-name="Group 91" transform="translate(1.086 7.981)">
              <path id="Path_133" data-name="Path 133" d="M85.7,146.347l-.428,7.673a3.745,3.745,0,0,1-.428-.178Z" transform="translate(-84.842 -146.347)" fill="#68b744"/>
            </g>
            <g id="Group_92" data-name="Group 92" transform="translate(4.277 3.248)">
              <path id="Path_134" data-name="Path 134" d="M88.561,154.634l-.909-12.461L89,154.467A4.052,4.052,0,0,1,88.561,154.634Z" transform="translate(-87.652 -142.173)" fill="#68b744"/>
            </g>
            <g id="Group_93" data-name="Group 93" transform="translate(3.216 6.063)">
              <path id="Path_135" data-name="Path 135" d="M87.144,154.55h-.428l.214-9.895Z" transform="translate(-86.716 -144.655)" fill="#68b744"/>
            </g>
          </g>
          <g id="Group_96" data-name="Group 96" transform="translate(1.66 38.319)">
            <g id="Group_95" data-name="Group 95" transform="translate(0 0)">
              <path id="Path_136" data-name="Path 136" d="M87.038,140.562a2.439,2.439,0,0,0,1.4-.473.845.845,0,0,0-.96-1.388.584.584,0,0,1-.81.017.845.845,0,0,0-1.009,1.354A2.3,2.3,0,0,0,87.038,140.562Z" transform="translate(-85.336 -138.567)" fill="#1c4a83"/>
            </g>
          </g>
          <g id="Group_98" data-name="Group 98" transform="translate(2.585 0)">
            <g id="Group_97" data-name="Group 97" transform="translate(0)">
              <path id="Path_137" data-name="Path 137" d="M87,142.922a.843.843,0,0,0,.845-.845V122.26a2.532,2.532,0,0,1,1.283-2.194l24.056-13.725a.845.845,0,0,0-.836-1.467L88.286,118.6a4.224,4.224,0,0,0-2.126,3.661v19.817a.843.843,0,0,0,.845.845Z" transform="translate(-86.16 -104.776)" fill="#68b744"/>
            </g>
          </g>
          <g id="Group_100" data-name="Group 100" transform="translate(1.568 35.449)">
            <g id="Group_99" data-name="Group 99" transform="translate(0)">
              <path id="Path_138" data-name="Path 138" d="M88.974,137.9a1.854,1.854,0,1,0-1.854,1.854A1.854,1.854,0,0,0,88.974,137.9Z" transform="translate(-85.266 -136.041)" fill="#1c4a83"/>
            </g>
          </g>
          <g id="Group_101" data-name="Group 101" transform="translate(1.585 35.477)">
            <path id="Path_139" data-name="Path 139" d="M85.279,138a1.448,1.448,0,0,0,2.064.7,1.538,1.538,0,0,0,.034-2.635,1.848,1.848,0,1,1-2.1,1.925Z" transform="translate(-85.279 -136.064)" fill="#3080e3"/>
          </g>
        </g>
      </g>
    </g>
    <g id="Speech_Bubbles" data-name="Speech Bubbles" transform="translate(324.631 22.315)">
      <g id="Group_123" data-name="Group 123" transform="translate(0 0)">
        <g id="Group_119" data-name="Group 119">
          <g id="Group_104" data-name="Group 104" transform="translate(58.849 55.338)">
            <path id="Path_140" data-name="Path 140" d="M377.647,128.745l-8.768-5.047,4.827-1.022,4.792,3.355Z" transform="translate(-368.879 -122.676)" fill="#e0e0e0"/>
          </g>
          <g id="Group_118" data-name="Group 118">
            <g id="Group_111" data-name="Group 111">
              <g id="Group_106" data-name="Group 106">
                <g id="Group_105" data-name="Group 105">
                  <path id="Path_141" data-name="Path 141" d="M369.253,90.118c-.015-13.639-8.34-19.926-18.569-14.016l-15.13,8.727c-10.235,5.909-18.566,21.83-18.566,35.477,0,.56.015,1.11.049,1.63,0,.3.032.562.049.855s.047.532.081.793c.032.306.064.609.113.9a21.9,21.9,0,0,0,1.193,4.7c.242.571.483,1.1.759,1.606a5.334,5.334,0,0,0,.428.759l.145.24a7.4,7.4,0,0,0,.872,1.2c.178.2.355.428.55.607l.582.569c.214.158.4.349.614.507a6,6,0,0,0,.641.445l.678.383a8.553,8.553,0,0,0,2.78.939.537.537,0,0,1,.227.041c.259.023.5.056.759.058a5.256,5.256,0,0,0,.823.019,9.229,9.229,0,0,0,2.164-.237,12.939,12.939,0,0,0,1.259-.319v.021a17.64,17.64,0,0,0,3.794-1.674l15.13-8.734a26.4,26.4,0,0,0,2.97-2.017c-.015-.184-.032-.349-.047-.511-.017-.314-.032-.541-.032-.736q-.047-.682-.049-1.394C353.526,109.251,360.517,95.612,369.253,90.118Z" transform="translate(-316.988 -73.88)" fill="#cecece"/>
                </g>
              </g>
              <g id="Group_107" data-name="Group 107" transform="translate(46.033 1.369)">
                <path id="Path_142" data-name="Path 142" d="M366.37,80.145l-8.789-5.057c.053.032.89,6.118.89,6.118l6.527.768Z" transform="translate(-357.581 -75.087)" fill="#cecece"/>
              </g>
              <g id="Group_108" data-name="Group 108" transform="translate(6.086 59.155)">
                <path id="Path_143" data-name="Path 143" d="M330.482,132.75l-8.126-4.6,4.889-2.106Z" transform="translate(-322.356 -126.044)" fill="#cecece"/>
              </g>
              <g id="Group_109" data-name="Group 109" transform="translate(15.35 56.125)">
                <path id="Path_144" data-name="Path 144" d="M333.741,127.739a16.483,16.483,0,0,1-3.1,9.347c-.359.481.195.9.61.689a15.784,15.784,0,0,0,4.831-3.9,24.742,24.742,0,0,0,5.229-10.5Z" transform="translate(-330.524 -123.372)" fill="#cecece"/>
              </g>
              <g id="Group_110" data-name="Group 110" transform="translate(15.56 62.325)">
                <path id="Path_145" data-name="Path 145" d="M330.709,137.018l8.791,5.058a16.907,16.907,0,0,0,4.918-12.585l-9.533-.652A11.334,11.334,0,0,1,330.709,137.018Z" transform="translate(-330.709 -128.838)" fill="#cecece"/>
              </g>
            </g>
            <g id="Group_117" data-name="Group 117" transform="translate(38.965 10.843)">
              <g id="Group_113" data-name="Group 113" transform="translate(0 0)">
                <g id="Group_112" data-name="Group 112">
                  <path id="Path_146" data-name="Path 146" d="M351.349,118.315c0,.428.013.834.036,1.223,0,.227.026.428.038.642s.036.4.06.594.049.456.086.678a14.622,14.622,0,0,0,.7,2.955,3.534,3.534,0,0,0,.182.509,6.224,6.224,0,0,0,.278.663c.1.214.195.428.3.616a3.917,3.917,0,0,0,.327.571.864.864,0,0,0,.109.18,10.8,10.8,0,0,0,.654.9,5,5,0,0,0,.413.458l.428.428a4.686,4.686,0,0,0,.46.381,4.581,4.581,0,0,0,.483.334c.171.1.327.2.509.289a4.38,4.38,0,0,0,.522.248c.182.073.363.145.545.2h.013a8.812,8.812,0,0,0,1.005.244c.06.013.109.017.169.03a4.444,4.444,0,0,0,.569.043,2.782,2.782,0,0,0,.618.015,6.888,6.888,0,0,0,1.454-.143,8.626,8.626,0,0,0,1.114-.257,13.361,13.361,0,0,0,2.849-1.257l11.355-6.557a18.857,18.857,0,0,0,2.849-2.032v-.015c.314-.263.631-.558.945-.855a20.746,20.746,0,0,0,1.623-1.7c.214-.231.413-.464.618-.727.195-.214.376-.46.569-.7a1.743,1.743,0,0,1,.171-.227,31.68,31.68,0,0,0,2.085-3.111l.509-.875c.169-.291.327-.592.483-.894s.3-.612.46-.913l.428-.93c.145-.31.278-.629.413-.932.242-.543.46-1.106.657-1.655l.109-.306c.122-.312.231-.642.327-.947.214-.62.387-1.225.571-1.865a34.319,34.319,0,0,0,.9-4.574c.036-.263.062-.52.086-.776.026-.214.049-.447.062-.665s.036-.458.036-.684c.023-.428.036-.855.036-1.266,0-10.245-6.255-14.969-13.936-10.536l-11.355,6.557C357.6,96.121,351.349,108.071,351.349,118.315Z" transform="translate(-351.349 -83.447)" fill="#e0e0e0"/>
                </g>
              </g>
              <g id="Group_114" data-name="Group 114" transform="translate(31.267 1.045)">
                <path id="Path_147" data-name="Path 147" d="M390.926,89.376l-8.712-5.01-3.293,2.314,10.173,6.159Z" transform="translate(-378.921 -84.365)" fill="#e0e0e0"/>
              </g>
              <g id="Group_115" data-name="Group 115" transform="translate(4.574 43.945)">
                <path id="Path_148" data-name="Path 148" d="M364.148,129.29l-8.768-5.045,6.875-2.051Z" transform="translate(-355.38 -122.194)" fill="#e0e0e0"/>
              </g>
              <g id="Group_116" data-name="Group 116" transform="translate(17.764 39.861)">
                <path id="Path_149" data-name="Path 149" d="M372.816,118.591a6.018,6.018,0,0,0,4.863,4.75c.361.064.265.84-.15,1.106a7.848,7.848,0,0,1-5.072.843,6.352,6.352,0,0,1-5.445-3.345Z" transform="translate(-367.012 -118.591)" fill="#27debf"/>
              </g>
            </g>
          </g>
        </g>
        <g id="Group_122" data-name="Group 122" transform="translate(8.778 5.047)">
          <g id="Group_120" data-name="Group 120" transform="translate(0 0)">
            <path id="Path_150" data-name="Path 150" d="M358.424,80.555l-15.138,8.731c-10.237,5.909-18.558,21.827-18.558,35.471,0,.562.011,1.114.045,1.634,0,.3.032.562.043.855s.054.53.086.791c.032.3.064.616.109.909a22.27,22.27,0,0,0,1.2,4.7c.237.573.488,1.1.757,1.612a5.14,5.14,0,0,0,.428.757c.053.086.1.163.152.237a7.619,7.619,0,0,0,.855,1.2c.184.195.357.428.552.605l.584.573c.214.152.4.346.607.509a6.781,6.781,0,0,0,.641.445c.214.13.456.248.682.378a8.48,8.48,0,0,0,2.78.941.382.382,0,0,1,.227.043c.259.021.509.053.757.053a7.193,7.193,0,0,0,.823.021,10.052,10.052,0,0,0,2.164-.237c.428-.1.845-.184,1.266-.325v.021a17.549,17.549,0,0,0,3.787-1.668h0a16.483,16.483,0,0,1-3.1,9.345c-.361.481.195.9.609.689a15.749,15.749,0,0,0,4.831-3.9,24.749,24.749,0,0,0,5.229-10.5l-1.086.627,8.657-5a24.175,24.175,0,0,0,2.412-1.591c-.064-.291-.107-.584-.152-.875-.032-.195-.064-.477-.085-.77a6.627,6.627,0,0,1-.077-.757l-.011-.141a5.137,5.137,0,0,1-.032-.573c-.021-.428-.032-.877-.032-1.33,0-11.482,6.828-24.413,15.562-29.445l.962-.562C376.753,80.76,368.518,74.721,358.424,80.555Z" transform="translate(-324.728 -78.331)" fill="#f5f5f5"/>
          </g>
          <g id="Group_121" data-name="Group 121" transform="translate(38.961 10.854)">
            <path id="Path_151" data-name="Path 151" d="M384.377,89.57l-11.355,6.557c-7.684,4.437-13.937,16.385-13.937,26.631,0,.428.013.832.036,1.223,0,.227.026.428.036.642s.036.4.062.594.049.458.086.678a14.631,14.631,0,0,0,.7,2.955,3.588,3.588,0,0,0,.182.509,5.884,5.884,0,0,0,.278.663,6.363,6.363,0,0,0,.3.616,3.971,3.971,0,0,0,.327.571.811.811,0,0,0,.109.18,10.728,10.728,0,0,0,.654.9,4.988,4.988,0,0,0,.411.458l.428.428a4.682,4.682,0,0,0,.46.381,4.589,4.589,0,0,0,.483.334c.171.1.327.2.509.289a4.3,4.3,0,0,0,.522.248c.182.073.363.145.545.2h.011a8.66,8.66,0,0,0,1.005.244c.062.013.109.017.171.032a4.613,4.613,0,0,0,.569.043,2.654,2.654,0,0,0,.618.015,6.9,6.9,0,0,0,1.454-.143,8.663,8.663,0,0,0,1.114-.257,13.363,13.363,0,0,0,2.848-1.257l3.824-2.207a6.351,6.351,0,0,0,5.444,3.347,7.842,7.842,0,0,0,5.073-.845c.415-.265.509-1.039.148-1.106a6.02,6.02,0,0,1-4.857-4.752l1.726-1a18.946,18.946,0,0,0,2.849-2.032v-.017c.314-.261.631-.556.945-.855a20.315,20.315,0,0,0,1.625-1.7c.214-.233.413-.464.618-.729.192-.214.376-.46.569-.7a1.924,1.924,0,0,1,.169-.227,31.535,31.535,0,0,0,2.085-3.111l.509-.875c.171-.291.327-.592.485-.894s.3-.612.46-.911l.428-.93c.145-.31.278-.629.41-.932.242-.543.46-1.106.654-1.653q.056-.154.109-.306c.122-.312.231-.642.327-.947.214-.62.387-1.225.569-1.865a34.182,34.182,0,0,0,.9-4.574c.036-.263.062-.52.086-.776s.049-.449.06-.665.036-.458.036-.684c.026-.428.036-.855.036-1.266C398.313,89.861,392.05,85.135,384.377,89.57Z" transform="translate(-359.085 -87.904)" fill="#f5f5f5"/>
          </g>
        </g>
      </g>
    </g>
  </g>
  <g id="Layer_2" data-name="Layer 2" transform="translate(397.206 258.216)">
    <g id="Layer_1" data-name="Layer 1" transform="translate(0)">
      <path id="Trazado_2" data-name="Trazado 2" d="M92,2.66A130.977,130.977,0,0,0,7.68,72.689Z" transform="translate(5.022 1.74)" fill="url(#linear-gradient)"/>
      <path id="Trazado_3" data-name="Trazado 3" d="M130.894,0h-1.042A131.953,131.953,0,0,0,112.6,1.174L5.689,89.976a131.106,131.106,0,0,0-4.449,17.73Z" transform="translate(0.811)" fill="url(#linear-gradient)"/>
      <path id="Trazado_4" data-name="Trazado 4" d="M157.722,2.6A134.355,134.355,0,0,0,143.481.38L.5,119.134c-.314,3.721-.5,7.476-.5,11.28,0,1.042,0,2.084.083,3.109Z" transform="translate(0 0.249)" fill="url(#linear-gradient)"/>
      <path id="Trazado_5" data-name="Trazado 5" d="M179.018,7.3c-3.887-1.555-7.856-2.961-11.908-4.135L.39,141.623a117.27,117.27,0,0,0,1.869,12.5Z" transform="translate(0.255 2.073)" fill="url(#linear-gradient-4)"/>
      <path id="Trazado_6" data-name="Trazado 6" d="M195.893,13.391c-3.308-1.985-6.732-3.854-10.238-5.541L2.76,159.733q1.538,5.657,3.556,11.1Z" transform="translate(1.805 5.134)" fill="url(#linear-gradient)"/>
      <path id="Trazado_7" data-name="Trazado 7" d="M209.169,20.616c-2.861-2.332-5.822-4.581-8.865-6.616L6.79,174.666q2.266,5.094,4.962,9.924Z" transform="translate(4.44 9.155)" fill="url(#linear-gradient-6)"/>
      <path id="Trazado_8" data-name="Trazado 8" d="M219.27,28.917q-3.639-4.019-7.625-7.707L12.31,186.755c1.935,3.06,4.019,6.02,6.2,8.9Z" transform="translate(8.05 13.871)" fill="url(#linear-gradient)"/>
      <path id="Trazado_9" data-name="Trazado 9" d="M26.483,204.331,226.464,38.24q-3.027-4.482-6.434-8.7L19.09,196.425Q22.613,200.543,26.483,204.331Z" transform="translate(12.484 19.318)" fill="url(#linear-gradient)"/>
      <path id="Trazado_10" data-name="Trazado 10" d="M230.683,48.672c-1.654-3.308-3.308-6.616-5.193-9.742L27.13,203.681c2.762,2.415,5.64,4.714,8.6,6.9Z" transform="translate(17.742 25.459)" fill="url(#linear-gradient)"/>
      <path id="Trazado_11" data-name="Trazado 11" d="M231.78,60.29q-1.654-5.524-3.837-10.85L36.48,208.386q4.846,3.11,9.924,5.772Z" transform="translate(23.856 32.332)" fill="url(#linear-gradient-10)"/>
      <path id="Trazado_12" data-name="Trazado 12" d="M229.226,73.3q-.844-6.186-2.249-12.19L47.29,210.347c3.771,1.654,7.641,3.126,11.578,4.433Z" transform="translate(30.926 39.964)" fill="url(#linear-gradient-4)"/>
      <path id="Trazado_13" data-name="Trazado 13" d="M222.031,88.256c.1-2.034.165-4.1.165-6.169,0-2.613,0-5.227-.248-7.807L59.86,208.846a128.986,128.986,0,0,0,13.728,2.646Z" transform="translate(39.146 48.576)" fill="url(#linear-gradient-12)"/>
      <path id="Trazado_14" data-name="Trazado 14" d="M92.185,202.337l115.5-95.93A132.154,132.154,0,0,0,211.1,89.52L75,202.6c2.2.116,4.416.2,6.616.2C85.188,202.783,88.695,202.618,92.185,202.337Z" transform="translate(49.047 58.543)" fill="url(#linear-gradient-13)"/>
      <path id="Trazado_15" data-name="Trazado 15" d="M94.47,187.87A130.812,130.812,0,0,0,190.1,108.48Z" transform="translate(61.78 70.942)" fill="url(#linear-gradient-10)"/>
    </g>
  </g>
</svg>
