<svg id="contratado" xmlns="http://www.w3.org/2000/svg" width="33.025" height="35.591" viewBox="0 0 33.025 35.591">
  <path id="Trazado_4388" data-name="Trazado 4388" d="M0,0H32.782V35.591H0Z" transform="translate(0 0)" fill="none"/>
  <path id="Trazado_4389" data-name="Trazado 4389" d="M13.064,6.966A2.966,2.966,0,1,1,10.1,9.932a2.975,2.975,0,0,1,2.966-2.966m0,13.346c4,0,8.6,1.928,8.9,2.966v1.483H4.166V23.278c.3-1.038,4.894-2.966,8.9-2.966M13.064,4A5.932,5.932,0,1,0,19,9.932,5.856,5.856,0,0,0,13.064,4Zm0,13.346c-4,0-11.864,1.928-11.864,5.932v4.449H24.928V23.278C24.928,19.274,17.068,17.346,13.064,17.346Z" transform="translate(0.58 1.932)" fill="#68b744"/>
  <rect id="Rect치ngulo_89" data-name="Rect치ngulo 89" width="11.567" height="2.966" transform="translate(22.749 16.984) rotate(-45)" fill="#68b744"/>
  <rect id="Rect치ngulo_90" data-name="Rect치ngulo 90" width="6.525" height="2.966" transform="translate(24.596 18.872) rotate(-135)" fill="#68b744"/>
</svg>
