<svg id="contratado" xmlns="http://www.w3.org/2000/svg" width="25.37" height="27.34" viewBox="0 0 25.37 27.34">
  <path id="Trazado_4388" data-name="Trazado 4388" d="M0,0H25.183V27.34H0Z" transform="translate(0 0)" fill="none"/>
  <path id="Trazado_4389" data-name="Trazado 4389" d="M10.314,6.278A2.278,2.278,0,1,1,8.035,8.557a2.285,2.285,0,0,1,2.278-2.278m0,10.253c3.076,0,6.607,1.481,6.835,2.278v1.139H3.478V18.809c.228-.8,3.759-2.278,6.835-2.278M10.314,4a4.557,4.557,0,1,0,4.557,4.557A4.5,4.5,0,0,0,10.314,4Zm0,10.253c-3.076,0-9.114,1.481-9.114,4.557v3.418H19.427V18.809C19.427,15.734,13.39,14.253,10.314,14.253Z" transform="translate(0.167 0.557)" fill="#707070"/>
  <rect id="Rect치ngulo_89" data-name="Rect치ngulo 89" width="8.886" height="2.279" transform="translate(17.475 13.047) rotate(-45)" fill="#707070"/>
  <rect id="Rect치ngulo_90" data-name="Rect치ngulo 90" width="5.012" height="2.278" transform="translate(18.894 14.497) rotate(-135)" fill="#707070"/>
</svg>
