<svg xmlns="http://www.w3.org/2000/svg" width="29.569" height="29.569" viewBox="0 0 29.569 29.569">
  <g id="twitter-sign" transform="translate(0)">
    <path id="Trazado_26" data-name="Trazado 26" d="M27.945,1.627A5.339,5.339,0,0,0,24.028,0H5.547A5.341,5.341,0,0,0,1.63,1.627,5.341,5.341,0,0,0,0,5.544V24.025A5.341,5.341,0,0,0,1.63,27.943a5.34,5.34,0,0,0,3.918,1.627H24.028a5.554,5.554,0,0,0,5.544-5.544V5.544A5.341,5.341,0,0,0,27.945,1.627Zm-5.323,9.751a5.1,5.1,0,0,1,.019.52,11.649,11.649,0,0,1-1.916,6.362A12.133,12.133,0,0,1,18.407,20.9a10.412,10.412,0,0,1-3.234,1.828,11.77,11.77,0,0,1-4.042.684,11.345,11.345,0,0,1-6.2-1.809,7.8,7.8,0,0,0,.963.058,7.987,7.987,0,0,0,5.025-1.733,3.836,3.836,0,0,1-2.339-.809,4.109,4.109,0,0,1-1.434-2,5.42,5.42,0,0,0,.751.077,3.763,3.763,0,0,0,.982-.154,4.044,4.044,0,0,1-2.368-1.4,3.844,3.844,0,0,1-.963-2.57v-.038a4.774,4.774,0,0,0,1.925.5,3.813,3.813,0,0,1-1.752-3.369,4,4,0,0,1,.558-2.041,11.459,11.459,0,0,0,3.7,2.984,11.445,11.445,0,0,0,4.659,1.251,3.716,3.716,0,0,1-.1-.924A4.043,4.043,0,0,1,18.58,7.392a3.842,3.842,0,0,1,2.946,1.271,8.041,8.041,0,0,0,2.58-.982,3.931,3.931,0,0,1-1.79,2.252,8.57,8.57,0,0,0,2.329-.655A7.862,7.862,0,0,1,22.623,11.377Z" transform="translate(-0.003)" fill="#1c4a83"/>
  </g>
</svg>
