<svg width="17.227" height="19.393" viewBox="0 0 17.227 19.393" xmlns="http://www.w3.org/2000/svg" xmlns:xlink="http://www.w3.org/1999/xlink" overflow="hidden"><g id="Grupo_69" transform="translate(82.26 -1.889)"><g id="user_1_" transform="translate(-81.51 2.639)"><g id="Grupo_63" transform="translate(3.635 0)"><g id="Grupo_62"><path d="M125.227 0C122.892 4.44089e-15 120.999 1.89294 120.999 4.228 120.999 6.56306 122.892 8.456 125.227 8.456 127.562 8.456 129.455 6.56306 129.455 4.228 129.452 1.89408 127.561 0.00275535 125.227 1.64032e-07Z" id="Trazado_29" stroke="#707070" stroke-width="1.5" fill="none" transform="translate(-120.999 0)"/></g></g><g id="Grupo_65" transform="matrix(1 0 0 1 0 11.316)"><g id="Grupo_64"><path d="M46.637 305.028C45.1253 303.083 42.7872 301.961 40.324 302L37.4 302C34.9368 301.961 32.5987 303.083 31.087 305.028L30.999 305.146 30.999 308.577 46.726 308.577 46.726 305.146Z" id="Trazado_30" stroke="#707070" stroke-width="1.5" fill="none" transform="translate(-30.999 -302)"/></g></g></g></g></svg>