<svg xmlns="http://www.w3.org/2000/svg" xmlns:xlink="http://www.w3.org/1999/xlink" width="54" height="54" viewBox="0 0 54 54">
  <defs>
    <linearGradient id="linear-gradient" x1="0.5" x2="0.5" y2="1" gradientUnits="objectBoundingBox">
      <stop offset="0" stop-color="#5db64b"/>
      <stop offset="0.23" stop-color="#4da667"/>
      <stop offset="0.72" stop-color="#247ead"/>
      <stop offset="1" stop-color="#0c66d8"/>
    </linearGradient>
  </defs>
  <g id="point_of_sale_black_24dp" transform="translate(0 -0.123)">
    <rect id="Rectángulo_52" data-name="Rectángulo 52" width="54" height="54" transform="translate(0 0.123)" fill="none"/>
    <path id="Trazado_275" data-name="Trazado 275" d="M35.61,2H13.2A4.5,4.5,0,0,0,8.722,6.481v4.481A4.5,4.5,0,0,0,13.2,15.444H35.61a4.5,4.5,0,0,0,4.481-4.481V6.481A4.5,4.5,0,0,0,35.61,2Zm0,8.963H13.2V6.481H35.61Zm6.722,35.851H6.481A4.5,4.5,0,0,1,2,42.332V40.091H46.813v2.241A4.5,4.5,0,0,1,42.332,46.813ZM39.038,20.351a4.5,4.5,0,0,0-4.1-2.666H13.876a4.5,4.5,0,0,0-4.1,2.666L2,37.851H46.813ZM18.805,33.369H16.564a1.12,1.12,0,1,1,0-2.241h2.241a1.12,1.12,0,0,1,0,2.241Zm0-4.481H16.564a1.12,1.12,0,1,1,0-2.241h2.241a1.12,1.12,0,0,1,0,2.241Zm0-4.481H16.564a1.12,1.12,0,1,1,0-2.241h2.241a1.12,1.12,0,0,1,0,2.241Zm6.722,8.963H23.286a1.12,1.12,0,0,1,0-2.241h2.241a1.12,1.12,0,1,1,0,2.241Zm0-4.481H23.286a1.12,1.12,0,0,1,0-2.241h2.241a1.12,1.12,0,1,1,0,2.241Zm0-4.481H23.286a1.12,1.12,0,0,1,0-2.241h2.241a1.12,1.12,0,1,1,0,2.241Zm6.722,8.963H30.008a1.12,1.12,0,1,1,0-2.241h2.241a1.12,1.12,0,0,1,0,2.241Zm0-4.481H30.008a1.12,1.12,0,1,1,0-2.241h2.241a1.12,1.12,0,0,1,0,2.241Zm0-4.481H30.008a1.12,1.12,0,1,1,0-2.241h2.241a1.12,1.12,0,0,1,0,2.241Z" transform="translate(2.846 2.481)" fill="url(#linear-gradient)"/>
  </g>
</svg>
