<svg xmlns="http://www.w3.org/2000/svg" width="16.097" height="19.455" viewBox="0 0 16.097 19.455">
  <g id="Grupo_280" data-name="Grupo 280" transform="translate(53.919 3.38)">
    <path id="Trazado_4469" data-name="Trazado 4469" d="M-44.517,1l-5.705,2.536v3.8a7.889,7.889,0,0,0,5.705,7.607,7.889,7.889,0,0,0,5.705-7.607v-3.8Zm-1.426,10.515-2.852-2.852,1.005-1.005L-45.942,9.5l4.7-4.7,1.005,1.013Z" transform="translate(-1.353 -1.603)" fill="#68b744"/>
    <g id="Grupo_279" data-name="Grupo 279" transform="translate(-53.919 -3.38)">
      <path id="Trazado_4470" data-name="Trazado 4470" d="M-45.87,16.075l-.162-.04A10.879,10.879,0,0,1-53.919,5.551V.2L-45.87-3.38-37.822.2V5.551a10.879,10.879,0,0,1-7.886,10.484Zm-6.681-14.99V5.551a9.5,9.5,0,0,0,6.681,9.114,9.5,9.5,0,0,0,6.681-9.114V1.085L-45.87-1.884Z" transform="translate(53.919 3.38)" fill="#68b744"/>
    </g>
  </g>
</svg>
