<svg xmlns="http://www.w3.org/2000/svg" width="23.598" height="28.521" viewBox="0 0 23.598 28.521">
  <g id="Grupo_280" data-name="Grupo 280" transform="translate(53.919 3.38)">
    <path id="Trazado_4469" data-name="Trazado 4469" d="M-41.858,1l-8.364,3.717v5.576c0,5.158,3.568,9.981,8.364,11.152,4.8-1.171,8.364-5.994,8.364-11.152V4.717Zm-2.09,15.415-4.181-4.181,1.474-1.474,2.707,2.7,6.888-6.888,1.474,1.485Z" transform="translate(-0.261 -0.31)" fill="#68b744"/>
    <g id="Grupo_279" data-name="Grupo 279" transform="translate(-53.919 -3.38)">
      <path id="Trazado_4470" data-name="Trazado 4470" d="M-42.12,25.141l-.238-.059c-6.591-1.61-11.561-8.218-11.561-15.37V1.864l11.8-5.244,11.8,5.244V9.713c0,7.152-4.971,13.76-11.561,15.37ZM-51.915,3.166V9.713c0,6.169,4.194,11.865,9.795,13.361,5.6-1.5,9.795-7.193,9.795-13.361V3.166L-42.12-1.187Z" transform="translate(53.919 3.38)" fill="#68b744"/>
    </g>
  </g>
</svg>
