<svg id="visibility_black_24dp" xmlns="http://www.w3.org/2000/svg" width="39.141" height="39.141" viewBox="0 0 39.141 39.141">
  <path id="Trazado_318" data-name="Trazado 318" d="M0,0H39.141V39.14H0Z" fill="none"/>
  <path id="Trazado_319" data-name="Trazado 319" d="M18.94,7.262a15.934,15.934,0,0,1,14.384,8.97,16.019,16.019,0,0,1-28.769,0A15.934,15.934,0,0,1,18.94,7.262M18.94,4A19.288,19.288,0,0,0,1,16.231a19.272,19.272,0,0,0,35.88,0A19.288,19.288,0,0,0,18.94,4Zm0,8.154a4.077,4.077,0,1,1-4.077,4.077,4.079,4.079,0,0,1,4.077-4.077m0-3.262a7.339,7.339,0,1,0,7.339,7.339A7.35,7.35,0,0,0,18.94,8.893Z" transform="translate(0.631 2.523)" fill="#b2b3b5"/>
</svg>
