<svg id="visibility_black_24dp" xmlns="http://www.w3.org/2000/svg" width="20.528" height="20.528" viewBox="0 0 20.528 20.528">
  <path id="Trazado_318" data-name="Trazado 318" d="M0,0H20.528V20.528H0Z" fill="none"/>
  <path id="Trazado_319" data-name="Trazado 319" d="M10.409,5.711a8.357,8.357,0,0,1,7.544,4.7,8.4,8.4,0,0,1-15.088,0,8.357,8.357,0,0,1,7.544-4.7m0-1.711A10.116,10.116,0,0,0,1,10.415a10.107,10.107,0,0,0,18.818,0A10.116,10.116,0,0,0,10.409,4Zm0,4.277A2.138,2.138,0,1,1,8.27,10.415a2.139,2.139,0,0,1,2.138-2.138m0-1.711a3.849,3.849,0,1,0,3.849,3.849A3.855,3.855,0,0,0,10.409,6.566Z" transform="translate(-0.145 -0.579)" fill="#1c4a83"/>
</svg>
