<svg xmlns="http://www.w3.org/2000/svg" width="27.605" height="27.602" viewBox="0 0 27.605 27.602">
  <g id="visibility_black_24dp" transform="translate(0 0)">
    <path id="Trazado_318" data-name="Trazado 318" d="M0,0H27.6V27.6H0Z" transform="translate(0 0)" fill="none"/>
    <path id="Trazado_319" data-name="Trazado 319" d="M13.652,6.3A11.238,11.238,0,0,1,23.8,12.626a11.3,11.3,0,0,1-20.29,0A11.238,11.238,0,0,1,13.652,6.3m0-2.3A13.6,13.6,0,0,0,1,12.626a13.592,13.592,0,0,0,25.3,0A13.6,13.6,0,0,0,13.652,4Zm0,5.751a2.875,2.875,0,1,1-2.876,2.875,2.876,2.876,0,0,1,2.876-2.875m0-2.3a5.175,5.175,0,1,0,5.176,5.175A5.183,5.183,0,0,0,13.652,7.45Z" transform="translate(0.15 0.6)" fill="#6b89ae"/>
  </g>
</svg>
