<svg id="assignment_ind_black_24dp" xmlns="http://www.w3.org/2000/svg" width="16.63" height="16.629" viewBox="0 0 16.63 16.629">
  <path id="Trazado_320" data-name="Trazado 320" d="M0,0H16.63V16.629H0Z" fill="none"/>
  <path id="Trazado_321" data-name="Trazado 321" d="M14.086,2.386h-2.9a2.07,2.07,0,0,0-3.908,0h-2.9A1.39,1.39,0,0,0,3,3.772v9.7a1.39,1.39,0,0,0,1.386,1.386h9.7a1.39,1.39,0,0,0,1.386-1.386v-9.7A1.39,1.39,0,0,0,14.086,2.386Zm-4.85-.173a.531.531,0,1,1-.381.173A.519.519,0,0,1,9.236,2.213Zm4.85,11.259h-9.7v-9.7h9.7ZM9.236,4.464a2.079,2.079,0,1,0,2.079,2.079A2.085,2.085,0,0,0,9.236,4.464Zm0,2.772a.693.693,0,1,1,.693-.693A.695.695,0,0,1,9.236,7.236ZM5.079,11.719v1.06h8.315v-1.06c0-1.732-2.751-2.481-4.157-2.481S5.079,9.98,5.079,11.719Zm1.6-.326a4.858,4.858,0,0,1,2.557-.776,4.838,4.838,0,0,1,2.557.776Z" transform="translate(-0.921 -0.307)" fill="#1c4a83"/>
</svg>
