<svg id="new_releases_black_24dp" xmlns="http://www.w3.org/2000/svg" width="17.451" height="17.451" viewBox="0 0 17.451 17.451">
  <path id="Trazado_4384" data-name="Trazado 4384" d="M0,0H17.451V17.451H0Z" fill="none"/>
  <path id="Trazado_4385" data-name="Trazado 4385" d="M16.766,8.969,15.018,6.994l.244-2.614L12.674,3.8,11.32,1.54,8.883,2.577,6.447,1.54,5.092,3.8,2.5,4.374l.244,2.614L1,8.969l1.749,1.974L2.5,13.564l2.587.582L6.447,16.4l2.437-1.044L11.32,16.4l1.354-2.258,2.587-.582-.244-2.614Zm-3.232,1.5.186,1.981-1.964.44L10.732,14.6l-1.849-.788L7.034,14.6,6.009,12.889l-1.964-.44.186-1.989L2.906,8.969,4.232,7.463,4.046,5.489l1.964-.433L7.034,3.344l1.849.781,1.849-.788,1.025,1.712,1.964.44L13.534,7.47l1.326,1.5ZM8.166,11.1H9.6v1.42H8.166Zm0-5.682H9.6V9.679H8.166Z" transform="translate(-0.158 -0.243)" fill="#b2b3b5"/>
</svg>
