<?xml version="1.0" encoding="utf-8"?>
<!-- Generator: Adobe Illustrator 24.1.3, SVG Export Plug-In . SVG Version: 6.00 Build 0)  -->
<svg version="1.1" id="Layer_1" xmlns="http://www.w3.org/2000/svg" xmlns:xlink="http://www.w3.org/1999/xlink" x="0px" y="0px"
	 viewBox="0 0 29.6 29.6" style="enable-background:new 0 0 29.6 29.6;" xml:space="preserve">
<style type="text/css">
	.st0{fill:#1C4A83;}
</style>
<path id="Trazado_4712" class="st0" d="M4.4,0h21c1.7-0.2,3.3,0.8,4,2.4c0.2,0.6,0.2,1.2,0.2,1.8v21.3c0,1.6-0.5,2.7-1.4,3.3
	c-0.7,0.6-1.7,0.9-2.7,0.8H4.1c-1.8,0.2-3.5-1-4-2.8L0,25.2v-21c0-2.1,0.9-3.5,2.6-4.1C3.2,0,3.8,0,4.4,0z M5.9,14.7
	c0,1.6,0.4,3.1,1.2,4.5l-1.2,4.6l4.7-1.2c1.3,0.7,2.8,1.1,4.4,1.1c4.9-0.1,8.8-4,8.8-8.9c0-3.2-1.7-6.1-4.4-7.7
	c-1.4-0.8-2.9-1.2-4.5-1.2c-3,0-5.8,1.5-7.4,4C6.5,11.2,5.9,12.9,5.9,14.7z M14.8,7.3c2.7,0,5.1,1.5,6.5,3.8
	c0.6,1.1,0.9,2.4,0.9,3.7c0,2.7-1.3,4.9-4,6.5c-1,0.5-2.1,0.8-3.3,0.8c-1.5,0-2.9-0.4-4.2-1.2l-2.7,0.7H8l0.7-2.7
	c-0.8-1.3-1.3-2.7-1.3-4.2c0-2.7,1.5-5.1,3.8-6.5C12.4,7.6,13.6,7.3,14.8,7.3z M10.3,12.7c0,1.5,1.1,3.1,3.4,5
	c1,0.8,2.2,1.2,3.4,1.3c0.8,0,1.6-0.4,2-1.1l0.2-0.9c0-0.2-0.7-0.6-2.2-1.2H17c-0.5,0.8-0.9,1.1-1,1.1h-0.1
	c-1.4-0.5-2.5-1.5-3.2-2.7V14c0.4-0.3,0.6-0.7,0.7-1.2c-0.6-1.4-0.9-2.1-1.1-2.1l-0.4-0.1c-0.7,0-1.2,0.6-1.5,1.8L10.3,12.7z"/>
</svg>
